<?xml version="1.0" encoding="UTF-8" standalone="no"?>
<!-- Created with Inkscape (http://www.inkscape.org/) -->

<svg
   version="1.1"
   id="svg1"
   width="1410.4203"
   height="1242.6877"
   viewBox="0 0 1410.4203 1242.6877"
   sodipodi:docname="Emblem of the Ministry of Education of Afghanistan.svg"
   inkscape:version="1.3.2 (091e20e, 2023-11-25, custom)"
   xmlns:inkscape="http://www.inkscape.org/namespaces/inkscape"
   xmlns:sodipodi="http://sodipodi.sourceforge.net/DTD/sodipodi-0.dtd"
   xmlns="http://www.w3.org/2000/svg"
   xmlns:svg="http://www.w3.org/2000/svg">
  <defs
     id="defs1">
    <clipPath
       clipPathUnits="userSpaceOnUse"
       id="clipPath138">
      <path
         id="path138"
         style="fill:#0000ff;fill-opacity:1;stroke:none;stroke-width:6.67087;stroke-linecap:square;stroke-linejoin:miter;stroke-dasharray:none;stroke-opacity:1"
         d="M 779.25,532.71875 V 658.25 H 858.5 V 532.71875 Z m 39.8457,0.006 h 2.73828 v 71.51172 a 6.8500967,5.833631 0 0 1 5.12696,5.64258 6.8500967,5.833631 0 0 1 -6.84961,5.83398 6.8500967,5.833631 0 0 1 -6.84961,-5.83398 6.8500967,5.833631 0 0 1 5.83398,-5.76563 z" />
    </clipPath>
  </defs>
  <sodipodi:namedview
     id="namedview1"
     pagecolor="#ffffff"
     bordercolor="#000000"
     borderopacity="0.25"
     inkscape:showpageshadow="2"
     inkscape:pageopacity="0.0"
     inkscape:pagecheckerboard="0"
     inkscape:deskcolor="#d1d1d1"
     showgrid="false"
     inkscape:zoom="0.35355339"
     inkscape:cx="657.6093"
     inkscape:cy="632.15346"
     inkscape:window-width="1366"
     inkscape:window-height="745"
     inkscape:window-x="-8"
     inkscape:window-y="-8"
     inkscape:window-maximized="1"
     inkscape:current-layer="g1"
     showguides="false" />
  <g
     inkscape:groupmode="layer"
     inkscape:label="Image"
     id="g1"
     transform="translate(-115.94336,-24.609375)">
    <g
       id="g138">
      <path
         id="rect138"
         style="display:inline;fill:#fcb330;fill-opacity:1;stroke-width:6.67087;stroke-linecap:square"
         d="m 514,657 127.56928,4.23223 8.10051,-12.09924 L 521.38505,609.92591 686.00523,638.62548 539.57702,565.43183 696.34159,618.39925 560.17554,522.23704 709.18723,600.84011 584.58246,480.51188 721.03748,582.45851 620.2104,446.84814 738.76658,569.68221 661.40525,421.99356 757.6074,557.91912 703.81894,400.47925 l 73.60207,149.39931 -27.82324,-163.1794 48.91171,156.78222 -2.04393,-163.16928 23.43118,158.32647 24.09867,-158.14085 -1.72909,164.06565 48.83526,-157.18235 -28.24658,163.26532 73.79271,-149.5938 -53.62167,156.81691 97.36658,-137.283 -77.60899,148.0534 116.52878,-119.89793 -99.54039,133.91617 128.99279,-95.87748 -115.75096,112.94985 151.19916,-79.908 -139.91134,98.70637 160.09034,-54.33038 -151.85497,74.87377 166.52577,-29.30445 -130.83684,41.11471 13.60154,7.98112 123.1288,-1.60893 -68.0974,11.1675 L 653.5,677.5 Z"
         sodipodi:nodetypes="cccccccccccccccccccccccccccccccccccccccccccc" />
      <g
         id="rect123">
        <path
           style="color:#000000;fill:#00aff0;stroke-linecap:square;-inkscape-stroke:none"
           d="m 123.75033,1089.9419 c 0,0 51.20024,-85.302 125.00245,-104.58859 69.14916,-18.07062 195.73168,22.21429 195.73168,22.21429 l -18.0387,219.3834 c -60.05997,-45.2279 -129.63625,-62.3256 -213.31051,-48.2084 6.49765,-26.2058 15.14984,-59.0874 41.47928,-80.0374 -31.62223,-16.1446 -62.72184,-34.5809 -130.8642,-8.7633 z"
           id="path123" />
        <path
           style="color:#000000;fill:#1a1a1a;stroke-linecap:square;-inkscape-stroke:none"
           d="m 292.5332,977.31836 c -15.99401,-0.0596 -31.25698,1.31566 -44.62304,4.80859 -75.76468,19.79945 -127.01953,106.09765 -127.01953,106.09765 l -4.94727,8.2422 8.98828,-3.4063 c 64.31872,-24.3689 93.73735,-9.1033 123.91406,6.4395 -24.34402,21.7956 -32.75852,53.4795 -38.94726,78.4395 l -1.22461,4.9394 5.01562,-0.8476 c 82.93945,-13.9933 152.67072,2.2005 212.06448,46.9267 l 22.27146,-223.7627 -2.5293,-0.8066 c 0,0 -31.81779,-10.12631 -72.3125,-17.97854 -25.30919,-4.90765 -53.99371,-8.99245 -80.65039,-9.0918 z m -0.0801,6.75 c 25.97912,0.11619 54.40859,4.03278 79.46094,8.89062 37.63316,7.29732 65.48849,15.94992 69.02149,17.05662 l -17.33203,210.7969 c -58.39808,-42.168 -125.989,-58.4621 -205.93165,-46.1074 6.3823,-25.2038 15.23894,-54.4687 39.01954,-73.3906 l 4.05273,-3.2247 -4.61328,-2.3554 c -29.98742,-15.31 -61.51997,-33.1356 -123.97656,-12.2676 12.59392,-18.8044 56.52757,-78.9682 117.4414,-94.88672 12.56484,-3.28355 27.26995,-4.58144 42.85742,-4.51172 z"
           id="path124"
           sodipodi:nodetypes="ssccccscccccsssscccscscss" />
      </g>
      <path
         id="rect122"
         style="fill:#1a1a1a;stroke:#1a1a1a;stroke-width:6.67087;stroke-linecap:square"
         d="m 375.35825,1042.3859 79.16115,-1.8987 60.31297,108.7906 -86.78887,73.5323 c -9.04634,-50.3487 -21.83345,-104.9993 -52.68525,-180.4242 z"
         sodipodi:nodetypes="ccccc" />
      <g
         id="rect123-8">
        <path
           style="color:#000000;fill:#00aff0;stroke-linecap:square;-inkscape-stroke:none"
           d="m 1518.5574,1091.6967 c 0,0 -51.2003,-85.302 -125.0025,-104.58849 -69.1492,-18.07062 -195.7317,22.21419 -195.7317,22.21419 l 18.0387,219.3834 c 60.06,-45.2279 129.6363,-62.3256 213.3106,-48.2084 -6.4977,-26.2058 -15.1499,-59.0874 -41.4793,-80.0374 31.6222,-16.1446 62.7218,-34.5809 130.8642,-8.7633 z"
           id="path125" />
        <path
           style="color:#000000;fill:#1a1a1a;stroke-linecap:square;-inkscape-stroke:none"
           d="m 1349.7737,979.07267 c -26.6566,0.0994 -55.3412,4.18416 -80.6503,9.0918 -40.4948,7.85223 -72.3125,17.98043 -72.3125,17.98043 l -2.5293,0.8047 22.2433,225.8658 c 60.5758,-46.8061 129.4777,-63.3989 212.0926,-49.0299 l 5.0176,0.8477 -1.2246,-4.9375 c -6.1889,-24.9601 -14.6049,-56.6458 -38.9493,-78.4415 30.1767,-15.5428 59.5953,-30.8064 123.9141,-6.4375 l 8.9883,3.4043 -4.9473,-8.2402 c 0,0 -51.2529,-86.3002 -127.0176,-106.09953 -13.366,-3.49293 -28.6309,-4.86821 -44.625,-4.8086 z m 0.08,6.75 c 15.5875,-0.0697 30.2926,1.22818 42.8574,4.51172 60.9161,15.91901 104.8515,76.08681 117.4434,94.88861 -62.4581,-20.8692 -93.9908,-3.0445 -123.9785,12.2656 l -4.6133,2.3555 4.0527,3.2266 c 23.7813,18.9224 32.6411,48.1863 39.0235,73.3906 -79.9447,-12.3558 -147.5364,3.9381 -205.9356,46.1074 l -17.332,-210.7988 c 3.533,-1.1067 31.3883,-9.7593 69.0215,-17.0566 25.0523,-4.85784 53.4818,-8.77444 79.4609,-8.89063 z"
           id="path126"
           sodipodi:nodetypes="sscccccsccccsssscscccccss" />
      </g>
      <path
         id="rect122-7"
         style="display:inline;fill:#1a1a1a;stroke:#1a1a1a;stroke-width:6.67087;stroke-linecap:square"
         d="m 1263.7362,1045.6013 -79.1611,-1.8987 -60.313,108.7906 89.856,74.4086 c 9.0463,-50.3487 18.7663,-105.8756 49.6181,-181.3005 z"
         sodipodi:nodetypes="ccccc" />
      <path
         id="path113"
         style="display:inline;fill:#ffffff;stroke:#000000;stroke-width:6.67087;stroke-linejoin:round;stroke-dasharray:none;stroke-opacity:1"
         d="M 820.55291,162.34077 A 551.14955,550.81035 0 0 0 269.40324,713.15222 551.14955,550.81035 0 0 0 820.55291,1263.9617 551.14955,550.81035 0 0 0 1371.7026,713.15222 551.14955,550.81035 0 0 0 820.55291,162.34077 Z m -0.10536,213.03801 A 337.08952,336.8568 0 0 1 1157.5361,712.23646 337.08952,336.8568 0 0 1 820.44755,1049.0921 337.08952,336.8568 0 0 1 483.35703,712.23646 337.08952,336.8568 0 0 1 820.44755,375.37878 Z" />
      <path
         id="path120"
         style="display:inline;fill:#3e5ea9;fill-opacity:1;stroke:none;stroke-width:6.67087;stroke-linejoin:round;stroke-dasharray:none;stroke-opacity:1"
         d="M 819.97461,171.52148 A 541.38226,541.22278 0 0 0 278.5918,712.74609 541.38226,541.22278 0 0 0 819.97461,1253.9688 541.38226,541.22278 0 0 0 1361.3574,712.74609 541.38226,541.22278 0 0 0 819.97461,171.52148 Z m 0.63867,194.3379 A 346.13419,346.70987 0 0 1 1166.748,712.56836 346.13419,346.70987 0 0 1 820.61328,1059.2773 346.13419,346.70987 0 0 1 474.47852,712.56836 346.13419,346.70987 0 0 1 820.61328,365.85938 Z" />
      <path
         id="path112"
         style="display:inline;fill:#ffffff"
         d="m 903.57031,184.88867 c -4.92915,-0.1445 -11.10401,2.67511 -17.75,8.21289 -2.57366,2.14452 -5.54212,3.89844 -6.5957,3.89844 -2.34039,0 -4.64708,-2.51505 -5.90625,-6.4375 -0.51865,-1.61563 -1.39594,-3.08901 -1.94922,-3.27344 -1.70797,-0.56932 -9.21004,5.49669 -11.69336,9.45508 -4.9675,7.91814 -4.04657,13.55502 1,6.12109 1.5536,-2.28853 3.78703,-4.79087 4.96289,-5.56054 2.01123,-1.31649 2.28846,-1.12653 4.70508,3.19726 2.05792,3.68201 2.37767,5.09981 1.60547,7.13086 -1.39861,3.67861 -0.12766,4.88315 2.52344,2.39258 1.95715,-1.83866 3.6595,-2.16094 12.64453,-2.40039 14.90428,-0.39719 22.40235,-4.07566 24.7207,-12.125 1.00192,-3.47867 -0.74114,-7.84263 -3.7832,-9.4707 -1.33777,-0.71595 -2.84133,-1.09246 -4.48438,-1.14063 z M 806.97852,187 c -1.29765,0 -3.80843,4.57059 -4.45118,8.10352 -0.43997,2.41836 0.11519,5.24988 1.92774,9.83593 1.43933,3.64176 4.08256,15.15714 6.08203,26.5 3.18841,18.08771 4.98122,26.97998 12.92383,64.06055 3.92203,18.31028 4.83029,25.52589 4.17968,33.22266 -0.82341,9.74094 1.26658,9.98514 4.51368,0.52734 3.47006,-10.10723 3.19048,-23.35434 -0.9043,-42.75 C 826.01996,261.72696 819,224.20556 819,221.02148 v -2.98046 l 4.48438,3.1621 c 5.19114,3.65906 6.70098,3.10538 4.05273,-1.48437 C 820.57446,207.65158 807.59819,187 806.97852,187 Z m -17.125,1.05078 c -2.48553,-0.0119 -6.13939,0.83898 -10.72071,2.53711 -8.36054,3.09896 -10.21071,4.9275 -10.86523,10.73438 -0.4913,4.3588 -0.46653,4.40021 2.51953,4.28906 1.65892,-0.0618 2.82048,-0.43079 2.58008,-0.82227 -0.47802,-0.77843 10.51041,-4.24545 11.21679,-3.53906 0.23915,0.23915 -0.80679,1.74673 -2.32421,3.34961 -5.24707,5.54249 -9.39704,11.36829 -8.79297,12.3457 0.93298,1.50959 11.97786,-6.93865 14.96289,-11.44531 3.12442,-4.71712 5.89049,-13.50162 4.99023,-15.84766 -0.407,-1.06062 -1.63322,-1.59232 -3.5664,-1.60156 z M 901.36719,193 c 0.76365,0 1.90109,0.61651 2.52734,1.37109 0.90221,1.08711 0.56293,1.59192 -1.62891,2.42579 -4.31124,1.64018 -10.04947,2.35954 -10.67968,1.33984 C 890.99132,197.1746 898.94073,193 901.36719,193 Z m -149.53516,0.0547 c -2.86177,-0.23844 -6.74082,2.3843 -11.45312,7.94531 -4.55731,5.37809 -6.0664,8.0068 -16.92969,29.5 -11.38168,22.51885 -14.34073,28.04433 -22.1211,41.30664 l -5.45898,9.30664 -4.68555,-2.71484 c -10.76402,-6.23615 -28.15224,-18.64096 -27.5332,-19.64258 0.40219,-0.65076 0.18041,-0.76866 -0.57031,-0.30469 -0.7077,0.43738 -2.15082,-0.0663 -3.4043,-1.18555 C 658.479,256.19698 655.925,254.37895 654,253.22461 649.08134,250.27511 642.12749,243 644.22656,243 c 1.98989,0 4.99436,-2.83408 4.26172,-4.01953 C 647.7517,237.78866 626.94994,227 625.38867,227 c -2.13335,0 -2.34857,1.40783 -1.27148,8.32617 l 1.03515,6.65039 13.07422,12.76172 c 7.19079,7.01898 13.85733,13.49992 14.81446,14.40234 2.55631,2.41022 28.892,20.30907 32.85546,22.33008 1.86759,0.9523 2.99259,2.02391 2.5,2.38086 -1.07582,0.77961 -3.77565,4.54598 -12.2871,17.14844 -3.52887,5.22499 -6.9409,9.95 -7.58204,10.5 C 665.07971,324.45759 656,335.954 656,337.36133 c 0,4.2598 4.32399,0.95547 23.43359,-17.90039 3.26184,-3.21852 9.97164,-11.5632 13.03321,-16.21094 1.53977,-2.3375 3.11152,-4.25 3.49414,-4.25 0.38262,0 2.7775,1.37821 5.32031,3.0625 l 4.62305,3.0625 -3.07032,8.1875 c -5.57233,14.8589 -4.89495,33.31252 1.39649,38.00977 2.3587,1.76101 3.17561,1.87308 6.48437,0.88085 2.09112,-0.62708 5.86855,-3.19085 8.43946,-5.72656 l 4.65429,-4.58984 1.125,3.41016 c 2.06489,6.25667 8.29852,10.1207 14.56641,9.02929 1.65,-0.28731 4.88597,-1.44469 7.19141,-2.57226 5.57713,-2.72772 10.28634,-7.75942 15.21289,-16.25391 2.44087,-4.20865 4.06914,-6.20247 4.08203,-5 0.0339,3.16141 3.63216,8.25083 7.10156,10.04492 3.99077,2.06371 10.40009,1.26937 15.08789,-1.87109 2.97639,-1.99395 8.91101,-9.57718 10.0957,-12.90039 0.32216,-0.90369 1.16054,-0.62482 2.88868,0.96094 5.25314,4.82035 12.18445,3.61176 17.23046,-3.00391 6.19637,-8.12384 5.83882,-25.11509 -0.61328,-29.11719 -2.52229,-1.56454 -3.43363,-0.002 -4.1289,7.08594 -0.45641,4.65264 -0.25345,6.55318 0.80859,7.61523 2.03642,2.03641 0.006,3.68555 -4.53515,3.68555 -4.68134,0 -6.37195,-2.03506 -6.09766,-7.33789 0.50441,-9.75162 -3.5551,-8.32138 -7.72266,2.7207 -3.58733,9.50478 -7.50713,14.11143 -13.3457,15.6836 C 774.96688,326.16375 770,322.85036 770,315.55859 c 0,-8.3828 -3.07953,-6.65878 -11.375,6.36524 -2.13162,3.34665 -5.2549,7.43116 -6.93945,9.07812 -3.341,3.26645 -12.16398,7.00674 -16.47266,6.98243 -5.29802,-0.0299 -5.69767,-0.94568 -5.36523,-12.33399 0.27666,-9.47726 0.0684,-10.95172 -2.24219,-15.83594 -1.40122,-2.96192 -3.87831,-6.65938 -5.50391,-8.21679 l -2.95508,-2.83204 15.42774,-30.84765 C 743.05883,250.95077 750,236.46794 750,235.73438 c 0,-0.73356 0.39031,-1.76266 0.86719,-2.28516 0.47688,-0.5225 2.12796,-4.54922 3.66992,-8.94922 2.17713,-6.21246 2.8223,-9.89926 2.88281,-16.5 0.088,-9.60243 -1.90847,-14.63874 -5.58789,-14.94531 z m -26.54101,5.94922 c -0.98274,-0.0422 -2.46015,0.7804 -4.60743,2.40429 -5.43577,4.11084 -24.85878,13.30355 -31.68359,14.9961 -9.938,2.46462 -19.86793,3.4017 -26.5,2.50195 -7.74286,-1.05043 -13.23407,-2.44002 -14.8125,-3.75 -1.74315,-1.44669 -3.15216,-0.25908 -4.5625,3.84375 -1.17188,3.40911 -1.10506,3.57791 2.57812,6.5 5.49437,4.35901 8.01998,7.25861 8.70704,9.99609 0.33352,1.32884 1.0605,3.60932 1.61523,5.06836 1.5459,4.06604 3.8104,1.41037 4.17578,-4.89648 L 660.5,230.5 666,230.24609 c 13.25578,-0.61177 31.4692,-5.62519 41.13477,-11.32421 2.72472,-1.60655 5.2005,-2.92188 5.5039,-2.92188 0.30339,0 1.85963,-0.93091 3.45703,-2.06836 3.53444,-2.51675 3.55726,-2.27601 0.4043,4.25977 -1.375,2.85022 -2.5,5.98503 -2.5,6.96484 0,2.18435 2.16565,1.52725 3.52148,-1.06836 0.53838,-1.03067 2.89102,-5.039 5.22852,-8.90625 3.35627,-5.55274 4.25,-7.99213 4.25,-11.60547 0,-3.03547 -0.44546,-4.518 -1.70898,-4.57226 z m 245.25586,7.0625 c -1.52226,-0.0502 -3.11885,0.63087 -4.5254,2.14062 -2.52871,2.71426 -3.75872,7.10736 -4.63476,16.54297 -0.37022,3.9875 -0.94773,7.2388 -1.28125,7.22461 -0.33352,-0.0142 -1.4297,-1.81419 -2.4375,-4 -2.09763,-4.54955 -4.20514,-5.08503 -5.8457,-1.48438 -0.89903,1.97314 -0.79805,3.27142 0.48437,6.25 0.89025,2.06774 2.10346,5.67227 2.69531,8.00977 1.16622,4.60606 2.73448,5.30426 5.37305,2.38867 2.14164,-2.36649 3.29364,-6.41726 4.65625,-16.36914 1.1005,-8.03759 2.62133,-12.76953 4.10352,-12.76953 0.4476,0 1.50418,1.33378 2.34765,2.96484 2.57945,4.98812 6.33546,1.11256 4.83985,-4.99414 -0.90715,-3.70392 -3.2383,-5.82068 -5.77539,-5.90429 z M 749.82617,210 c 3.47229,0 0.46052,7.31345 -19.5625,47.5 -3.01442,6.04999 -8.22457,16.51251 -11.57812,23.25 -3.35357,6.73749 -6.34124,12.21566 -6.64063,12.17383 -0.29939,-0.0418 -2.21584,-1.27933 -4.25781,-2.75 -2.04197,-1.47067 -3.72947,-3.04128 -3.75,-3.49024 -0.0205,-0.44897 2.93725,-5.84897 6.57227,-12 3.63502,-6.15103 10.30455,-18.6086 14.82031,-27.68359 12.26503,-24.64816 20.40821,-37 24.39648,-37 z m 133.72266,1.0918 c -2.05339,-0.0554 -10.7262,7.93005 -18.07422,16.92773 C 857.49707,237.78804 852,251.40963 852,261.41016 c 0,3.55988 -0.40911,6.72475 -0.9082,7.0332 -1.71412,1.05939 -6.92419,15.06341 -8.55274,22.98633 -1.37883,6.70803 -1.45491,9.39586 -0.49218,17.45898 1.25113,10.47877 2.89383,15.53773 7.0332,21.65821 6.48817,9.5934 14.72778,15.41157 26.16797,18.47851 6.05645,1.62364 9.56075,1.87115 21.25195,1.5 7.69999,-0.24444 17.03296,-1.11221 20.74023,-1.92969 8.67987,-1.91395 24.22595,-8.09932 28.90039,-11.49804 5.4735,-3.97973 10.46007,-10.4534 12.99024,-16.86328 1.82513,-4.62377 2.2741,-7.76802 2.31641,-16.23438 0.0289,-5.77499 -0.25024,-12.86247 -0.6211,-15.75 -0.67288,-5.239 -0.66888,-5.24929 1.85742,-4.61523 3.20775,0.80509 4.49655,-1.09128 3.0918,-4.55079 -0.57697,-1.4209 -2.51885,-6.40898 -4.31445,-11.08398 -4.0315,-10.49633 -5.69903,-11.0184 -9.58008,-3 -2.55227,5.2731 -2.64463,6.0363 -2.24219,18.5 0.23087,7.14999 0.91878,17.84741 1.52735,23.77148 1.30787,12.73151 1.31625,12.71286 -8.81836,17.6543 -10.33594,5.03961 -20.01963,7.13968 -35.88868,7.7832 -21.28409,0.86314 -32.86625,-1.88593 -43.02343,-10.20898 -4.85709,-3.98002 -10.58766,-12.24573 -12.4375,-17.94141 -2.13024,-6.55903 -1.53377,-20.34295 1.17578,-27.16406 2.03132,-5.11371 2.6907,-5.88145 5.20898,-6.07422 4.94334,-0.37842 10.36334,-7.14385 12.07422,-15.07031 0.67423,-3.12369 -0.54829,-4.52939 -1.95703,-2.25 -1.00002,1.61806 -4.3542,1.14589 -5.32812,-0.75 -1.13271,-2.20497 -0.60614,-6.4719 1.51171,-12.25 2.17668,-5.93858 5.36925,-10.79976 13.55079,-20.62305 3.72057,-4.46716 6.76562,-8.40467 6.76562,-8.75 0,-0.3566 -0.15783,-0.52725 -0.45117,-0.53515 z m 35.07031,10.29492 c -0.69322,-0.004 -1.27322,0.0384 -1.70312,0.13281 -2.90425,0.63788 -8.42956,6.84038 -7.47266,8.38867 0.30447,0.49265 3.1412,1.20171 6.30469,1.57618 3.16347,0.37445 7.06626,1.22397 8.67187,1.88867 l 2.91797,1.20898 -4.41797,1.32031 C 913.75823,238.63968 908,241.1901 908,242.50977 c 0,1.42619 1.30785,1.36678 12.89648,-0.58594 5.33208,-0.89847 8.51358,-2.75977 14.85352,-8.6875 3.85839,-3.60753 4.09095,-5.6388 0.88672,-7.73828 -2.79666,-1.83244 -13.16506,-4.08336 -18.01758,-4.11133 z m 84.68746,1.92578 c -2.0203,-0.13426 -5.54366,2.53798 -8.78707,6.79102 -2.91979,3.82867 -3.59593,5.46011 -3.0918,7.46875 0.74765,2.97886 -3.79399,20.90093 -8.50585,33.5625 -1.71219,4.60093 -4.1552,11.51523 -5.42774,15.36523 -1.27255,3.85 -4.16563,12.17501 -6.42969,18.5 -8.05795,22.51108 -10.34803,32.20288 -9.88672,41.85156 0.46713,9.77027 2.79613,15.24892 8.20704,19.31055 2.7098,2.03409 4.1576,2.31878 11.11523,2.19727 5.19923,-0.0908 9.98721,-0.84942 13.67773,-2.16993 l 5.67969,-2.0332 v 5.39648 c 0,8.86325 4.64108,14.42983 13.73048,16.4668 4.9328,1.10546 14.7759,-0.18118 15.9531,-2.08594 0.317,-0.513 1.1493,-0.93359 1.8496,-0.93359 0.9193,0 1.1633,1.45933 0.8789,5.25 -0.51,6.79916 1.8803,11.2766 8.0782,15.13867 4.0203,2.50511 5.8884,2.95525 14.0625,3.38281 9.3954,0.49145 9.4234,0.49928 8.3828,2.78321 -1.6293,3.57595 -0.1162,8.99481 3.3183,11.88476 3.0223,2.54305 5.1755,3.02242 11.8887,2.64258 l 3.5,-0.19922 0.023,4.45117 c 0.048,9.28155 5.8469,13.66466 18.0821,13.66602 6.5639,7.3e-4 7.4512,-0.26329 11.6289,-3.45312 6.4895,-4.95511 12.9459,-14.5785 18.3808,-27.39844 4.5325,-10.69166 4.8034,-11.08059 6.5801,-9.47266 2.8647,2.59252 3.8324,0.66982 5.5899,-11.08984 1.9532,-13.06956 1.475,-13.94111 -5.5508,-10.11719 -4.7169,2.56727 -5.268,3.33964 -12.0684,16.86133 -3.9197,7.79374 -8.3637,18.33243 -9.875,23.41992 l -2.748,9.25 h -3.6231 c -5.5207,0 -9.8165,-1.89754 -11.4511,-5.05859 -2.1803,-4.2163 -1.8075,-6.79116 1.5312,-10.59375 1.65,-1.87925 3,-3.86595 3,-4.41407 0,-2.13442 -3.365,-2.10517 -8.0098,0.0703 -11.6044,5.43521 -22.2694,-2.57194 -13.9902,-10.50391 1.65,-1.5808 3,-3.7514 3,-4.82422 0,-1.80572 -0.4271,-1.88789 -5.75,-1.10742 -12.7318,1.8668 -21.6987,0.18216 -26.9395,-5.05859 -2.679,-2.67902 -3.3105,-4.0974 -3.3105,-7.44141 0,-2.27266 0.675,-5.74816 1.5,-7.72266 0.825,-1.9745 1.5,-3.98592 1.5,-4.46875 0,-1.49746 -2.9016,-0.97965 -9.6465,1.71875 -11.0649,4.42663 -20.2113,2.96615 -24.3945,-3.89453 -2.518,-4.12972 -2.4882,-9.74446 0.078,-14.77539 3.101,-6.07843 0.5682,-7.91773 -5.2246,-3.79297 -6.6387,4.72723 -20.9699,7.27844 -27.32227,4.86328 -3.44548,-1.30996 -4.93737,-2.87126 -7.58007,-7.9414 -1.91003,-3.66447 -2.11752,-5.30658 -1.69532,-13.36719 0.42482,-8.11081 1.33961,-11.7091 7.80469,-30.6875 4.02824,-11.82499 8.74287,-24.875 10.47656,-29 1.7337,-4.125 4.84086,-13.35001 6.9043,-20.5 2.06341,-7.14999 4.39271,-15.10915 5.17581,-17.6875 1.6371,-5.39006 1.8332,-9.44048 0.498,-10.26562 -0.2221,-0.13726 -0.4789,-0.2152 -0.7676,-0.23438 z m 25.6055,6.6543 -3.707,2.72656 c -2.0381,1.49965 -3.8479,2.81177 -4.0235,2.91797 -0.1756,0.10621 0.2033,1.94231 0.8438,4.08008 1.7697,5.90656 -0.07,11.16264 -6.2578,17.87109 -2.8406,3.07998 -6.9864,6.51322 -9.2149,7.63086 -4.1344,2.07351 -8.5527,5.60645 -8.5527,6.83984 0,0.58603 21.2563,3.64206 37.5,5.39063 21.8166,2.34849 55.6885,5.64282 63.5,6.17578 5.225,0.3565 9.6868,0.81641 9.916,1.02344 0.7343,0.66339 1.7099,0.41965 7.2012,-1.79883 6.4307,-2.59794 8.2496,-3.85783 7.1504,-4.95703 -0.4499,-0.44988 -7.3321,-1.50523 -15.293,-2.34375 -38.406,-4.04527 -89.9717,-10.07703 -89.9609,-10.52344 0.01,-0.275 1.4673,-1.45481 3.248,-2.62109 1.7807,-1.16629 4.8133,-4.74862 6.7383,-7.96094 3.1245,-5.2139 3.4982,-6.59527 3.4805,-12.87891 -0.011,-3.87138 -0.594,-8.05975 -1.295,-9.30664 z m -247.18554,0.5 c -0.55912,-0.0618 -1.46017,0.97196 -2.43945,3.21093 -1.99319,4.55714 -2.51644,13.31918 -1.05469,17.68555 1.97871,5.91059 5.72063,8.28523 8.56836,5.4375 1.47505,-1.47505 1.58704,-7.44384 0.15625,-8.32812 -0.5741,-0.35481 -1.69258,-0.10635 -2.48437,0.55078 -2.86296,2.37604 -4.41024,-6.28018 -2.55274,-14.2793 0.634,-2.73025 0.44031,-4.20736 -0.19336,-4.27734 z m -91.96875,5.47851 c -0.33936,0.0135 -0.73059,0.54273 -1.15039,1.63672 -0.93344,2.43249 -0.71999,13.99187 0.3086,16.69727 2.39048,6.28746 7.3669,7.46312 7.90429,1.86718 0.43621,-4.54232 -0.44564,-6.70288 -2.15625,-5.2832 C 692.2969,252.82785 691,249.97437 691,242.80078 c 0,-4.4207 -0.49558,-6.88518 -1.24219,-6.85547 z M 1046.3457,240 c -1.0348,0 -3.5059,1.10341 -5.4922,2.45312 -1.9863,1.34972 -3.9292,2.13722 -4.3164,1.75 -0.3873,-0.38721 -0.5569,-0.25312 -0.3769,0.29688 0.1799,0.55 -0.7281,2.70175 -2.0176,4.78125 -4.0467,6.52625 -0.2574,11.8488 5.0293,7.06445 2.2125,-2.00232 2.3892,-4.3457 0.3281,-4.3457 -2.7355,0 -1.5605,-2.3418 3.6133,-7.19922 3.7865,-3.55498 4.6256,-4.80078 3.2324,-4.80078 z m -485.1875,10.49219 c -2.95739,0.008 -6.15892,1.19871 -8.38672,3.21484 -4.72495,4.27603 -2.23324,16.27111 6.29688,30.31641 8.00232,13.17621 9.72291,16.36275 11.94336,22.11914 l 2.0664,5.35742 -4.78906,-5.1875 c -5.3046,-5.74565 -8.70242,-7.7284 -15.03906,-8.78125 -4.76982,-0.79251 -4.82416,-0.69432 -3.16016,5.91406 0.94008,3.73339 1.66543,4.57948 5.25,6.11719 5.01757,2.15244 18.23612,11.89139 19.0625,14.04492 0.89102,2.32195 3.90723,1.23402 5.43946,-1.96289 1.93466,-4.03653 0.71097,-10.43253 -3.52735,-18.43945 -5.63237,-10.64055 -9.50719,-17.61287 -10.46289,-18.82617 C 564.70667,282.92543 560,269.46187 560,267.64062 c 0,-3.26786 2.49587,-3.59979 7.97656,-1.06054 4.67049,2.16386 5.5677,2.3034 6.8125,1.05859 3.37007,-3.37005 -5.04996,-15.64162 -11.63672,-16.95898 -0.64152,-0.12831 -1.31166,-0.1894 -1.99414,-0.1875 z m 237.88868,6.63476 c -0.51728,-0.0129 -1.08185,0.008 -1.69532,0.0586 -3.01751,0.25058 -4.25215,1.00587 -6.07031,3.71289 -1.25519,1.86884 -2.28125,4.83003 -2.28125,6.58203 0,1.75199 -0.26526,3.45081 -0.58984,3.77539 -0.32458,0.32458 -2.46209,-1.3214 -4.75,-3.6582 C 779.96733,263.82592 773.24987,259 771.69336,259 c -0.92748,0 -1.96608,8.77447 -1.33594,11.28516 0.70033,2.79033 7.8878,7.08983 10.47852,6.26757 2.24929,-0.71388 4.0483,1.22532 7.72265,8.32422 2.54433,4.91569 2.89813,5.22043 4.11329,3.5586 C 793.56072,287.21998 794,283.4097 794,276.93164 c 0,-10.95154 0.86554,-12.6936 5.44336,-10.95312 4.13594,1.57248 4.55664,1.30943 4.55664,-2.85547 0,-4.19154 -1.33223,-5.90614 -4.95312,-5.9961 z m 117.6875,3.97266 c -1.32201,0.0282 -4.13791,0.37029 -7.25977,0.9043 -7.36874,1.26046 -7.55453,1.36443 -7.07031,3.89648 2.66159,13.91772 2.7486,14.18575 4.42578,13.71289 0.9187,-0.25901 4.25742,-1.0245 7.41992,-1.70117 4.88896,-1.04607 5.75,-1.56127 5.75,-3.43555 0,-2.75978 -1.85181,-12.6604 -2.48633,-13.29492 -0.0648,-0.0648 -0.33863,-0.0914 -0.77929,-0.082 z m -27.98829,7.23047 c -0.22205,-0.0431 -0.5829,0.11996 -1.08789,0.53906 -0.7381,0.61257 -1.71008,0.78078 -2.16015,0.37305 -0.45008,-0.40772 -0.47205,-0.14235 -0.0488,0.58984 0.48164,0.83318 -0.18382,2.32976 -1.77734,4 -7.31838,7.67069 -10.1603,22.76941 -5.2168,27.71289 3.79365,3.79366 9.51551,3.41809 13.84375,-0.91015 6.01949,-6.01949 7.1569,-15.37623 2.64062,-21.71875 -2.70144,-3.79384 -4.25971,-3.68463 -5.73828,0.40429 -1.65234,4.56945 -1.52585,5.70481 0.92578,8.31446 2.61059,2.77883 1.97406,4.78468 -1.94922,6.15234 -2.32953,0.81209 -3.45794,0.70556 -5.16796,-0.49219 -1.82163,-1.27592 -2.08067,-2.14097 -1.54493,-5.16406 0.89177,-5.03209 3.54188,-12.11793 5.71485,-15.28516 1.65391,-2.41067 2.23256,-4.38624 1.5664,-4.51562 z m -265.41015,0.82617 c -5.45949,0.11599 -10.11389,1.12376 -13.47266,2.97656 -5.00745,2.76228 -6.83035,5.78705 -6.8457,11.36719 -0.0149,5.40509 2.92881,9.87028 8.94531,13.57227 l 4.99023,3.07031 -2.13476,2.89062 c -1.17481,1.58901 -2.58529,2.61183 -3.13281,2.27344 -0.54751,-0.33838 -0.69336,-0.12659 -0.32422,0.4707 0.36915,0.59729 -1.79829,4.37911 -4.81836,8.4043 -3.02007,4.02519 -6.90656,9.95766 -8.63672,13.18359 -2.65486,4.95006 -3.05093,6.55654 -2.53906,10.29102 0.85662,6.24972 2.21352,8.34131 5.41797,8.35156 1.49314,0.005 12.27963,-1.86729 23.9707,-4.16015 11.69106,-2.29286 21.5054,-3.92039 21.80859,-3.61719 1.44671,1.44671 -10.12499,17.68761 -24.33007,34.14844 -10.33628,11.97766 -11.90671,13.43171 -20.88477,19.34375 -12.32892,8.11857 -25.72836,10.00752 -36.35547,5.12304 -10.29346,-4.73112 -15.7472,-11.56675 -19.82422,-24.8457 -3.40058,-11.07578 -3.4718,-12.70831 -0.58984,-13.43164 4.96876,-1.24708 5.55627,-9.99505 1.19336,-17.75781 -2.38071,-4.23591 -4.46619,-4.93508 -4.95313,-1.66211 -0.47223,3.17413 -3.12238,4.4914 -6.20703,3.08594 -5.147,-2.34513 -9.63907,-15.40648 -11.1914,-32.53711 -0.45205,-4.98857 -1.10061,-7.63563 -1.8125,-7.39454 -0.74881,0.25359 -1.0909,5.21722 -1.05274,15.28711 0.0527,13.91981 0.23944,15.35003 2.80274,21.52539 1.51017,3.63824 4.97212,9.37689 7.69335,12.75391 3.40997,4.23174 4.94727,7.05286 4.94727,9.07422 0,8.30421 4.9254,22.69474 10.9707,32.05664 6.18656,9.58063 8.34784,12.01735 14.00782,15.78516 10.65974,7.09611 20.96797,8.83861 33.33203,5.63476 5.71979,-1.48215 11.55434,-3.92269 12.68945,-5.30859 0.275,-0.33576 2.75,-2.40419 5.5,-4.59571 15.31808,-12.2072 34.93151,-37.17787 39.28516,-50.01562 3.16072,-9.32015 3.57859,-13.0743 2.18554,-19.63867 -1.49608,-7.04984 -5.20605,-11.43899 -10.50781,-12.4336 -2.98055,-0.55916 -18.31233,1.3943 -25.22461,3.21485 -1.8105,0.47684 -0.82926,-1.31906 4.92578,-9.01953 6.53279,-8.74113 7.337,-9.4792 8.83985,-8.11914 3.43139,3.10537 6.67911,0.56809 4.49023,-3.50782 -1.29176,-2.40537 -1.04654,-2.77537 6.69336,-10.10742 5.91517,-5.60347 7.90259,-8.10973 7.53125,-9.5 -0.27743,-1.03866 -1.05361,-3.99878 -1.72461,-6.57812 -1.47204,-5.65852 -4.05094,-7.18044 -15.06836,-8.89063 -3.74792,-0.58177 -7.31415,-0.83326 -10.58984,-0.76367 z M 755.12109,279.875 c -0.23691,-4.1e-4 -0.57279,0.21691 -1.00586,0.69141 -1.75771,1.92586 -4.43022,10.69079 -4.52148,14.83203 -0.10216,4.63632 1.9688,9.60156 4.00391,9.60156 0.69278,0 1.9658,-0.70798 2.83007,-1.57227 1.36622,-1.36621 1.62376,-2.3861 1.5586,-6.17773 -0.007,-0.4125 -1.01959,-0.75614 -2.25,-0.76367 -1.86999,-0.0114 -2.28808,-0.64464 -2.55274,-3.85547 -0.17414,-2.11265 0.40636,-5.65036 1.29102,-7.86133 1.17045,-2.92524 1.35721,-4.8933 0.64648,-4.89453 z m 377.86131,2.25586 c -3.1184,-0.20155 -11.9479,7.17064 -14.4844,12.51562 -1.3328,2.80863 -1.4706,4.1207 -0.625,5.97657 1.4126,3.10043 3.6348,3.00976 6.6739,-0.26953 2.9944,-3.23099 3.0935,-4.35352 0.3847,-4.35352 -4.1582,0 -0.082,-6.40928 7.084,-11.14062 1.3668,-0.90238 2.1485,-1.98764 1.7383,-2.41211 -0.187,-0.19357 -0.4489,-0.29556 -0.7715,-0.31641 z M 629.03516,285 c 2.23889,0 2.15307,0.22291 -1.53516,4 -2.14824,2.2 -4.37725,3.98919 -4.95312,3.97656 -0.57588,-0.0126 -2.73438,-0.99983 -4.79688,-2.19531 -2.0625,-1.19547 -3.75,-2.48957 -3.75,-2.875 C 614,287.15184 625.13219,285 629.03516,285 Z m 415.67964,6.00586 c -5.4251,0.008 -8.7385,1.67449 -15.3105,7.69922 -3.5129,3.2204 -3.1993,7.44864 0.8008,10.81445 2.7634,2.32526 3.8713,2.63169 8.0469,2.23047 5.279,-0.50725 10.748,-4.54661 10.748,-7.9375 0,-1.03531 0.7245,-1.8125 1.6895,-1.8125 5.5499,0 41.3911,8.6895 63.8105,15.4707 8.25,2.49538 19.725,5.90655 25.5,7.58008 21.2985,6.17205 30,9.07126 30,9.99805 0,0.52264 -0.3868,0.95117 -0.8594,0.95117 -0.4726,0 -3.0112,1.89473 -5.6426,4.21094 -7.094,6.24448 -10.2516,14.64466 -7.4628,19.85547 1.1746,2.19486 4.8402,2.54777 7.0937,0.68359 1.8186,-1.50437 4.8711,-6.29727 4.8711,-7.64844 0,-0.53293 -1.0956,-0.77029 -2.4355,-0.52734 -3.255,0.59026 -3.9135,-0.80558 -2.25,-4.7793 1.8457,-4.40887 8.7273,-10.46583 15.3164,-13.48242 2.9535,-1.35216 5.3691,-2.79437 5.3691,-3.20312 0,-0.88614 -20.6259,-7.93579 -34,-11.6211 -9.2701,-2.55443 -30.9499,-9.14179 -46,-13.97656 -28.9582,-9.30269 -50.2778,-14.51903 -59.2852,-14.50586 z m -26.9257,4.98633 c -2.7561,-0.0173 -16.7891,6.4442 -16.7891,7.73047 0,0.7467 0.9163,3.15461 2.0371,5.35156 1.1208,2.19696 1.7265,4.49912 1.3457,5.11523 -0.3967,0.64191 -0.2441,0.84247 0.3574,0.47071 0.5774,-0.35682 1.3322,0.0878 1.6778,0.98828 0.7542,1.96558 1.3652,1.5192 -5.918,4.33398 -8.82774,3.41172 -8.81256,3.37383 -4.7832,12.01758 3.64501,7.81927 5.0161,9.45335 6.75,8.04688 0.5684,-0.46111 3.9582,-2.05173 7.5332,-3.53516 3.575,-1.48343 6.8679,-3.04754 7.3184,-3.47461 0.4506,-0.42707 -0.5619,-3.82194 -2.25,-7.54492 -1.688,-3.72299 -3.0684,-6.87849 -3.0684,-7.01172 0,-0.13323 3.1479,-1.53314 6.9961,-3.11133 3.8483,-1.5782 6.9983,-3.33097 7,-3.89648 0.01,-2.25337 -7.0011,-15.4729 -8.207,-15.48047 z m 19.6308,4.14648 c 0.2598,0.003 0.5329,0.019 0.8223,0.0469 2.8369,0.27339 3.2137,0.63688 2.9101,2.81445 -0.6765,4.8513 -1.5892,5.3895 -4.6601,2.74805 -3.5191,-3.02696 -2.9692,-5.65992 0.9277,-5.60938 z m -557.67967,4.14453 c -0.91034,-0.0646 -1.58523,2.85418 -1.1914,6.21094 0.86422,7.36607 1.64601,9.96892 4.77539,15.90234 2.42204,4.59231 3.97716,6.28392 7.0293,7.6504 4.95411,2.21802 9.0176,1.03083 11.73632,-3.42774 2.50913,-4.11483 2.40755,-8.21005 -0.33984,-13.64844 C 499.07683,311.67923 493.99203,308 489.35156,308 c -3.87302,0 -4.22542,1.30203 -1.60156,5.91211 1.10642,1.94396 2.54714,3.07803 3.91797,3.08203 5.33901,0.0156 6.5894,2.15634 3.77148,6.45703 -1.79008,2.73199 -3.80286,3.72993 -5.89843,2.92578 -2.4352,-0.93448 -6.28999,-8.56966 -7.42383,-14.70312 -0.58861,-3.1841 -1.36221,-6.26099 -1.71875,-6.83789 -0.225,-0.36406 -0.44813,-0.53784 -0.65821,-0.55274 z m 596.61917,4.75 C 1071.1876,308.9528 1060,319.49377 1060,324.44727 c 0,4.56222 4.5412,6.01154 8,2.55273 1.1,-1.1 2,-2.675 2,-3.5 0,-0.83333 -0.8889,-1.5 -2,-1.5 -1.1,0 -2,-0.64941 -2,-1.44336 0,-1.29709 1.8758,-3.08172 10,-9.51172 2.4184,-1.91406 2.4303,-1.97954 0.3594,-2.01172 z m -362.61917,2.02539 c 1.07351,0.0804 2.40088,1.21454 4.52149,3.03321 7.09209,6.08228 7.23254,6.71087 2.75976,12.38086 -5.33972,6.76898 -13.01711,11.19969 -15.35546,8.86132 -1.41654,-1.41652 -0.54454,-6.71271 2.33203,-14.17187 2.87009,-7.44241 3.95301,-10.23754 5.74218,-10.10352 z m 340.51757,9.2168 c -1.4989,-0.0297 -6.8917,5.7355 -7.6484,8.26172 -0.8951,2.98866 3.3885,11.00626 5.7715,10.80273 1.7495,-0.14943 1.8325,0.40943 1.2129,8.04688 -0.3663,4.5145 -0.3526,8.52079 0.029,8.90234 1.1113,1.11129 3.4131,-1.3161 8.0879,-8.52539 2.4022,-3.70471 5.2174,-7.19028 6.2559,-7.74609 2.3907,-1.27943 4.7809,-0.38836 5.5625,2.07422 0.8102,2.55258 3.0041,2.41244 4.9141,-0.31446 3.4781,-4.96564 0.4333,-9.77734 -6.1875,-9.77734 -2.4769,0 -4.4165,1.02895 -7.7774,4.12695 l -4.4785,4.12696 -0.041,-3.37696 c -0.047,-3.92479 -4.1377,-16.10318 -5.5684,-16.58007 -0.04,-0.0133 -0.084,-0.0205 -0.1328,-0.0215 z M 693.00781,328 c -1.10504,0 -8.24151,9.4458 -18.37695,24.32422 -5.97839,8.77603 -6.62479,10.19027 -6.05078,13.25 0.35343,1.88394 0.96299,3.42578 1.35547,3.42578 0.39248,0 3.37856,-3.7125 6.63476,-8.25 C 689.47803,342.76317 694,335.17909 694,331.51953 694,329.58356 693.55388,328 693.00781,328 Z m 448.32029,10 c -0.9439,0 -14.3281,7.08805 -14.3281,7.58789 0,1.62415 9.1607,14.41211 10.3242,14.41211 0.7508,0 4.1432,-1.79469 7.5371,-3.98828 l 6.1699,-3.98828 -4.6621,-7.01172 C 1143.8048,341.15531 1141.5362,338 1141.3281,338 Z m -187.54685,0.5957 c -0.82157,0.049 -2.77775,1.38152 -5.40234,4.08203 -8.34057,8.58181 -11.05371,19.46793 -5.37891,21.58204 1.74687,0.65077 7.31759,-4.81174 6.7207,-6.58985 -0.21612,-0.64382 -1.25399,-1.16992 -2.30664,-1.16992 -2.45046,0 -3.06725,-3.70423 -0.96679,-5.80469 0.85426,-0.85427 1.55273,-1.95308 1.55273,-2.44336 0,-0.49029 1.58273,-2.7415 3.51758,-5.00195 2.66759,-3.11648 3.19478,-4.70986 2.26367,-4.6543 z M 820.16602,340 c -2.20574,0 -4.60177,3.19345 -3.38086,4.50586 0.39315,0.42262 0.0414,0.55668 -0.78125,0.29883 -0.82267,-0.25786 -1.5416,-1.10678 -1.59766,-1.88672 -0.21678,-3.01592 -0.46716,-3.17289 -2.34375,-1.47461 -1.06534,0.96413 -2.42516,1.44984 -3.02344,1.08008 -0.60064,-0.37121 -0.96617,-0.0892 -0.81445,0.6289 0.36511,1.72815 -3.94762,2.32191 -5.78516,0.79688 -2.04635,-1.69832 -9.78631,-1.33437 -13.66797,0.64258 -1.79946,0.91648 -5.50431,3.29578 -8.23242,5.28711 -7.14111,5.21252 -7.78686,5.57733 -16.52148,9.30273 -5.39815,2.30237 -4.07955,3.81487 2.46094,2.82227 2.78216,-0.42222 7.2587,-2.5294 12.20703,-5.74414 8.88086,-5.76957 14.20778,-7.10984 20.85742,-5.24805 3.14734,0.8812 5.18716,0.92842 7.35742,0.17187 2.15122,-0.74992 3.86912,-0.71827 6.05664,0.10743 2.73943,1.03401 3.31486,0.89216 5.58008,-1.37305 1.38885,-1.38886 2.7951,-4.18972 3.125,-6.22266 C 822.19383,340.41868 822.02376,340 820.16602,340 Z M 452.5,340.52344 c -0.34146,-0.011 -0.56836,0.0179 -0.68164,0.0879 -1.2571,0.77693 -0.97958,3.24636 0.78125,6.95703 1.1335,2.38869 3.50252,4.43512 8.13086,7.02344 7.80459,4.36457 11.1976,6.66411 26.26953,17.80273 6.32499,4.67437 16.57236,11.92524 22.77148,16.11328 6.72404,4.54268 10.99878,8.05484 10.59571,8.70703 -0.41102,0.66505 -0.21218,0.80826 0.50781,0.36328 1.16543,-0.72026 7.01105,3.08736 24.97461,16.26954 8.22079,6.03265 15.53145,12.97157 18.86133,17.90234 1.66347,2.46321 2.81727,2.82189 3.82617,1.18945 0.36044,-0.58319 0.0857,-2.49569 -0.61133,-4.25 -1.85311,-4.664 -9.84087,-16.44365 -11.61133,-17.12304 -0.87772,-0.33681 -1.27142,-1.23639 -0.92968,-2.12696 0.34105,-0.88876 0.17059,-1.28183 -0.40235,-0.92773 -0.54727,0.33823 -3.57935,-1.61281 -6.73828,-4.33594 C 545.08521,401.45264 540.025,397.59871 537,395.61328 523.27191,386.603 496.63821,367.54257 488.01953,360.56055 l -7.48242,-6.06055 5.76953,-0.62109 c 9.90374,-1.06756 9.24266,-1.58815 -8.80664,-6.90821 -14.5675,-4.29379 -22.60979,-6.37023 -25,-6.44726 z m 745.2676,1.13281 c -0.6754,-0.009 -1.9427,0.41232 -3.8106,1.36523 -6.5524,3.34278 -12.8541,11.16025 -12.9218,16.0293 -0.071,5.13813 3.6352,6.36858 7.5097,2.49414 2.9176,-2.91762 3.1399,-4.54492 0.6211,-4.54492 -4.7993,0 -2.7448,-4.56856 4.5215,-10.05469 4.1819,-3.15737 5.5659,-5.2684 4.0801,-5.28906 z m -610.17971,6.22461 c -1.07925,0.0363 -2.42376,0.6211 -4.07812,1.70508 -1.33146,0.8724 -2.90243,1.28906 -3.49024,0.92578 -0.58781,-0.36329 -0.94604,-0.24227 -0.79492,0.26758 0.15113,0.50986 -2.10335,3.16901 -5.01172,5.91015 -5.19651,4.89773 -5.27734,5.05939 -4.62305,9.39649 0.3662,2.42737 1.03279,4.81613 1.48047,5.30664 0.45765,0.50142 2.91772,-0.82426 5.6211,-3.02735 7.45452,-6.075 8.32301,-6.68284 8.82421,-6.18164 0.25734,0.25734 -1.11539,4.39369 -3.05078,9.19336 -5.48697,13.60745 -2.75021,13.6478 5.47266,0.0801 2.90457,-4.7925 3.35594,-6.42747 3.38477,-12.24414 0.0393,-7.93074 -0.97629,-11.42474 -3.73438,-11.33203 z m 629.81831,3.50195 c -0.8735,0.0255 -2.0377,0.24817 -3.5097,0.64453 -6.0758,1.63606 -10.8023,5.35747 -14.8965,11.72852 -4.633,7.20953 -18.8991,22.4243 -20.2461,21.5918 -0.5843,-0.36112 -0.7909,-0.21674 -0.459,0.32031 0.3319,0.53705 -3.2565,4.54387 -7.9746,8.9043 -4.7181,4.36042 -10.2577,9.50273 -12.3086,11.42773 -4.1105,3.85822 -15.4883,14.13078 -23.9844,21.6543 -13.3214,11.79656 -22.9408,21.23392 -28.2128,27.67968 -5.2014,6.35918 -5.7428,7.49254 -6.3633,13.28711 -0.8897,8.30738 -0.2045,10.60532 4.7754,16.00782 5.953,6.45824 10.913,8.99129 24.3476,12.43164 6.5209,1.6699 12.027,3.20679 12.2363,3.41601 0.2092,0.20922 0.7132,4.35153 1.1192,9.20313 0.8461,10.11059 2.921,15.49399 8.8476,22.94922 7.312,9.19778 24.6975,18.75184 37.7227,20.73047 5.6155,0.85303 16.9869,-0.10225 21.5,-1.80665 2.475,-0.9347 5.0625,-1.74169 5.75,-1.79296 0.6875,-0.0513 1.0483,-0.29346 0.8027,-0.53907 -0.2456,-0.24561 1.7748,-2.20279 4.4883,-4.34765 5.9486,-4.70211 12.2552,-12.48507 15.1992,-18.75977 3.2315,-6.88739 3.643,-18.68793 0.8496,-24.33203 -3.3254,-6.71912 -6.2354,-8.2972 -15.0898,-8.1875 -13.0515,0.16171 -23.5826,5.94606 -26.0957,14.33398 -1.6907,5.64316 -0.583,8.3746 6.2227,15.34766 6.6387,6.80205 9.8175,12.44119 9.8515,17.47461 0.02,2.90983 -0.2765,3.25 -2.8223,3.25 -4.1063,0 -12.2188,-3.00158 -23.6562,-8.75391 -10.8999,-5.482 -18.2563,-11.31426 -22.25,-17.64062 C 1160.5561,513.33809 1158.633,507 1160.0312,507 c 0.4512,0 4.5426,1.8 9.0918,4 4.5493,2.2 8.8101,4 9.4688,4 0.6586,0 4.1697,-0.91892 7.8027,-2.04102 L 1193,510.91992 v -4.33398 c 0,-15.54134 -19.2055,-39.19482 -41.3984,-50.98438 -5.8144,-3.08874 -7.1228,-3.15225 -15.5391,-0.77344 -7.1979,2.03446 -9.831,4.63005 -6.6191,6.5254 5.7529,3.39483 9.5514,8.24869 11.041,14.10742 2.8739,11.30253 1.9518,11.76053 -10.6387,5.28906 -5.9354,-3.05082 -9.1961,-5.47151 -11.5566,-8.57812 -3.9201,-5.15919 -4.1084,-8.11303 -0.8653,-13.58399 2.2872,-3.85838 23.2263,-24.16349 36.166,-35.07031 3.2507,-2.73997 8.6475,-7.57748 11.9942,-10.75 6.5165,-6.17728 7.4746,-6.60661 9.4336,-4.2461 1.0529,1.26869 22.1948,14.71997 34.9824,22.25782 1.925,1.13472 8.225,4.88343 14,8.33008 21.9558,13.1037 22.8211,13.48151 29.2891,12.77734 3.1838,-0.34662 6.0589,-0.90272 6.3906,-1.23438 0.9327,-0.93267 -3.0769,-3.84663 -16.9707,-12.33593 -7.0352,-4.29862 -16.0352,-9.87531 -20,-12.39258 -3.9648,-2.51728 -11.709,-7.19441 -17.209,-10.39258 -5.5,-3.19817 -11.266,-6.57934 -12.8125,-7.51367 l -2.8105,-1.69922 4.7832,-1.82617 c 9.3554,-3.57291 20.3374,-17.43616 20.3398,-25.67774 8e-4,-2.68409 -6e-4,-2.6858 -4.2207,-1.46484 -3.7716,1.092 -4.3163,1.64304 -5.1231,5.18555 -1.8117,7.95472 -10.3951,15.67063 -21.6464,19.46093 -3.5597,1.19918 -7.3194,2.63495 -8.3555,3.18946 -1.0362,0.55451 5.746,-6.5742 15.0703,-15.83985 16.9519,-16.8451 23.0557,-24.07419 27.2207,-32.23828 2.0936,-4.10381 2.0816,-5.80119 -0.5391,-5.72461 z m -120.9101,5.45313 c -1.1268,0.002 -2.26,0.22514 -3.4668,0.64258 -4.895,1.69308 -4.8483,3.71042 0.1719,7.63867 6.3917,5.00136 8.2173,6.79628 7.5722,7.4414 -0.3193,0.31926 -4.6742,-0.12483 -9.6777,-0.98828 -10.8287,-1.86873 -10.3541,-1.84739 -9.8965,-0.47461 0.201,0.60315 3.2748,2.37072 6.832,3.92774 7.4639,3.26693 14.5026,3.75742 21.0059,1.46289 8.4847,-2.99357 8.3956,-4.53316 -0.7598,-12.98633 -5.0769,-4.68751 -8.4007,-6.67002 -11.7812,-6.66406 z m -665.54493,2.09179 c -0.10237,-0.0106 -0.20303,0.0395 -0.30078,0.15625 -0.6327,0.75589 -8.88363,21.24621 -12.24805,30.41602 -1.81616,4.95 -6.34698,16.57227 -10.06836,25.82617 -7.65054,19.02447 -5.90583,17.72905 -17.83398,13.22852 -7.61053,-2.87149 -17.7159,-4.65783 -19.63672,-3.47071 -1.48303,0.91656 0.58595,4.36546 5.2168,8.69336 2.30886,2.15781 5.14393,3.3642 10.77734,4.58789 4.20393,0.91319 8.28214,2.06605 9.06446,2.5625 1.61915,1.02751 2.05149,-0.23615 -10.29297,30.12891 -4.14897,10.20569 -8.74031,22.72654 -10.20313,27.82617 l -2.66016,9.27344 2.26563,7.95508 c 1.24594,4.37575 2.73649,7.79877 3.31055,7.60742 0.57405,-0.19135 1.82496,-3.52957 2.78125,-7.41992 2.80832,-11.42473 13.69121,-44.75162 19.14257,-58.61914 4.88852,-12.43571 5.11756,-12.80193 7.63672,-12.20313 1.42836,0.33951 14.83697,6.65207 29.79688,14.02735 l 27.20117,13.41015 1.04297,4.29297 c 1.72085,7.07968 4.4893,15.28098 12.08398,35.79297 6.36747,17.19748 7.23446,20.36594 7.34571,26.83203 0.11812,6.86554 -0.0524,7.4856 -2.67969,9.75 -6.31459,5.44231 -14.08021,1.74394 -29.63086,-14.10742 l -11.31641,-11.5332 0.69727,-8.22071 C 443.23901,506.33214 444.84024,499 446.09375,499 c 1.05008,0 3.04125,3.79116 7.31055,13.91406 1.79808,4.26341 4.77833,9.96336 6.62304,12.66797 C 463.33203,530.42717 470.7858,538 472.25,538 c 1.72718,0 0.52953,-3.81584 -2.56055,-8.16211 -1.82037,-2.56039 -4.78314,-7.95825 -6.58398,-11.99609 -9.61468,-21.55799 -13.98128,-28.63634 -19.31055,-31.29492 -4.37332,-2.18171 -7.50779,-1.92581 -10.27148,0.83789 -3.824,3.82399 -4.74612,8.87812 -6.04297,33.11523 -0.99253,18.54949 -5.26992,43.3149 -10.70899,62 -3.09547,10.63407 -11.06379,26.2531 -17.17187,33.6582 -11.71134,14.19821 -25.48303,15.9077 -37.2793,4.62696 -2.57426,-2.46176 -2.97423,-3.36747 -2.10351,-4.76172 2.31993,-3.71482 -2.04569,-10.99779 -9.36328,-15.61719 -5.51122,-3.47908 -7.12978,-3.26654 -5.16211,0.67773 1.64674,3.301 0.89953,5.06444 -2.34766,5.54102 -4.61217,0.67693 -19.56615,-11.69863 -27.97461,-23.15039 -4.6532,-6.33734 -6.36914,-7.742 -6.36914,-5.2168 0,2.84091 13.18154,20.74483 19.37891,26.32227 7.71815,6.9461 18.00662,13.41992 21.32812,13.41992 1.47141,0 4.66077,2.15456 8.56836,5.78711 7.01954,6.52543 15.66841,11.81846 22.57031,13.81445 5.29787,1.53212 16.83527,1.15367 20.35352,-0.66797 6.8899,-3.56736 11.01763,-7.07462 14.93555,-12.6875 7.47559,-10.70966 10.55038,-17.91069 16.37695,-38.36132 C 435.62682,574.95108 441,540.98314 441,532.22461 v -3.68945 l 2.62891,3.98242 c 5.99715,9.08094 17.74585,19.54368 27.70312,24.67187 5.60178,2.88502 14.67484,2.86791 20.37305,-0.0391 8.79616,-4.48746 10.98895,-12.10158 6.95312,-24.15039 -4.03858,-12.05704 -8.13048,-22.98812 -11.41601,-30.5 -3.0584,-6.99256 -4.65762,-12.10452 -5.7168,-18.27148 l -0.56055,-3.26954 3.76758,1.62696 c 9.72045,4.19964 20.18475,7.3766 24.35938,7.39453 10.33604,0.0444 19.04275,-8.63412 19.25,-19.18945 0.13494,-6.87264 -2.48423,-15.30769 -6.64844,-21.41602 -1.8275,-2.68071 -3.63084,-5.39431 -4.00781,-6.0293 -0.42417,-0.7145 1.35765,-2.30705 4.67578,-4.17968 C 529.60578,435.07746 537,426.58075 537,422.3457 537,418.02106 530.46859,411.59328 521.40625,407 c -6.02635,-3.05448 -7.8395,-3.5 -14.24219,-3.5 -6.79878,0 -7.5135,0.20655 -9.75,2.80664 -5.3777,6.25195 -1.22211,21.51812 9.4336,34.65234 6.03226,7.43538 7.44058,11.17488 6.97265,18.52344 -0.56117,8.81307 -4.17838,15.64365 -9.14062,17.26367 -4.73422,1.54559 -10.54759,0.30993 -19.03321,-4.04882 l -5.85351,-3.00782 0.64648,-4.03125 c 1.40996,-8.81736 6.50469,-14.64572 12.81055,-14.65429 5.48216,-0.007 2.80045,-5.06137 -5.25,-9.89453 -9.69489,-5.82042 -21.05371,2.09817 -22.67773,15.81054 -0.71314,6.02137 -0.71648,6.02154 -11.35743,-0.008 C 450.16846,454.76035 446.6118,453 446.0625,453 c -0.5493,0 -7.42619,-3.17847 -15.28125,-7.0625 -19.47768,-9.63095 -20.78172,-10.31552 -20.77148,-10.91406 0.0424,-2.47658 18.36465,-49.70204 23.09375,-59.52344 1.31882,-2.73895 -0.6167,-16.41329 -2.15235,-16.57227 z m 223.42969,13.72266 c -1.7418,-0.009 -1.9465,0.81229 -2.38086,6.87305 l -0.5,6.97656 -7.79297,-0.35547 -7.79101,-0.35547 0.29101,8.35547 0.29297,8.35547 6,0.60156 c 11.37608,1.14177 10.96031,1.38603 11.28711,-6.60156 l 0.28516,-7 7.31054,0.32422 7.31055,0.32226 0.65625,-7.76171 c 0.76295,-9.0257 0.56116,-9.29599 -7.09961,-9.48047 -2.8875,-0.0695 -6.2625,-0.17868 -7.5,-0.24219 -0.13031,-0.007 -0.25302,-0.0111 -0.36914,-0.0117 z m -190.66797,2.47266 c -1.42966,0.0766 -2.81085,0.88311 -4.35937,2.43164 -2.16701,2.16701 -2.45117,3.11238 -1.86914,6.21484 0.6057,3.22872 5.70676,11.16184 7.75781,12.06445 1.46879,0.64639 0.73815,2.09464 -0.76563,1.51758 -2.46299,-0.94514 -18.16223,0.69777 -20.08203,2.10156 -1.65521,1.21031 -1.61597,1.46615 0.67188,4.26954 2.19612,2.69101 7.76252,7.27734 8.83203,7.27734 0.2344,0 2.82783,-0.75815 5.76367,-1.68359 2.93584,-0.92544 5.33789,-2.27544 5.33789,-3 0,-1.74211 2.71811,-1.66042 10.58008,0.31445 3.57035,0.89684 6.73737,1.38568 7.03711,1.08594 1.06742,-1.06742 -1.59385,-4.45187 -7.81055,-9.9336 -6.65892,-5.87165 -10.13274,-10.67444 -8.99219,-12.42968 0.37706,-0.58029 1.69805,-1.5866 2.93555,-2.23829 2.96655,-1.56223 2.84302,-3.50399 -0.38477,-6.04296 -1.74432,-1.37209 -3.22268,-2.02583 -4.65234,-1.94922 z m 52.9707,42.91797 3.81641,0.041 -4.47461,4.04297 c -5.8987,5.33129 -7.66726,6.24795 -8.39648,4.34766 -0.82365,-2.1464 0.94694,-6.17537 3.25781,-7.41211 1.09017,-0.58344 3.69822,-1.04208 5.79687,-1.01953 z m 67.25586,1.30859 c -0.99772,0.1135 -2.80835,2.28429 -5.86914,6.72461 -2.43598,3.5339 -7.73426,11.08292 -11.77539,16.77539 -6.62354,9.33017 -7.28594,10.68497 -6.71094,13.75 0.35082,1.87002 1.15106,3.39855 1.77735,3.39648 0.62629,-0.002 4.06367,-4.34241 7.63867,-9.64648 3.575,-5.30409 8.6375,-12.81758 11.25,-16.69531 3.6419,-5.40567 4.75,-7.95658 4.75,-10.93555 0,-2.30056 -0.28454,-3.45742 -1.06055,-3.36914 z m 618.65235,24.04297 c -2.4402,-0.0973 -16.7183,2.39996 -17.4336,3.11523 -0.5489,0.54886 1.5835,17.26562 2.3633,18.52735 0.3298,0.53359 17.388,-1.77451 18.2031,-2.46289 0.1239,-0.10464 -0.2009,-2.8631 -0.7226,-6.13086 -0.5217,-3.26778 -1.0585,-7.43827 -1.1934,-9.26758 -0.1349,-1.82932 -0.5379,-3.5062 -0.8945,-3.72656 -0.05,-0.0309 -0.1596,-0.0482 -0.3223,-0.0547 z M 381.00781,451 c -2.56494,0 -20.3401,42.74966 -29.58398,71.14844 -3.73154,11.46389 -3.76949,11.73862 -2.41406,17.38867 0.99636,4.15336 2.33263,6.67037 4.83593,9.10156 3.94726,3.83353 5.97086,4.08188 11.78125,1.44336 2.26965,-1.03065 4.4286,-2.36112 4.79688,-2.95703 0.9771,-1.58098 -0.88004,-4.4953 -3.88867,-6.10547 -2.29813,-1.22992 -2.9682,-1.19497 -5.48047,0.28906 -3.68518,2.17689 -6.06209,2.15398 -6.02539,-0.0586 0.0508,-3.06135 5.59239,-21.40703 9.43945,-31.25 2.04215,-5.22499 5.19236,-13.325 7.00195,-18 1.8096,-4.675 6.01786,-14.09291 9.34961,-20.92969 5.02619,-10.31375 5.87561,-12.78292 4.99024,-14.5 C 384.47267,453.97568 381.90685,451 381.00781,451 Z m 853.82619,2.27539 c -0.4901,-0.006 -1.1435,0.0735 -1.9649,0.25391 -8.7011,1.91106 -21.8691,13.02099 -21.8691,18.45117 0,4.56718 3.0069,6.15077 7.3164,3.85547 4.3044,-2.29254 6.4106,-7.09962 2.6836,-6.125 -2.0812,0.54426 -2.5982,-0.98906 -1.3926,-4.13086 0.6883,-1.79379 7.0435,-6.27174 12.6426,-8.9082 3.7532,-1.76727 4.7075,-3.37259 2.584,-3.39649 z m 33.0488,1.75 c -1.6441,0.0189 -2.8828,0.2927 -2.8828,0.84766 0,0.48009 0.9496,3.02216 2.1113,5.64843 2.3815,5.38372 3.9802,10.47852 3.2871,10.47852 -0.254,0 -3.7505,-2.475 -7.7695,-5.5 -6.9054,-5.19742 -9.6289,-6.52698 -9.6289,-4.69922 0,0.44061 2.7505,3.81493 6.1113,7.49805 5.2348,5.73673 6.9906,6.97538 12.25,8.64258 7.7244,2.44855 11.504,2.57247 12.336,0.40429 1.5981,-4.16445 -5.1255,-20.30771 -9.2383,-22.18164 -1.6792,-0.76509 -4.4624,-1.16293 -6.5762,-1.13867 z m -11.7812,17.54492 c -3.6413,0.009 -16.2303,2.34823 -17.3985,3.4043 -0.4386,0.39647 -0.039,4.86703 0.8887,9.93555 l 1.6855,9.21484 3.1114,-0.46484 c 1.7113,-0.25577 5.1363,-0.79498 7.6113,-1.19922 7.789,-1.27214 7.7148,-1.14844 6.6816,-11.13672 -0.502,-4.8528 -1.2338,-9.17444 -1.6269,-9.60352 -0.096,-0.10432 -0.433,-0.15167 -0.9531,-0.15039 z m -98.0254,8.11133 3.5019,3.39258 c 4.2568,4.1258 7.8909,9.9584 6.1387,9.85156 -0.669,-0.0408 -2.9848,-0.85418 -5.1465,-1.80859 -3.7173,-1.64121 -3.9464,-1.99883 -4.2129,-6.58594 z m -816.51761,12.63672 c -0.92019,0.0115 -1.91416,0.60576 -3.0957,1.71484 -4.69278,4.40501 -10.46302,13.97674 -10.44727,17.33008 0.0181,3.84286 2.02137,8.0289 4.00977,8.37695 0.85053,0.14888 2.6628,-1.75142 4.28125,-4.49023 1.54359,-2.61212 3.70908,-5.875 4.8125,-7.25 l 2.00586,-2.5 -0.60156,9.78125 c -0.80199,13.02516 0.17306,14.91936 3.58789,6.96875 3.18234,-7.40933 3.44925,-16.59084 0.67383,-23.1543 -1.9861,-4.69682 -3.46983,-6.79936 -5.22657,-6.77734 z m 873.95121,12.04492 c 1.6627,0.0887 5.6091,3.63566 4.9433,4.71289 -0.2671,0.43205 -0.027,1.0686 0.5313,1.41406 1.164,0.7194 1.402,6.52537 0.2656,6.47852 -0.4125,-0.017 -2.2125,-1.97334 -4,-4.34766 -3.3565,-4.45836 -4.0378,-7.01523 -2.1758,-8.16601 0.1155,-0.0714 0.2636,-0.10098 0.4356,-0.0918 z M 1295.5781,512 c -4.0768,0 -4.7774,0.40474 -8.9492,5.17383 -2.4891,2.84536 -7.8544,7.90786 -11.9238,11.25 -11.7857,9.67963 -23.9564,20.10951 -39.627,33.96094 -21.7257,19.2036 -28.2921,24.33548 -36.0469,28.16796 -6.7444,3.33322 -7.8287,4.31776 -6.3652,5.78125 0.8308,0.83088 0.2803,0.8692 6.5352,-0.45898 6.9013,-1.46546 14.5851,-5.40914 23.4492,-12.0332 6.4668,-4.8326 10.9383,-8.65589 34.6934,-29.67188 6.251,-5.53031 19.1362,-15.64386 22.2148,-17.43554 0.6819,-0.39683 1.0381,0.95466 1,3.79492 -0.033,2.42648 0.3472,4.46364 0.8437,4.52539 0.4966,0.0618 2.4389,-2.73951 4.3165,-6.22266 1.8774,-3.48315 4.4372,-7.90703 5.6874,-9.83203 10.4038,-16.01775 10.6456,-17 4.1719,-17 z m -901.14451,20.19336 c -1.21752,0.0107 -15.76787,5.79105 -16.61718,6.63086 -0.37564,0.37143 0.37654,2.97125 1.67187,5.77734 3.80555,8.24404 3.79723,8.27443 -3.43164,11.01172 -3.54405,1.34198 -6.6298,2.62785 -6.85742,2.85547 -0.79819,0.79819 6.31292,16.48095 7.48437,16.50586 0.65124,0.0138 4.02625,-1.17384 7.5,-2.63867 9.59345,-4.04542 9.65546,-4.1525 6.49024,-11.48828 -3.03951,-7.04443 -3.27761,-6.61464 5.57617,-10.08399 3.1625,-1.23922 5.75,-2.60417 5.75,-3.0332 0,-0.67071 -6.77643,-14.71126 -7.49023,-15.51953 -0.0106,-0.012 -0.0369,-0.0179 -0.0762,-0.0176 z m -64.49609,9.8125 c -2.61892,0.006 -4.86313,0.82992 -6.48242,2.44922 -1.35,1.35 -2.45508,3.11939 -2.45508,3.93359 0,5.62071 6.53361,11.30879 16.9082,14.72071 6.95924,2.28869 16.0918,6.5375 16.0918,7.48632 0,0.30944 -1.31547,0.2732 -2.92383,-0.0801 -3.39966,-0.74668 -10.55487,1.15059 -12.30859,3.26368 -0.98525,1.18716 -0.6597,1.90015 1.76172,3.84961 2.36454,1.90368 3.58273,2.23569 5.9707,1.63086 1.65,-0.41792 6.7125,-0.70544 11.25,-0.63868 8.0911,0.11905 8.25,0.0753 8.25,-2.29492 0,-3.69158 -4.04349,-6.96814 -14.74609,-11.94726 -12.51045,-5.82018 -19.43208,-10.229 -19.05079,-12.13477 0.16356,-0.81752 1.86686,-1.99431 3.78516,-2.61523 4.84863,-1.56942 5.12112,-4.26821 0.6211,-6.14844 -2.37129,-0.99079 -4.63494,-1.47956 -6.67188,-1.47461 z m 950.5762,8.24219 c -0.7004,0.0184 -1.5071,0.11059 -2.5,0.25586 -8.1433,1.19141 -9.4512,-0.24653 20.4863,22.52929 6.05,4.60273 11.45,8.75575 12,9.22852 0.55,0.47276 3.5448,2.52506 6.6562,4.5625 4.8568,3.18034 6.3071,3.65344 10.25,3.33984 2.526,-0.2009 4.5938,-0.70046 4.5938,-1.10937 0,-0.73292 -18.7144,-15.99047 -26.5,-21.60547 -2.2,-1.58665 -5.371,-4.02542 -7.0469,-5.41797 -1.6758,-1.39254 -4.308,-3.43125 -5.8496,-4.53125 -1.5415,-1.1 -4.4395,-3.27264 -6.4394,-4.82812 -2.3994,-1.86627 -3.5495,-2.47908 -5.6504,-2.42383 z m -63.4395,3.85351 c -4.3864,-0.0454 -8.8798,0.27146 -11.4121,0.97461 -2.4841,0.68977 -4.4056,2.05661 -5.4492,3.875 -1.4691,2.5598 -2.2707,2.86909 -9.0391,3.48242 -10.9712,0.99419 -19.0234,3.30277 -24.8926,7.13672 -6.5328,4.26742 -8.7007,8.1478 -7.8222,14.00586 1.2994,8.66559 11.3961,18.62085 39.4785,38.92383 31.0287,22.43305 33.0454,23.27086 48.248,20.04883 14.4009,-3.05212 15.4105,-5.15986 16.0957,-33.54883 0.2854,-11.82499 0.9599,-22.85 1.4981,-24.5 l 0.9785,-3 1.0039,2.5 c 0.5519,1.375 0.8529,2.76138 0.668,3.08008 -0.4736,0.81616 2.8529,0.48221 4.3379,-0.43555 1.2971,-0.80167 1.8242,-21.93758 0.625,-25.0625 -1.5267,-3.97846 -14.2084,0.79046 -15.7422,5.91992 -0.493,1.64867 -1.7131,4.79805 -2.7109,6.99805 -5.0291,11.08921 -6.0224,17.1709 -6.8086,41.70117 -0.4381,13.66957 -1.0132,20.08488 -1.8789,20.94922 -0.9963,0.99474 -3.8531,-0.5585 -14.1739,-7.70312 -28.7159,-19.87886 -50.1537,-37.87354 -53.4843,-44.89258 -2.1202,-4.46793 -2.0487,-9.85882 0.1562,-11.73047 3.7073,-3.14702 18.6063,-6.82422 27.6484,-6.82422 2.0536,0 4.6209,-0.47536 5.7071,-1.05664 1.9347,-1.03545 1.9296,-1.09427 -0.3145,-2.92188 l -2.291,-1.86523 3,-1.2207 c 2.6266,-1.06846 12.1059,-1.43068 18,-0.6875 3.366,0.42442 2.9008,-1.67438 -0.6523,-2.94141 -2.1065,-0.75119 -6.3871,-1.15965 -10.7735,-1.20508 z M 453.36328,556.25 c -5.25283,-0.0948 -12.09619,8.14116 -10.875,13.70117 1.04299,4.74869 3.06698,5.68137 5.12891,2.36524 2.32399,-3.73762 5.53141,-7.31641 6.55664,-7.31641 0.45413,0 0.82617,2.15111 0.82617,4.78125 0,2.63014 0.69627,7.24264 1.54688,10.25 0.85059,3.00736 1.59995,6.03125 1.66601,6.71875 0.0661,0.6875 0.33214,1.03701 0.5918,0.77734 0.25966,-0.25966 1.79429,0.64035 3.41015,2 3.43172,2.88761 3.95056,2.9546 7.72657,1.00196 3.59436,-1.85872 8.94814,-8.56728 10.6582,-13.35547 0.72178,-2.02101 1.31642,-6.14883 1.32227,-9.17383 l 0.0117,-5.5 -2.07226,2.49023 c -1.13946,1.36975 -3.10858,4.51976 -4.37695,7 C 472.60375,577.62318 466.31862,585 464.40039,585 c -2.1046,0 -3.16631,-3.36404 -4.27344,-13.54492 -1.14224,-10.50377 -2.57837,-14.27967 -5.73633,-15.07227 -0.33319,-0.0836 -0.67715,-0.12649 -1.02734,-0.13281 z m 851.39842,35.0918 c -1.7042,0.0487 -4.1004,0.4219 -7.2344,1.11914 -11.8735,2.64163 -20.9942,9.93104 -18.4277,14.72656 1.2999,2.42882 6.5565,2.35459 10.3477,-0.14453 l 2.9472,-1.94141 -2.6777,-1.01953 c -1.6473,-0.62632 -2.4765,-1.54759 -2.1523,-2.39258 0.8621,-2.24658 7.5022,-5.43104 14.1855,-6.80468 3.4375,-0.70652 6.25,-1.65997 6.25,-2.11719 0,-1.01448 -1.0471,-1.48841 -3.2383,-1.42578 z m -884.25584,43.93359 c -0.0718,-0.004 -0.12595,0.0127 -0.16211,0.0488 C 417.81542,637.85255 430.90197,649 436.39844,649 c 1.76051,0 3.74234,-0.53922 4.40234,-1.19922 1.99745,-1.99745 1.35883,-4.27604 -1.70508,-6.08594 C 435.40221,639.53305 435,639.56174 435,642 c 0,3.92158 -5.17037,1.94387 -11.31445,-4.32812 -1.35489,-1.3831 -2.67693,-2.36644 -3.17969,-2.39649 z" />
      <path
         id="path36"
         style="display:inline;fill:#000000"
         d="m 881.05469,955.66016 -2.00586,4.41992 c -2.96834,6.54282 -2.59058,8.51512 3.12695,16.33789 6.35462,8.69446 12.1127,20.01411 14.42578,28.35743 0.95701,3.4519 2.22701,6.1179 2.82032,5.9238 0.5933,-0.194 1.67877,-2.1175 2.4121,-4.2754 1.72048,-5.0627 0.90818,-12.24662 -2.42968,-21.49997 l -2.58985,-7.18164 2.07617,-2.07813 c 1.87936,-1.87935 2.41367,-1.95603 5.59766,-0.80468 4.51885,1.63403 7.14198,0.7578 9.10742,-3.04297 C 915.55856,968.02067 916.72691,958 915.20703,958 c -0.58988,0 -1.3579,0.9 -1.70703,2 -0.85704,2.70028 -4.09114,2.54113 -9,-0.44141 l -4,-2.42968 -2.13672,2.66211 c -3.26888,4.0729 -9.1686,3.7591 -13.80469,-0.73438 z M 824.23242,956 c -1.93448,0 -11.62741,9.75912 -14.27148,14.36914 -3.9913,6.95894 -3.94443,11.18554 0.14844,13.42774 1.71023,0.93691 4.05223,2.434 5.20507,3.32812 l 2.09766,1.62695 -3.33789,6.26172 c -3.94954,7.41013 -4.57452,13.41713 -1.61914,15.57813 2.37543,1.737 9.43677,1.8211 14.92187,0.1777 C 832.20501,1009.323 841,1001.3084 841,998.35547 c 0,-1.9624 -0.20488,-1.9795 -8.25,-0.66992 -8.66253,1.41008 -12.75205,1.10359 -12.74805,-0.95508 0.001,-0.67702 1.63027,-3.93007 3.61914,-7.22852 6.50402,-10.78649 6.3864,-11.60826 -2.24609,-15.66601 -2.40618,-1.13104 -4.375,-2.51856 -4.375,-3.08399 0,-0.56542 1.8,-2.98047 4,-5.36718 2.4625,-2.6715 4,-5.31047 4,-6.86329 C 825,957.1342 824.65437,956 824.23242,956 Z m 39,0 c -1.81892,0 -11.51499,9.3836 -14.41015,13.94531 -1.83726,2.89485 -2.82227,5.78949 -2.82227,8.29688 0,3.27683 0.46329,4.10508 3.10938,5.55469 7.61111,4.1696 7.54735,3.94931 3.5039,11.97851 -4.10837,8.15821 -4.47237,11.36551 -1.61328,14.22461 2.86746,2.8675 10.97177,2.6917 17.57031,-0.3809 5.02783,-2.3412 11.42969,-8.7732 11.42969,-11.48433 0,-1.40427 -2.72932,-1.32537 -15,0.43359 -6.76537,0.96979 -7.02954,-0.5436 -1.80664,-10.33594 2.58107,-4.8392 4.38107,-9.28779 4,-9.88476 -0.38107,-0.59698 -3.05586,-2.27604 -5.94336,-3.73243 -2.8875,-1.45639 -5.25,-3.1848 -5.25,-3.83984 0,-0.65505 1.56497,-2.79427 3.47852,-4.75391 C 862.86696,962.55139 865.32098,956 863.23242,956 Z M 731,959.55469 l -2.1875,2.1875 c -2.13059,2.1306 -2.13822,2.23979 -0.34375,4.22265 C 729.4818,967.08425 730.62049,968 731,968 c 0.37951,0 1.5182,-0.91575 2.53125,-2.03516 1.79447,-1.98286 1.78684,-2.09205 -0.34375,-4.22265 z m -8.37305,0.375 -2,2 C 718.6696,963.88705 718.66609,963.97356 720.5,966 l 1.87305,2.07031 2,-2 C 726.3304,964.11295 726.33391,964.02644 724.5,962 Z M 789.14648,962 c -1.41024,0 -4.06155,3.45841 -5.23828,6.83398 -1.03405,2.96627 -0.59409,4.30299 5.90821,17.93555 6.91261,14.49277 8.48071,18.79967 9.73437,26.72657 l 0.63281,3.9961 1.85352,-2.2891 c 3.65347,-4.5118 3.35724,-17.0633 -0.68359,-28.99412 C 799.21036,979.88118 790.19418,962 789.14648,962 Z m -27.53906,8.56641 c -0.49505,4.1e-4 -0.87571,0.27415 -1.32617,0.72461 -0.8696,0.86959 -1.69138,3.07177 -1.82617,4.89453 -0.13479,1.82277 -0.96218,4.97366 -1.83789,7.00195 -0.96139,2.22667 -1.35273,4.88477 -0.98828,6.70703 l 0.60351,3.01758 -7.86719,0.29297 c -7.81446,0.29223 -7.86701,0.31307 -8.18945,3.1289 -0.17852,1.55896 -0.0741,3.48842 0.23242,4.28712 0.96915,2.5255 13.9331,1.637 18.18164,-1.2461 2.96131,-2.0096 4.25877,-2.25888 9.17969,-1.76953 7.05615,0.70169 9.15386,-0.61904 9.90625,-6.22852 0.74054,-5.52114 -1.15972,-8.80214 -9.17578,-15.83984 -4.1604,-3.65263 -5.80346,-4.97161 -6.89258,-4.9707 z m -32.72656,7.44336 c -2.93807,-0.0263 -5.86647,3.46247 -6.59375,8.88476 -0.61869,4.61263 2.03943,7.30469 7.20898,7.30469 3.10663,0 3.57374,0.29755 3.31055,2.10351 -0.20215,1.38706 -2.17866,3.08541 -5.80664,4.98827 -4.73188,2.4819 -6.36746,2.8314 -11.7168,2.502 -4.88962,-0.3011 -6.78131,-0.9076 -8.85547,-2.8379 -2.43784,-2.2689 -2.60139,-2.92824 -2.14843,-8.7051 0.26955,-3.4375 0.29441,-6.25 0.0547,-6.25 -1.23341,0 -3.33398,7.57144 -3.33398,12.01758 0,6.36682 2.20029,10.73022 6.31445,12.51952 9.32472,4.0556 23.98821,-2.2364 27.6211,-11.85155 2.11376,-5.59455 0.77407,-14.88081 -2.73243,-18.93555 -1.02128,-1.18096 -2.17258,-1.72994 -3.32226,-1.74023 z M 761.91406,982 c 1.28076,0 3.08594,2.3945 3.08594,4.09375 0,2.16821 -1.88148,2.87225 -4.78516,1.79297 -2.19536,-0.816 -2.22019,-0.94751 -0.63476,-3.36719 C 760.48789,983.13404 761.53732,982 761.91406,982 Z m -34.33594,1.71875 c 1.2088,0.039 2.42188,1.232 2.42188,2.9043 0,1.60532 -3.57844,1.86933 -4.52734,0.33398 -0.35481,-0.5741 -0.0961,-1.70598 0.57422,-2.51367 0.43288,-0.52159 0.98179,-0.74234 1.53124,-0.72461 z M 768.8125,985 c 0.97341,0 6.1875,5.31277 6.1875,6.30469 0,0.3824 -0.3375,0.62732 -0.75,0.54492 -0.4125,-0.0824 -1.9875,-0.33729 -3.5,-0.56641 -2.28038,-0.34545 -2.75,-0.917 -2.75,-3.34961 C 768,986.32013 768.3654,985 768.8125,985 Z" />
      <path
         id="rect120"
         style="display:inline;fill:#ffffff;stroke:#1a1a1a;stroke-width:6.67087;stroke-linecap:square"
         d="M 570.97697,937.79792 C 721.09195,1102.2199 948.529,1071.9152 1074.567,936.55861 l 186.9997,103.92859 c -208.5969,285.0187 -653.06415,308.5392 -884.74791,0 z"
         sodipodi:nodetypes="ccccc" />
      <path
         style="display:inline;fill:none;fill-opacity:1;stroke:#1a1a1a;stroke-width:6.67087;stroke-linecap:square;stroke-linejoin:miter;stroke-dasharray:none;stroke-opacity:1"
         d="m 558.51459,944.35233 c 68.40932,77.40157 171.06842,121.10017 266.64831,118.13087 98.56474,-3.062 182.7396,-38.4335 258.1985,-118.75052"
         id="path121"
         sodipodi:nodetypes="csc" />
      <path
         id="path22"
         style="display:inline;fill:#000000"
         d="m 635.23438,1041.2012 c -0.99731,-0.03 -2.53202,0.5121 -5.02149,1.4629 l -4.35547,1.6621 0.68555,5.0879 c 0.37715,2.7978 0.88346,5.4185 1.125,5.8261 0.24154,0.4076 2.04507,0.07 4.00781,-0.75 4.89615,-2.0458 6.32189,-1.8741 6.33789,0.7598 0.008,1.2375 0.28555,3.2625 0.61719,4.5 0.7162,2.6725 0.49688,2.6411 5.07422,0.7285 5.87311,-2.4539 6.12508,-2.8793 5.01758,-8.4805 -0.54346,-2.7486 -1.32248,-4.998 -1.73243,-4.998 -0.40995,0 -2.36143,0.675 -4.33593,1.5 -1.9745,0.825 -3.80158,1.5 -4.06055,1.5 -0.25896,0 -0.77533,-2.025 -1.14648,-4.5 -0.44868,-2.992 -0.75529,-4.2554 -2.21289,-4.2988 z m 379.22262,3.6816 c -1.5348,0.093 -2.457,0.5726 -2.457,1.5195 0,0.7718 0.8954,5.8343 1.9902,11.25 1.0948,5.4157 1.99,10.1326 2,10.4805 0.01,0.3479 3.4675,0.9556 7.6934,1.3516 8.1438,0.7632 18.2527,3.0561 19.6582,4.459 1.4863,1.4835 -1.1656,4.7761 -6.4844,8.0488 -7.667,4.7176 -10.7465,4.9226 -15.2051,1.0078 -6.6025,-5.7971 -8.4182,-2.308 -4.2011,8.0703 3.1494,7.7509 7.6516,13.836 12.3359,16.6719 5.1266,3.1037 10.6947,2.9311 17.3301,-0.5352 6.3371,-3.3106 11.3417,-9.4262 12.2226,-14.9355 1.8864,-11.7969 -9.1995,-31.1108 -22.8398,-39.791 -7.3156,-4.6554 -17.4385,-7.876 -22.043,-7.5977 z M 601.33789,1057 c -2.97376,0 -12.22818,10.609 -15.85351,18.1738 -4.17304,8.7077 -5.13939,14.4151 -3.45704,20.4239 2.30485,8.232 14.47116,17.9461 28.81641,23.0097 13.39711,4.7289 23.44967,2.3232 32.73633,-7.8379 7.40158,-8.0985 12.43805,-18.8705 13.08984,-27.9961 0.28569,-4 0.11925,-8.3157 -0.37109,-9.5898 -0.87009,-2.2608 -1.10751,-2.1509 -9.84571,4.5586 -4.92432,3.7811 -8.86609,7.5234 -8.75976,8.3164 0.10634,0.793 0.72037,3.3432 1.36523,5.668 2.55579,9.2142 -1.87811,9.6548 -16.97265,1.6836 -21.63474,-11.4252 -25.49148,-16.8696 -20.10352,-28.3731 2.42551,-5.1786 2.19627,-8.0371 -0.64453,-8.0371 z m 379.60156,15.2344 c -0.0678,-0.011 -0.12423,-0.011 -0.16797,0 -1.30366,0.4306 -2.85508,20.0334 -1.72851,21.8398 0.29876,0.4791 3.44876,2.345 7,4.1465 8.71,4.4187 8.7704,5.934 0.38476,9.7363 -3.68719,1.6718 -7.02776,3.0391 -7.42382,3.0391 -0.39605,0 -2.3752,-2.4909 -4.39649,-5.5352 -4.28931,-6.46 -8.64757,-9.4509 -13.76758,-9.4609 -9.88081,-0.01 -12.59699,15.0468 -6.29687,34.9102 2.56334,8.0818 5.92728,12.6642 10.05859,13.7011 2.59695,0.6518 9.63028,-3e-4 12.69336,-1.1757 2.91676,-1.1193 2.04315,3.6146 -1.86719,10.1191 -1.96441,3.2677 -6.28247,9.6769 -9.5957,14.2422 -4.76424,6.5646 -5.89442,8.8127 -5.4082,10.75 0.42237,1.6829 1.31231,2.4492 2.84375,2.4492 3.51414,0 24.0374,-7.048 26.02539,-8.9375 2.7312,-2.5958 3.30442,-13.6214 1.26953,-24.4258 -0.91811,-4.8748 -1.53213,-8.9603 -1.36523,-9.0781 0.1669,-0.1178 1.75866,-0.7933 3.53906,-1.502 C 1002.9498,1132.991 1009,1126.091 1009,1118.5078 c 0,-4.69 -3.1344,-13.8309 -8.1914,-23.8887 -2.97369,-5.9144 -6.0755,-10.1106 -11.42383,-15.4589 -3.78531,-3.7854 -7.42816,-6.7593 -8.44532,-6.9258 z m -259.76367,5.3633 c -0.7728,0.1214 -5.51258,2.8183 -11.01172,6.2812 l -10.66406,6.7168 -4.72656,23.4512 c -5.53379,27.4541 -8.09957,43.94 -7.20117,46.2812 0.98937,2.5783 2.92851,2.0039 6.33593,-1.8769 6.08192,-6.9269 14.85323,-27.2864 20.22852,-46.9512 3.46336,-12.6702 7.79513,-33.2341 7.13867,-33.8906 -0.0153,-0.015 -0.0481,-0.02 -0.0996,-0.012 z m 23.52539,10.4921 -4.35156,3.125 c -2.39267,1.7183 -4.34961,3.4857 -4.34961,3.9278 0,0.442 0.98962,2.8404 2.19922,5.3301 1.20959,2.4898 2.44709,4.5217 2.75,4.5117 0.3029,-0.01 2.33978,-1.5284 4.52734,-3.3789 l 3.97852,-3.3653 -2.37696,-5.0742 z m 128.85938,1.8418 -1.7461,2.2832 c -1.93914,2.5376 -4.29751,7.707 -3.69922,8.1075 0.21153,0.1416 2.08829,1.701 4.16993,3.4668 2.08162,1.7658 3.98582,3.2109 4.23242,3.2109 0.2466,0 1.57364,-2.2209 2.94922,-4.9355 l 2.50195,-4.9356 -4.20508,-3.5996 z M 900.62109,1094 c -1.8306,0 -2.14134,1.176 -3.6875,13.9023 -1.02737,8.4563 -0.97552,9.4946 0.51758,10.3301 1.277,0.7147 1.39751,1.2453 0.52149,2.3008 -1.42345,1.7151 -1.47105,9.0682 -0.082,12.6973 0.97842,2.5563 0.83926,2.7849 -2.17382,3.5937 -4.85013,1.3018 -6.94197,0.072 -9.98633,-5.8633 -1.52362,-2.9706 -3.19342,-5.8224 -3.70899,-6.3379 -1.78833,-1.7884 -3.73852,1.3541 -4.3164,6.9532 -0.31573,3.0592 -1.10261,6.1988 -1.74805,6.9765 -1.50638,1.8151 -9.45,4.0544 -18.83398,5.3106 -8.42166,1.1273 -18.92241,5.7947 -22.08594,9.8164 -2.87149,3.6506 -4.41283,9.4998 -3.61914,13.7305 1.04956,5.5947 4.08598,6.983 16.25976,7.4336 5.67738,0.2101 10.32227,0.7464 10.32227,1.1914 0,2.0811 -8.19899,3.4263 -21,3.4453 -12.86655,0.019 -13.71531,-0.1057 -18.07031,-2.666 -6.47134,-3.8045 -8.3538,-8.3406 -7.69141,-18.5254 0.56949,-8.7565 -0.30966,-12.2891 -3.05859,-12.2891 -4.97352,0 -8.72884,11.6331 -7.92578,24.5488 0.7743,12.453 5.3883,19.3256 15.49414,23.0782 2.72816,1.0133 7.70874,1.3155 18.25195,1.1054 13.16201,-0.2623 15.01519,-0.529 20.08984,-2.8828 7.08162,-3.2846 10.12523,-7.3999 10.71289,-14.4863 0.41537,-5.0089 0.23619,-5.5255 -3.08007,-8.8418 -3.40473,-3.4047 -3.77318,-3.5215 -11.04102,-3.5215 -10.74196,0 -13.95427,-1.6639 -7.5332,-3.9023 8.40091,-2.9286 18.46069,-0.048 24.80664,7.1035 l 3.72265,4.1933 5.88282,-2.9472 c 3.41359,-1.7097 6.78939,-4.2969 8.03906,-6.1621 2.10897,-3.1476 2.19075,-3.1742 3.89844,-1.2872 3.24565,3.5864 7.55695,4.2605 15.13867,2.3692 6.77549,-1.6902 11.3648,-4.8732 14.04883,-9.7422 1.00421,-1.8216 1.19268,-1.8146 6.71093,0.25 7.86172,2.9415 10.88439,2.7672 13.88672,-0.8008 2.93333,-3.4861 5.26784,-14.3212 4.25196,-19.7363 -2.21035,-11.7822 -8.68658,-21.6504 -18.65235,-28.418 C 918.2094,1101.3881 903.1712,1094 900.62109,1094 Z m -224.10547,10 c -0.67343,0 -3.88132,3.0375 -7.1289,6.75 -9.43696,10.788 -8.87274,9.3573 -6.48828,16.418 3.12267,9.2468 2.84394,13.1776 -1.14844,16.1543 -4.01372,2.9925 -14.55448,7.2282 -25.59961,10.2871 -9.12517,2.5272 -11.15039,3.6978 -11.15039,6.4531 0,2.4014 0.47861,2.6697 14.48047,8.0957 11.71987,4.5416 12.09035,4.6165 14.88476,3 11.8092,-6.8315 25.74045,-34.5079 26.00196,-51.6582 0.10471,-6.867 -2.04063,-15.5 -3.85157,-15.5 z m 288.87305,13.1562 c 1.03231,8e-4 2.12588,0.2126 3.18555,0.6954 3.03447,1.3826 3.10215,2.9443 0.17578,4.039 -5.43813,2.0344 -6.49377,2.123 -7.7207,0.6446 -2.23134,-2.6886 0.67255,-5.3816 4.35937,-5.379 z m -193.12695,2.2637 c -2.39505,-0.055 -4.86228,0.7968 -6.74805,2.5684 -3.6935,3.4699 -8.27536,13.3244 -10.00195,21.5117 -3.62975,17.212 -0.58965,24.1851 11.38281,26.0996 2.40492,0.3846 4.10547,1.2042 4.10547,1.9785 0,1.8215 -10.55155,9.1123 -22.25,15.375 -8.09507,4.3337 -9.75,5.6192 -9.75,7.5742 0,1.2951 0.5625,2.7191 1.25,3.1641 0.6875,0.4449 6.65001,1.5377 13.25,2.4297 6.59999,0.8921 12.14275,1.68 12.31641,1.75 1.23762,0.5021 4.79421,-2.7644 7.28515,-6.6914 6.2673,-9.8805 10.88158,-30.9535 10.89258,-49.7481 0.007,-11.314 -1.76986,-18.8968 -5.42187,-23.1425 -1.59297,-1.852 -3.9155,-2.8139 -6.31055,-2.8692 z m -31.85742,2.8731 c -0.60315,-0.1966 -3.9332,3.9421 -7.39844,9.1972 l -6.30078,9.5547 3.64844,7.7715 c 2.00588,4.2744 3.64648,8.7302 3.64648,9.9004 0,3.3492 -7.30559,8.7987 -19.96094,14.8906 -6.34633,3.0548 -12.66406,6.0977 -14.03906,6.7617 -1.83216,0.8848 -2.5,1.9996 -2.5,4.17 0,2.9565 0.022,2.9666 12.5,6.1074 6.87499,1.7305 13.1401,3.193 13.92188,3.25 2.24809,0.164 9.77657,-8.355 12.94921,-14.6524 5.68774,-11.2894 8.36811,-21.7224 8.79688,-34.2441 0.35092,-10.2485 0.14569,-12.0894 -1.88672,-16.9238 -1.25433,-2.9836 -2.7738,-5.5866 -3.37695,-5.7832 z m 170.94922,0.3242 c 0.86888,-0.028 1.7068,0.4286 3.03906,1.4766 3.12659,2.4593 3.28276,4.2309 0.60742,6.9062 -2.35672,2.3567 -2.65696,2.377 -6.25,0.4277 -3.99603,-2.1679 -3.5933,-5.8954 0.89258,-8.2558 0.65715,-0.3458 1.1896,-0.5376 1.71094,-0.5547 z m 14.40234,5.9101 c 0.32038,-0.01 0.81303,0.2127 1.56055,0.5977 4.1537,2.1392 6.68359,5.1856 6.68359,8.0488 0,2.4323 -0.38284,2.8158 -2.75,2.7578 -4.5924,-0.113 -7.3819,-1.9408 -6.62109,-4.3378 0.36396,-1.1467 0.62708,-3.3231 0.58398,-4.8379 -0.0447,-1.5718 0.009,-2.2167 0.54297,-2.2286 z m -157.10352,11.7286 c 0.84531,0.014 1.66207,0.375 2.80664,1.125 1.39753,0.9157 2.54102,2.5551 2.54102,3.6425 0,1.5053 -0.65598,1.9621 -2.75,1.9141 -6.68784,-0.1541 -9.62714,-3.8981 -4.79102,-6.1016 0.86152,-0.3925 1.53591,-0.5908 2.19336,-0.58 z M 1019.1367,1144 c -0.529,0 -1.2655,1.7969 -1.6367,3.9941 -0.8372,4.9553 -1.6583,5.4931 -5.4219,3.5469 -4.7415,-2.452 -5.632,-1.9871 -6.9238,3.6094 -0.6538,2.8324 -1.0688,5.2494 -0.9219,5.373 0.1468,0.1236 2.0676,1.162 4.2676,2.3067 5.6068,2.9174 6.389,2.7147 7.1191,-1.8516 0.3538,-2.2122 0.987,-4.235 1.4063,-4.4941 0.4193,-0.2592 2.3702,0.2002 4.3359,1.0215 1.9658,0.8214 3.9798,1.4941 4.4746,1.4941 1.4688,0 3.0703,-9.8405 1.7696,-10.873 -1.7096,-1.3571 -7.3943,-4.127 -8.4688,-4.127 z m 0.6367,16.2188 c -0.203,-0.01 -0.3501,0.024 -0.4257,0.1 -0.2668,0.2669 -1.1088,2.5569 -1.8711,5.0898 -1.5082,5.0115 -1.6286,4.8083 5.0234,8.4395 1.1,0.6005 2.5087,1.1041 3.1309,1.1211 0.998,0.027 3.3691,-6.9886 3.3691,-9.9688 0,-1.0852 -7.2643,-4.7109 -9.2266,-4.7812 z m -189.84567,39.3378 -2.47656,2.9727 c -4.52784,5.4303 -4.59552,5.88 -1.44336,9.5664 1.60137,1.8727 2.92887,3.7715 2.95117,4.2207 0.0223,0.4492 -1.08398,2.2911 -2.45898,4.0938 -3.18658,4.1778 -3.14628,4.7838 0.60352,9.0546 1.70697,1.9441 3.44724,3.5352 3.86718,3.5352 1.06457,0 6.0293,-7.6619 6.0293,-9.3047 0,-0.741 -1.125,-2.4036 -2.5,-3.6953 -3.11358,-2.925 -3.10879,-3.5141 0.0625,-7.6719 2.98133,-3.9087 2.67908,-5.7644 -1.60938,-9.873 z" />
      <path
         style="fill:none;fill-opacity:1;stroke:#1a1a1a;stroke-width:6.67087;stroke-linecap:square;stroke-linejoin:miter;stroke-dasharray:none;stroke-opacity:1"
         d="m 1250.8744,1036.0611 c -210.8673,278.8424 -634.03499,290.1302 -862.55804,0"
         id="path122"
         sodipodi:nodetypes="cc" />
      <path
         id="rect126"
         style="fill:#000000;stroke-width:6.67087;stroke-linecap:square"
         d="m 822.82172,24.609375 a 8.0815288,6.0247188 0 0 0 -8.08109,6.025391 8.0815288,6.0247188 0 0 0 8.08109,6.02539 8.0815288,6.0247188 0 0 0 8.08109,-6.02539 8.0815288,6.0247188 0 0 0 -8.08109,-6.025391 z m -0.0529,12.0625 a 12.145766,8.9030933 0 0 0 -12.14517,8.902344 12.145766,8.9030933 0 0 0 12.14517,8.904297 12.145766,8.9030933 0 0 0 12.14517,-8.904297 12.145766,8.9030933 0 0 0 -12.14517,-8.902344 z m 0.21761,19.267578 -8.64963,4.527344 v 86.699223 c -2.68144,-0.0603 -5.363,-0.72996 -8.17128,-1.9336 v -19.82617 l 0.0529,-0.0176 c -17.53545,-13.88887 -18.85221,-18.74642 -0.0393,-33.414061 l -0.0177,-0.0039 h 0.0255 V 60.933594 l -0.13332,0.0625 c -0.60799,0.08667 -50.74779,7.350239 -53.79945,47.437496 -2.07437,27.24946 28.67592,41.29688 28.67592,41.29688 v -15.73438 c 0,0 -14.06295,-11.10133 -12.63137,-25.34375 1.88663,-18.769512 19.34226,-26.843812 21.30257,-27.695309 v 7.160157 l -0.13528,-0.03125 c -17.11525,13.897882 -19.21715,28.116672 0,42.792972 l 0.11371,-0.0371 v 22.11328 l -0.0157,0.008 c 0,0 0.0142,0.009 0.0157,0.01 v 0.082 h 0.13135 c 0.57479,0.33797 3.26715,1.70618 12.80389,4.25195 9.11468,2.43312 12.66862,2.66797 12.66862,2.66797 v -0.77539 h 15.32505 v 0.77539 c 0,0 3.5559,-0.23485 12.67058,-2.66797 9.53714,-2.54589 12.22927,-3.91406 12.80389,-4.25195 h 0.13135 v -0.0801 c 10e-4,-0.001 0.0157,-0.01 0.0157,-0.01 l -0.0157,-0.008 v -22.11328 l 0.1137,0.0371 c 19.21716,-14.6763 17.11525,-28.89704 0,-42.794922 l -0.13527,0.03125 v -7.160157 c 1.96031,0.851497 19.41399,8.925801 21.30061,27.695309 1.43158,14.24242 -12.62941,25.34571 -12.62941,25.34571 v 15.73242 c 0,0 30.74833,-14.04547 28.67396,-41.29492 -3.05166,-40.08726 -53.1895,-47.35083 -53.7975,-47.437503 l -0.13331,-0.0625 v 31.037109 h 0.0255 l -0.0177,0.0039 c 18.813,14.667634 17.49625,19.523234 -0.0392,33.412104 l 0.0529,0.0176 v 19.82813 c -2.81308,1.20569 -5.49899,1.87523 -8.185,1.93359 V 60.466797 Z" />
      <path
         id="rect131"
         style="stroke-width:6.67087;stroke-linecap:square"
         d="m 800.03661,657.12506 c 13.51829,3.09803 26.63789,3.03008 39.21339,0 -0.0431,5.77118 0.74113,11.33555 1.125,17 h -41.48744 c 0.75304,-5.32611 1.06262,-11.00729 1.14905,-17 z"
         sodipodi:nodetypes="ccccc" />
      <path
         id="rect132"
         style="display:inline;stroke-width:6.67087;stroke-linecap:square"
         d="m 820.42188,539.09375 a 5.484375,3.734375 0 0 0 -5.48438,3.73437 5.484375,3.734375 0 0 0 2.63672,3.1875 c -6.4161,15.83643 -10.76724,31.67334 -29.16602,47.50977 l 11.94922,60.01758 c 13.08829,3.35462 25.85813,2.80162 38.44727,0 l 13.66406,-60.01953 c -16.8742,-12.5902 -22.75293,-30.17908 -29.06055,-47.57227 a 5.484375,3.734375 0 0 0 2.49805,-3.12305 5.484375,3.734375 0 0 0 -5.48437,-3.73437 z"
         clip-path="url(#clipPath138)" />
      <g
         id="g120"
         style="display:inline">
        <path
           id="rect113"
           style="display:inline;fill:#000000;stroke-width:6.67087;stroke-linejoin:round"
           d="m 737.75364,643.33789 c -58.6257,-0.45651 -91.31989,7.35457 -132.26002,12.28711 -31.70512,3.81988 -56.90845,5.18359 -56.90845,5.18359 l -3.61553,9.60352 -15.60541,0.002 -123.98924,276.54102 389.77959,-0.94922 25.21686,-17.34961 v 0.01 l 25.22077,17.35156 389.78149,0.94922 -123.9911,-276.54102 h -15.6035 l -3.6175,-9.60547 c 0,0 -25.2014,-1.36176 -56.9065,-5.18164 -40.94009,-4.93253 -73.63429,-12.74362 -132.25999,-12.28711 -47.46018,0.36956 -82.53969,26.97836 -82.61194,27.03321 -0.0228,-0.0173 -35.13587,-26.67706 -82.62953,-27.04688 z" />
        <path
           id="rect114"
           style="display:inline;fill:#fff8ad;fill-opacity:1;stroke-width:6.67087;stroke-linejoin:round"
           d="m 451.63489,909.97971 c 0,0 25.00167,1.86235 61.00827,-1.87016 52.58722,-5.45128 104.27144,-19.32531 174.38836,-17.63623 56.90842,1.3709 127.33602,34.96795 127.33602,34.96795 l -20.65083,12.80262 c 0,0 -37.29022,-21.42686 -107.83394,-26.84887 -71.37881,-5.4862 -131.68017,7.50999 -189.638,15.07279 -39.97038,5.21566 -69.81972,4.45871 -69.81972,4.45871 z"
           sodipodi:nodetypes="cssccsscc" />
        <path
           id="rect115"
           style="display:inline;fill:#fff8ad;fill-opacity:1;stroke-width:6.67087;stroke-linejoin:round"
           d="m 552.11083,666.3184 c 0,0 27.12826,-2.57257 61.16477,-6.58564 39.77571,-4.68975 64.76453,-12.20015 126.99133,-11.2999 47.90602,0.69306 75.61053,26.78748 75.61053,26.78748 v 244.34578 c -58.99921,-27.80505 -107.42109,-35.67531 -151.1955,-35.67854 -73.34798,-0.005 -133.64768,23.19682 -208.79552,19.90473 z"
           sodipodi:nodetypes="cssccscc" />
        <path
           id="rect116"
           style="display:inline;fill:#fff8ad;fill-opacity:1;stroke-width:6.67087;stroke-linejoin:round"
           d="m 532.59241,675.93896 h 9.70791 l -93.47747,229.40826 -23.87208,19.04875 z"
           sodipodi:nodetypes="ccccc" />
        <path
           style="fill:none;fill-opacity:1;stroke:#000000;stroke-width:6.67087;stroke-linejoin:round;stroke-dasharray:none;stroke-opacity:1"
           d="m 598.52844,716.83201 c 49.59214,-16.67171 100.5692,-21.34069 154.81702,2.33686"
           id="path116"
           sodipodi:nodetypes="cc" />
        <path
           style="fill:none;fill-opacity:1;stroke:#000000;stroke-width:6.67087;stroke-linejoin:round;stroke-dasharray:none;stroke-opacity:1"
           d="m 623.64969,766.19819 c 49.93333,-15.23005 94.36092,-12.10766 134.95371,3.7974"
           id="path117"
           sodipodi:nodetypes="cc" />
        <path
           style="fill:none;fill-opacity:1;stroke:#000000;stroke-width:6.67087;stroke-linejoin:round;stroke-dasharray:none;stroke-opacity:1"
           d="m 663.85573,817.11676 c 35.17228,-8.16235 66.99571,-6.27816 96.66599,2.06551"
           id="path118"
           sodipodi:nodetypes="cc" />
        <path
           id="rect114-3"
           style="display:inline;fill:#fff8ad;fill-opacity:1;stroke-width:6.67087;stroke-linejoin:round"
           d="m 1188.953,909.87213 c 0,0 -25.0016,1.86235 -61.0082,-1.87016 -52.5873,-5.45128 -104.2715,-19.32531 -174.38837,-17.63623 -56.90842,1.3709 -127.33602,34.96795 -127.33602,34.96795 l 20.65083,12.8026 c 0,0 37.29022,-21.42684 107.83394,-26.84885 71.37882,-5.4862 131.68012,7.50999 189.63802,15.07279 39.9703,5.21566 69.8197,4.45871 69.8197,4.45871 z"
           sodipodi:nodetypes="cssccsscc" />
        <path
           id="rect115-7"
           style="display:inline;fill:#fff8ad;fill-opacity:1;stroke-width:6.67087;stroke-linejoin:round"
           d="m 1088.4771,666.21082 c 0,0 -27.1283,-2.57257 -61.1648,-6.58564 -39.77566,-4.68975 -64.76448,-12.20015 -126.99128,-11.2999 -47.90602,0.69306 -75.61053,26.78748 -75.61053,26.78748 v 244.34578 c 58.99921,-27.80505 107.42109,-35.67531 151.1955,-35.67854 73.34791,-0.005 133.64761,23.19682 208.79551,19.90473 z"
           sodipodi:nodetypes="cssccscc" />
        <path
           id="rect116-1"
           style="display:inline;fill:#fff8ad;fill-opacity:1;stroke-width:6.67087;stroke-linejoin:round"
           d="m 1107.9955,675.83138 h -9.7079 l 93.4775,229.40826 23.8721,19.04875 z"
           sodipodi:nodetypes="ccccc" />
        <path
           style="fill:none;fill-opacity:1;stroke:#000000;stroke-width:6.67087;stroke-linejoin:round;stroke-dasharray:none;stroke-opacity:1"
           d="M 1042.0595,716.72443 C 992.46737,700.05272 941.49031,695.38374 887.24249,719.06129"
           id="path116-7"
           sodipodi:nodetypes="cc" />
        <path
           style="fill:none;fill-opacity:1;stroke:#000000;stroke-width:6.67087;stroke-linejoin:round;stroke-dasharray:none;stroke-opacity:1"
           d="m 1016.9382,766.09061 c -49.93327,-15.23005 -94.36086,-12.10766 -134.95365,3.7974"
           id="path117-7"
           sodipodi:nodetypes="cc" />
        <path
           style="display:inline;fill:none;fill-opacity:1;stroke:#000000;stroke-width:6.67087;stroke-linejoin:round;stroke-dasharray:none;stroke-opacity:1"
           d="m 976.73222,817.00918 c -35.17228,-8.16235 -66.99571,-6.27816 -96.66599,2.06551"
           id="path118-4"
           sodipodi:nodetypes="cc" />
      </g>
    </g>
  </g>
</svg>
