<svg xmlns="http://www.w3.org/2000/svg" version="1.1" xmlns:xlink="http://www.w3.org/1999/xlink" xmlns:svgjs="http://svgjs.dev/svgjs" width="1500" height="1500" viewBox="0 0 1500 1500"><rect width="1500" height="1500" fill="#000000"></rect><g transform="matrix(0.6666666666666666,0,0,0.6666666666666666,249.39393939393938,435.99032258064517)"><svg viewBox="0 0 396 248" data-background-color="#ffffff" preserveAspectRatio="xMidYMid meet" height="939" width="1500" xmlns="http://www.w3.org/2000/svg" xmlns:xlink="http://www.w3.org/1999/xlink"><g id="tight-bounds" transform="matrix(1,0,0,1,0.2400000000000091,0.4000000000000057)"><svg viewBox="0 0 395.52 247.2" height="247.2" width="395.52"><g><svg></svg></g><g><svg viewBox="0 0 395.52 247.2" height="247.2" width="395.52"><g transform="matrix(1,0,0,1,75.54432,90.51529287316689)"><svg viewBox="0 0 244.43135999999998 66.16941425366622" height="66.16941425366622" width="244.43135999999998"><g><svg viewBox="0 0 244.43135999999998 66.16941425366622" height="66.16941425366622" width="244.43135999999998"><g><svg viewBox="0 0 244.43135999999998 66.16941425366622" height="66.16941425366622" width="244.43135999999998"><g><svg viewBox="0 0 244.43135999999998 66.16941425366622" height="66.16941425366622" width="244.43135999999998"><g id="textblocktransform"><svg viewBox="0 0 244.43135999999998 66.16941425366622" height="66.16941425366622" width="244.43135999999998" id="textblock"><g><svg viewBox="0 0 244.43135999999998 35.68862023653087" height="35.68862023653087" width="244.43135999999998"><g transform="matrix(1,0,0,1,0,0)"><svg width="244.43135999999998" viewBox="1.05 -37.5 342.42 50" height="35.68862023653087" data-palette-color="#43b9b2"><path d="M35.7-18.1L35.7-18.1Q35.7-7.8 29.9-3.75L29.9-3.75Q24.55 0 15.2 0L15.2 0 1.05 0 1.05-0.95 4.35-0.95 4.35-34.05 1.05-34.05 1.05-35 16.5-35Q26.1-35 30.9-31.08 35.7-27.15 35.7-18.1ZM14.1-34.05L14.1-0.95 16-0.95Q21.05-0.95 23.23-4.53 25.4-8.1 25.4-16.5L25.4-16.5 25.4-19.4Q25.4-30.65 21.1-32.95L21.1-32.95Q19.05-34.05 15.3-34.05L15.3-34.05 14.1-34.05ZM45.6-27.25Q42.95-27.25 41.82-28.6 40.7-29.95 40.7-31.95 40.7-33.95 41.92-35.25 43.15-36.55 45.65-36.55 48.15-36.55 49.45-35.38 50.75-34.2 50.75-32.02 50.75-29.85 49.5-28.55 48.25-27.25 45.6-27.25ZM38.05-22.9L38.05-23.8 50.3-23.8 50.3-0.9 53.1-0.9 53.1 0 38.25 0 38.25-0.9 41-0.9 41-22.9 38.05-22.9ZM74.15-26.4L74.15-26.4 75.55-27.25Q75.84-28.8 74.34-28.8L74.34-28.8Q72.2-28.8 72.2-25.5L72.2-25.5Q72.2-24.2 72.55-22.5L72.55-22.5Q76.34-19.95 76.34-15.98 76.34-12 73.59-9.8 70.84-7.6 66.15-7.6L66.15-7.6Q64.2-7.6 62.1-8L62.1-8Q59.9-6.6 59.9-5.9 59.9-5.2 63.1-5.2L63.1-5.2 68.2-5.2Q79.55-5.2 79.55 2.95L79.55 2.95Q79.55 7.35 76.12 9.93 72.7 12.5 65.45 12.5L65.45 12.5Q53.1 12.5 53.1 7.15L53.1 7.15Q53.1 4.25 56.95 3.15L56.95 3.15 59.95 4.5Q59.55 5.95 59.55 7.25L59.55 7.25Q59.55 11.55 65.95 11.55L65.95 11.55Q69.84 11.55 71.95 10.1 74.05 8.65 74.05 6.5 74.05 4.35 72.77 3.63 71.5 2.9 67.7 2.9L67.7 2.9 62.85 2.9Q58.8 2.9 57.05 1.55 55.3 0.2 55.3-1.78 55.3-3.75 56.55-5.08 57.8-6.4 61-8.35L61-8.35Q55.2-10 55.2-15.95L55.2-15.95Q55.2-19.7 57.9-22 60.6-24.3 66-24.3L66-24.3Q69.25-24.3 71.55-23.05L71.55-23.05Q71.25-24.4 71.25-25.5L71.25-25.5Q71.25-28.3 72.75-29.55 74.25-30.8 76.09-30.8 77.95-30.8 79.07-29.83 80.2-28.85 80.2-27.15 80.2-25.45 79.3-24.63 78.4-23.8 77.12-23.8 75.84-23.8 75.02-24.48 74.2-25.15 74.15-26.4ZM63.55-17.05L63.55-17.05 63.55-14.35Q63.55-11 64.12-9.8 64.7-8.6 65.87-8.6 67.05-8.6 67.57-9.78 68.09-10.95 68.09-14.6L68.09-14.6 68.09-17.05Q68.09-20.95 67.59-22.18 67.09-23.4 65.92-23.4 64.75-23.4 64.15-22.13 63.55-20.85 63.55-17.05ZM87.54-27.25Q84.89-27.25 83.77-28.6 82.64-29.95 82.64-31.95 82.64-33.95 83.87-35.25 85.09-36.55 87.59-36.55 90.09-36.55 91.39-35.38 92.69-34.2 92.69-32.02 92.69-29.85 91.44-28.55 90.19-27.25 87.54-27.25ZM79.99-22.9L79.99-23.8 92.24-23.8 92.24-0.9 95.04-0.9 95.04 0 80.19 0 80.19-0.9 82.94-0.9 82.94-22.9 79.99-22.9ZM98.54-7.15L98.54-7.15 98.54-22.9 95.79-22.9 95.79-23.8 98.54-23.8 98.54-30.25 107.84-32.55 107.84-23.8 114.34-23.8 114.34-22.9 107.84-22.9 107.84-6.05Q107.84-3.7 108.32-2.6 108.79-1.5 110.29-1.5 111.79-1.5 112.92-3 114.04-4.5 114.39-7.1L114.39-7.1 115.24-7Q114.84-3.55 113.04-1.53 111.24 0.5 107.09 0.5 102.94 0.5 100.74-1.15 98.54-2.8 98.54-7.15ZM127.74-11.75L127.74-11.75 129.19-11.75 129.19-15.6Q129.19-20.35 128.66-21.98 128.14-23.6 126.64-23.6L126.64-23.6Q125.74-23.6 125.01-23.13 124.29-22.65 124.29-21.83 124.29-21 124.59-20.15L124.59-20.15 125.84-20.15Q126.24-19.1 126.24-17.63 126.24-16.15 124.99-15.08 123.74-14 121.84-14L121.84-14Q117.54-14 117.54-18.15L117.54-18.15Q117.54-24.3 127.99-24.3L127.99-24.3Q133.94-24.3 136.21-22.28 138.49-20.25 138.49-14.85L138.49-14.85 138.49-4.7Q138.49-2.1 139.94-2.1L139.94-2.1Q141.64-2.1 141.94-7.25L141.94-7.25 142.69-7.2Q142.49-2.8 141.04-1.15 139.59 0.5 136.29 0.5L136.29 0.5Q130.29 0.5 129.39-3.2L129.39-3.2Q128.74-1.3 127.44-0.4 126.14 0.5 123.64 0.5L123.64 0.5Q116.24 0.5 116.24-5.55L116.24-5.55Q116.24-9.1 119.06-10.43 121.89-11.75 127.74-11.75ZM125.74-5.6Q125.74-3 126.01-2.25 126.29-1.5 127.06-1.5 127.84-1.5 128.51-2.78 129.19-4.05 129.19-6.3L129.19-6.3 129.19-10.95 128.84-10.95Q125.74-10.95 125.74-6.4L125.74-6.4 125.74-5.6ZM142.99-36.6L142.99-37.5 155.24-37.5 155.24-0.9 158.04-0.9 158.04 0 143.19 0 143.19-0.9 145.94-0.9 145.94-36.6 142.99-36.6ZM188.88-9.25L194.88-35 208.23-35 208.23-34.05 205.48-34.05 205.48-0.95 208.23-0.95 208.23 0 192.98 0 192.98-0.95 195.73-0.95 195.73-32.2 195.53-32.2 188.03 0 181.78 0 172.98-32.35 172.78-32.35 172.78-0.95 175.53-0.95 175.53 0 168.73 0 168.73-0.95 171.48-0.95 171.48-34.05 168.73-34.05 168.73-35 182.23-35 188.88-9.25ZM221.98-11.75L221.98-11.75 223.43-11.75 223.43-15.6Q223.43-20.35 222.9-21.98 222.38-23.6 220.88-23.6L220.88-23.6Q219.98-23.6 219.25-23.13 218.53-22.65 218.53-21.83 218.53-21 218.83-20.15L218.83-20.15 220.08-20.15Q220.48-19.1 220.48-17.63 220.48-16.15 219.23-15.08 217.98-14 216.08-14L216.08-14Q211.78-14 211.78-18.15L211.78-18.15Q211.78-24.3 222.23-24.3L222.23-24.3Q228.18-24.3 230.45-22.28 232.73-20.25 232.73-14.85L232.73-14.85 232.73-4.7Q232.73-2.1 234.18-2.1L234.18-2.1Q235.88-2.1 236.18-7.25L236.18-7.25 236.93-7.2Q236.73-2.8 235.28-1.15 233.83 0.5 230.53 0.5L230.53 0.5Q224.53 0.5 223.63-3.2L223.63-3.2Q222.98-1.3 221.68-0.4 220.38 0.5 217.88 0.5L217.88 0.5Q210.48 0.5 210.48-5.55L210.48-5.55Q210.48-9.1 213.3-10.43 216.13-11.75 221.98-11.75ZM219.98-5.6Q219.98-3 220.25-2.25 220.53-1.5 221.3-1.5 222.08-1.5 222.75-2.78 223.43-4.05 223.43-6.3L223.43-6.3 223.43-10.95 223.08-10.95Q219.98-10.95 219.98-6.4L219.98-6.4 219.98-5.6ZM267.68 0L253.78 0 253.78-0.9 256.08-0.9 250.43-12.5 249.48-12.25 249.48-0.9 251.78-0.9 251.78 0 237.43 0 237.43-0.9 240.18-0.9 240.18-36.6 237.23-36.6 237.23-37.5 249.48-37.5 249.48-13.25 250.28-13.55 261.53-22.9 256.83-22.9 256.83-23.8 266.68-23.8 266.68-22.9 263.18-22.9 257.23-17.85 265.88-0.9 267.68-0.9 267.68 0ZM270.92-7.15L270.92-7.15 270.92-22.9 268.17-22.9 268.17-23.8 270.92-23.8 270.92-30.25 280.22-32.55 280.22-23.8 286.72-23.8 286.72-22.9 280.22-22.9 280.22-6.05Q280.22-3.7 280.7-2.6 281.17-1.5 282.67-1.5 284.17-1.5 285.3-3 286.42-4.5 286.77-7.1L286.77-7.1 287.62-7Q287.22-3.55 285.42-1.53 283.62 0.5 279.47 0.5 275.32 0.5 273.12-1.15 270.92-2.8 270.92-7.15ZM300.12-11.75L300.12-11.75 301.57-11.75 301.57-15.6Q301.57-20.35 301.05-21.98 300.52-23.6 299.02-23.6L299.02-23.6Q298.12-23.6 297.4-23.13 296.67-22.65 296.67-21.83 296.67-21 296.97-20.15L296.97-20.15 298.22-20.15Q298.62-19.1 298.62-17.63 298.62-16.15 297.37-15.08 296.12-14 294.22-14L294.22-14Q289.92-14 289.92-18.15L289.92-18.15Q289.92-24.3 300.37-24.3L300.37-24.3Q306.32-24.3 308.6-22.28 310.87-20.25 310.87-14.85L310.87-14.85 310.87-4.7Q310.87-2.1 312.32-2.1L312.32-2.1Q314.02-2.1 314.32-7.25L314.32-7.25 315.07-7.2Q314.87-2.8 313.42-1.15 311.97 0.5 308.67 0.5L308.67 0.5Q302.67 0.5 301.77-3.2L301.77-3.2Q301.12-1.3 299.82-0.4 298.52 0.5 296.02 0.5L296.02 0.5Q288.62 0.5 288.62-5.55L288.62-5.55Q288.62-9.1 291.45-10.43 294.27-11.75 300.12-11.75ZM298.12-5.6Q298.12-3 298.4-2.25 298.67-1.5 299.45-1.5 300.22-1.5 300.9-2.78 301.57-4.05 301.57-6.3L301.57-6.3 301.57-10.95 301.22-10.95Q298.12-10.95 298.12-6.4L298.12-6.4 298.12-5.6ZM333.82-13.45Q333.82-18.6 333.32-20.38 332.82-22.15 331.37-22.15 329.92-22.15 328.77-20.35 327.62-18.55 327.62-15.4L327.62-15.4 327.62-6.1Q327.62-3.95 328.49-2.45 329.37-0.95 330.99-0.95 332.62-0.95 333.22-3.15 333.82-5.35 333.82-10.85L333.82-10.85 333.82-13.45ZM315.57-37.5L327.62-37.5 327.62-20Q329.52-24.3 334.12-24.3L334.12-24.3Q343.47-24.3 343.47-11.85L343.47-11.85Q343.47-5.5 340.89-2.5 338.32 0.5 333.17 0.5L333.17 0.5Q330.57 0.5 329.19-0.3 327.82-1.1 327.32-2.95L327.32-2.95 326.97 0 315.57 0 315.57-0.9 318.32-0.9 318.32-36.6 315.57-36.6 315.57-37.5Z" opacity="1" transform="matrix(1,0,0,1,0,0)" fill="#ffffff" class="wordmark-text-0" data-fill-palette-color="primary" id="text-0"></path></svg></g></svg></g><g transform="matrix(1,0,0,1,0,44.11384694749014)"><svg viewBox="0 0 244.43135999999998 22.05556730617608" height="22.05556730617608" width="244.43135999999998"><g transform="matrix(1,0,0,1,0,0)"><svg width="244.43135999999998" viewBox="3.91 -38.38 555.48 50.120000000000005" height="22.05556730617608" data-palette-color="#21272d"><path d="M22.07 0L9.94 0Q7.42 0 6.12-0.63 4.81-1.27 4.36-2.71 3.91-4.15 3.91-6.54L3.91-6.54 3.91-31.1Q3.91-31.81 4.15-32.18L4.15-32.18Q5.25-33.79 7.23-35.57L7.23-35.57Q7.59-35.86 7.86-35.86L7.86-35.86Q8.15-35.86 8.47-35.57L8.47-35.57Q9.55-34.64 10.28-33.8 11.01-32.96 11.55-32.18L11.55-32.18Q11.79-31.79 11.79-31.1L11.79-31.1 11.79-9.45Q11.79-7.81 12.38-7.1 12.96-6.4 14.58-6.4L14.58-6.4 22.07-6.42Q22.66-6.42 22.95-6.23L22.95-6.23Q23.58-5.79 24.27-5.18 24.95-4.57 25.71-3.71L25.71-3.71Q25.95-3.39 25.95-3.2L25.95-3.2Q25.95-2.98 25.71-2.71L25.71-2.71Q24.95-1.86 24.27-1.25 23.58-0.63 22.95-0.2L22.95-0.2Q22.61 0 22.07 0L22.07 0ZM42.88 0.61L42.88 0.61Q38.76 0.61 35.71-0.72 32.65-2.05 30.97-4.86 29.29-7.67 29.29-12.11L29.29-12.11Q29.29-18.77 32.7-22.19 36.12-25.61 41.79-25.61L41.79-25.61Q45.47-25.61 48.02-24.29 50.57-22.97 51.9-20.65 53.24-18.33 53.24-15.36L53.24-15.36Q53.24-12.45 51.75-11.3 50.26-10.16 47.4-10.16L47.4-10.16 36.93-10.16Q37.12-7.64 38.77-6.32 40.42-5 43.25-5L43.25-5Q45.5-5 46.85-5.68 48.21-6.35 48.74-6.74L48.74-6.74Q49.21-7.08 49.79-7.06L49.79-7.06Q50.26-7.06 51.12-6.87 51.99-6.69 52.84-6.2L52.84-6.2Q53.46-5.88 53.46-5.32L53.46-5.32Q53.46-5 53.33-4.42L53.33-4.42Q53.26-4.08 53.09-3.43 52.92-2.78 52.65-2.22L52.65-2.22Q52.5-1.95 52.19-1.71L52.19-1.71Q51.7-1.37 50.61-0.81 49.52-0.24 47.64 0.18 45.76 0.61 42.88 0.61ZM36.88-15.16L36.88-15.16 44.84-15.16Q46.08-15.16 46.08-16.31L46.08-16.31Q46.08-18.04 45-19.23 43.91-20.41 41.74-20.41L41.74-20.41Q39.37-20.41 38.26-18.9 37.15-17.38 36.88-15.16ZM66.94 0.61L66.94 0.61Q63.36 0.61 61.24-1.4 59.13-3.42 59.13-6.96L59.13-6.96Q59.13-8.79 59.8-10.36 60.47-11.94 62.15-13.15 63.82-14.36 66.83-15.09 69.85-15.82 74.54-15.94L74.54-15.94Q74.54-18.16 73.43-19.14 72.32-20.12 70.09-20.12L70.09-20.12Q68.09-20.12 66.82-19.43 65.55-18.75 65.24-18.51L65.24-18.51Q64.89-18.21 64.41-18.29L64.41-18.29Q63.75-18.38 63-18.63 62.26-18.87 61.4-19.19L61.4-19.19Q61.28-19.24 61.13-19.35 60.99-19.46 60.96-19.68L60.96-19.68Q60.96-19.8 60.99-19.98 61.01-20.17 61.11-20.65L61.11-20.65Q61.21-21.14 61.4-21.86 61.6-22.58 61.77-22.97L61.77-22.97Q61.99-23.39 62.5-23.75L62.5-23.75Q62.92-24.1 65.02-24.85 67.12-25.61 71.09-25.61L71.09-25.61Q82.06-25.61 82.06-14.94L82.06-14.94 82.06-1.12Q82.06-0.66 81.8-0.33 81.54 0 80.93 0L80.93 0 77.27 0Q76.88 0 76.58-0.11 76.27-0.22 76-0.54L76-0.54 74.49-2.49 74.32-2.49Q73.19-0.85 71.3-0.12 69.41 0.61 66.94 0.61ZM69.63-5.05L69.63-5.05Q71.88-5.05 73.02-6.2 74.17-7.35 74.49-8.57L74.49-8.57 74.49-11.28Q71.09-11.28 69.4-10.75 67.7-10.23 67.14-9.39 66.58-8.54 66.58-7.57L66.58-7.57Q66.58-6.15 67.46-5.6 68.34-5.05 69.63-5.05ZM98.23-22.17L98.23-20.36 98.33-20.36Q100.16-25.44 104.92-25.44L104.92-25.44Q105.53-25.44 105.92-25.38 106.31-25.32 106.46-25.27L106.46-25.27Q106.83-25.15 106.83-24.71L106.83-24.71 106.83-18.82Q106.83-18.07 105.95-18.41L105.95-18.41Q105.65-18.53 105.1-18.66 104.55-18.8 103.58-18.8L103.58-18.8Q101.06-18.8 99.65-16.96 98.23-15.11 98.23-11.94L98.23-11.94 98.23-1.29Q98.23-0.56 97.93-0.28 97.62 0 96.89 0L96.89 0 91.86 0Q91.13 0 90.82-0.28 90.52-0.56 90.52-1.29L90.52-1.29 90.52-21.75Q90.52-22.34 90.76-22.66L90.76-22.66Q91.27-23.34 91.99-24.05 92.71-24.76 93.76-25.56L93.76-25.56Q93.96-25.71 94.15-25.76 94.35-25.81 94.5-25.81L94.5-25.81Q94.84-25.81 95.18-25.56L95.18-25.56Q97.21-23.97 98.01-22.85L98.01-22.85Q98.23-22.56 98.23-22.17L98.23-22.17ZM136.5-15.55L136.5-15.55 136.5-1.29Q136.5-0.56 136.2-0.28 135.89 0 135.16 0L135.16 0 130.13 0Q129.4 0 129.09-0.28 128.79-0.56 128.79-1.29L128.79-1.29 128.79-14.28Q128.79-16.94 127.66-18.16 126.54-19.38 124.61-19.38L124.61-19.38Q122.68-19.38 121.65-18.55 120.61-17.72 120.05-16.46L120.05-16.46 120.05-1.29Q120.05-0.56 119.74-0.28 119.44 0 118.7 0L118.7 0 113.67 0Q112.94 0 112.64-0.28 112.33-0.56 112.33-1.29L112.33-1.29 112.33-21.75Q112.33-22.34 112.58-22.66L112.58-22.66Q113.09-23.34 113.81-24.05 114.53-24.76 115.58-25.56L115.58-25.56Q115.9-25.81 116.19-25.81L116.19-25.81Q116.46-25.81 116.8-25.56L116.8-25.56Q117.82-24.76 118.56-24.02 119.29-23.29 119.85-22.51L119.85-22.51 119.97-22.51Q120.39-23.05 121.22-23.77 122.05-24.49 123.55-25.05 125.05-25.61 127.39-25.61L127.39-25.61Q129.69-25.61 131.76-24.68 133.84-23.75 135.17-21.56 136.5-19.36 136.5-15.55ZM147.7 7.1L142.89 5.18Q143.69 3.49 144.35 0.56 145.01-2.37 145.01-5.62L145.01-5.62 145.01-7.74Q145.01-8.42 145.82-8.42L145.82-8.42 151.46-8.42Q152.29-8.42 152.29-7.52L152.29-7.52Q152.29-2.42 150.82 1.25 149.36 4.91 147.7 7.1L147.7 7.1ZM191.35-5.98L191.35-5.98Q193.13-5.98 194.14-6.35 195.16-6.71 195.72-7.25 196.28-7.79 196.7-8.33L196.7-8.33Q197.09-8.81 197.34-9.06 197.6-9.3 198.06-9.4L198.06-9.4Q198.45-9.52 199.32-9.56 200.19-9.59 201.05-9.59 201.92-9.59 202.26-9.55L202.26-9.55Q202.77-9.52 202.97-9.35L202.97-9.35Q203.17-9.18 203.21-8.62L203.21-8.62Q203.29-7.84 203.3-6.76 203.31-5.69 203.26-4.91L203.26-4.91Q203.24-4.66 203.18-4.49 203.12-4.32 202.92-3.98L202.92-3.98Q202.68-3.59 201.97-2.84 201.26-2.1 199.89-1.31 198.53-0.51 196.37 0.05 194.21 0.61 191.06 0.61L191.06 0.61Q187.69 0.61 184.76-0.26 181.83-1.12 179.62-3.17 177.41-5.22 176.18-8.72 174.94-12.21 174.94-17.43L174.94-17.43Q174.94-23.24 176.96-27.31 178.97-31.37 182.68-33.5 186.39-35.62 191.47-35.62L191.47-35.62Q195.04-35.62 197.2-34.89 199.36-34.16 200.48-33.17 201.6-32.18 202.07-31.45L202.07-31.45Q202.24-31.18 202.31-30.97 202.38-30.76 202.41-30.32L202.41-30.32Q202.48-29.74 202.45-28.61 202.41-27.49 202.26-26.64L202.26-26.64Q202.16-26.1 201.94-25.93L201.94-25.93Q201.85-25.83 201.6-25.76 201.36-25.68 200.87-25.68L200.87-25.68Q200.09-25.68 199.11-25.74 198.14-25.81 197.65-25.88L197.65-25.88Q197.06-25.98 196.79-26.16 196.52-26.34 196.26-26.73L196.26-26.73Q195.82-27.37 194.74-28.2 193.67-29.03 191.2-29.03L191.2-29.03Q187.74-29.03 185.49-26.35 183.24-23.68 183.24-17.7L183.24-17.7Q183.24-11.74 185.6-8.86 187.96-5.98 191.35-5.98ZM217.66-22.17L217.66-20.36 217.75-20.36Q219.58-25.44 224.34-25.44L224.34-25.44Q224.96-25.44 225.35-25.38 225.74-25.32 225.88-25.27L225.88-25.27Q226.25-25.15 226.25-24.71L226.25-24.71 226.25-18.82Q226.25-18.07 225.37-18.41L225.37-18.41Q225.08-18.53 224.53-18.66 223.98-18.8 223-18.8L223-18.8Q220.49-18.8 219.07-16.96 217.66-15.11 217.66-11.94L217.66-11.94 217.66-1.29Q217.66-0.56 217.35-0.28 217.05 0 216.31 0L216.31 0 211.28 0Q210.55 0 210.25-0.28 209.94-0.56 209.94-1.29L209.94-1.29 209.94-21.75Q209.94-22.34 210.18-22.66L210.18-22.66Q210.7-23.34 211.42-24.05 212.14-24.76 213.19-25.56L213.19-25.56Q213.38-25.71 213.58-25.76 213.77-25.81 213.92-25.81L213.92-25.81Q214.26-25.81 214.6-25.56L214.6-25.56Q216.63-23.97 217.44-22.85L217.44-22.85Q217.66-22.56 217.66-22.17L217.66-22.17ZM244.01 0.61L244.01 0.61Q239.89 0.61 236.83-0.72 233.78-2.05 232.1-4.86 230.41-7.67 230.41-12.11L230.41-12.11Q230.41-18.77 233.83-22.19 237.25-25.61 242.91-25.61L242.91-25.61Q246.6-25.61 249.15-24.29 251.7-22.97 253.03-20.65 254.36-18.33 254.36-15.36L254.36-15.36Q254.36-12.45 252.87-11.3 251.38-10.16 248.53-10.16L248.53-10.16 238.05-10.16Q238.25-7.64 239.9-6.32 241.55-5 244.38-5L244.38-5Q246.62-5 247.98-5.68 249.33-6.35 249.87-6.74L249.87-6.74Q250.33-7.08 250.92-7.06L250.92-7.06Q251.38-7.06 252.25-6.87 253.12-6.69 253.97-6.2L253.97-6.2Q254.58-5.88 254.58-5.32L254.58-5.32Q254.58-5 254.46-4.42L254.46-4.42Q254.39-4.08 254.22-3.43 254.05-2.78 253.78-2.22L253.78-2.22Q253.63-1.95 253.31-1.71L253.31-1.71Q252.82-1.37 251.74-0.81 250.65-0.24 248.77 0.18 246.89 0.61 244.01 0.61ZM238.01-15.16L238.01-15.16 245.96-15.16Q247.21-15.16 247.21-16.31L247.21-16.31Q247.21-18.04 246.12-19.23 245.04-20.41 242.86-20.41L242.86-20.41Q240.5-20.41 239.38-18.9 238.27-17.38 238.01-15.16ZM268.07 0.61L268.07 0.61Q264.48 0.61 262.37-1.4 260.26-3.42 260.26-6.96L260.26-6.96Q260.26-8.79 260.93-10.36 261.6-11.94 263.27-13.15 264.95-14.36 267.96-15.09 270.98-15.82 275.66-15.94L275.66-15.94Q275.66-18.16 274.55-19.14 273.44-20.12 271.22-20.12L271.22-20.12Q269.22-20.12 267.95-19.43 266.68-18.75 266.36-18.51L266.36-18.51Q266.02-18.21 265.53-18.29L265.53-18.29Q264.87-18.38 264.13-18.63 263.38-18.87 262.53-19.19L262.53-19.19Q262.41-19.24 262.26-19.35 262.11-19.46 262.09-19.68L262.09-19.68Q262.09-19.8 262.11-19.98 262.14-20.17 262.24-20.65L262.24-20.65Q262.33-21.14 262.53-21.86 262.72-22.58 262.9-22.97L262.9-22.97Q263.12-23.39 263.63-23.75L263.63-23.75Q264.04-24.1 266.14-24.85 268.24-25.61 272.22-25.61L272.22-25.61Q283.18-25.61 283.18-14.94L283.18-14.94 283.18-1.12Q283.18-0.66 282.93-0.33 282.67 0 282.06 0L282.06 0 278.4 0Q278.01 0 277.7-0.11 277.4-0.22 277.13-0.54L277.13-0.54 275.62-2.49 275.44-2.49Q274.32-0.85 272.43-0.12 270.54 0.61 268.07 0.61ZM270.76-5.05L270.76-5.05Q273-5.05 274.15-6.2 275.3-7.35 275.62-8.57L275.62-8.57 275.62-11.28Q272.22-11.28 270.53-10.75 268.83-10.23 268.27-9.39 267.71-8.54 267.71-7.57L267.71-7.57Q267.71-6.15 268.58-5.6 269.46-5.05 270.76-5.05ZM301.53 0.61L301.53 0.61Q293.38 0.61 293.38-7.86L293.38-7.86 293.38-19.31 290.62-19.31Q289.89-19.31 289.61-19.62 289.32-19.92 289.32-20.65L289.32-20.65 289.32-23.66Q289.32-24.39 289.61-24.69 289.89-25 290.62-25L290.62-25 293.38-25 293.38-28.93Q293.38-29.52 293.62-29.83L293.62-29.83Q294.65-31.18 296.62-32.74L296.62-32.74Q296.97-32.98 297.23-32.98L297.23-32.98Q297.53-32.98 297.82-32.74L297.82-32.74Q298.87-31.93 299.59-31.23 300.31-30.52 300.82-29.83L300.82-29.83Q301.07-29.52 301.07-28.93L301.07-28.93 301.07-25 305.39-25Q306.12-25 306.4-24.69 306.68-24.39 306.68-23.66L306.68-23.66 306.68-20.65Q306.68-19.92 306.4-19.62 306.12-19.31 305.39-19.31L305.39-19.31 301.07-19.31 301.07-9.2Q301.07-5.3 303.9-5.3L303.9-5.3Q304.34-5.3 304.71-5.38 305.07-5.47 305.34-5.57L305.34-5.57Q305.85-5.76 306.06-5.71 306.27-5.66 306.44-5.18L306.44-5.18 307.85-1.39Q308.07-0.78 307.56-0.51L307.56-0.51Q307.2-0.34 305.79 0.13 304.39 0.61 301.53 0.61ZM326.06 0.61L326.06 0.61Q321.93 0.61 318.88-0.72 315.83-2.05 314.14-4.86 312.46-7.67 312.46-12.11L312.46-12.11Q312.46-18.77 315.88-22.19 319.29-25.61 324.96-25.61L324.96-25.61Q328.64-25.61 331.2-24.29 333.75-22.97 335.08-20.65 336.41-18.33 336.41-15.36L336.41-15.36Q336.41-12.45 334.92-11.3 333.43-10.16 330.57-10.16L330.57-10.16 320.1-10.16Q320.29-7.64 321.94-6.32 323.59-5 326.42-5L326.42-5Q328.67-5 330.02-5.68 331.38-6.35 331.92-6.74L331.92-6.74Q332.38-7.08 332.97-7.06L332.97-7.06Q333.43-7.06 334.3-6.87 335.16-6.69 336.02-6.2L336.02-6.2Q336.63-5.88 336.63-5.32L336.63-5.32Q336.63-5 336.51-4.42L336.51-4.42Q336.43-4.08 336.26-3.43 336.09-2.78 335.82-2.22L335.82-2.22Q335.68-1.95 335.36-1.71L335.36-1.71Q334.87-1.37 333.78-0.81 332.7-0.24 330.82 0.18 328.94 0.61 326.06 0.61ZM320.05-15.16L320.05-15.16 328.01-15.16Q329.25-15.16 329.25-16.31L329.25-16.31Q329.25-18.04 328.17-19.23 327.08-20.41 324.91-20.41L324.91-20.41Q322.54-20.41 321.43-18.9 320.32-17.38 320.05-15.16ZM346.38 7.1L341.57 5.18Q342.38 3.49 343.04 0.56 343.7-2.37 343.7-5.62L343.7-5.62 343.7-7.74Q343.7-8.42 344.5-8.42L344.5-8.42 350.14-8.42Q350.97-8.42 350.97-7.52L350.97-7.52Q350.97-2.42 349.51 1.25 348.04 4.91 346.38 7.1L346.38 7.1ZM390.03-5.98L390.03-5.98Q391.82-5.98 392.83-6.35 393.84-6.71 394.4-7.25 394.97-7.79 395.38-8.33L395.38-8.33Q395.77-8.81 396.03-9.06 396.28-9.3 396.75-9.4L396.75-9.4Q397.14-9.52 398.01-9.56 398.87-9.59 399.74-9.59 400.61-9.59 400.95-9.55L400.95-9.55Q401.46-9.52 401.66-9.35L401.66-9.35Q401.85-9.18 401.9-8.62L401.9-8.62Q401.97-7.84 401.99-6.76 402-5.69 401.95-4.91L401.95-4.91Q401.92-4.66 401.86-4.49 401.8-4.32 401.61-3.98L401.61-3.98Q401.36-3.59 400.65-2.84 399.95-2.1 398.58-1.31 397.21-0.51 395.05 0.05 392.89 0.61 389.74 0.61L389.74 0.61Q386.37 0.61 383.44-0.26 380.51-1.12 378.3-3.17 376.09-5.22 374.86-8.72 373.63-12.21 373.63-17.43L373.63-17.43Q373.63-23.24 375.64-27.31 377.66-31.37 381.37-33.5 385.08-35.62 390.16-35.62L390.16-35.62Q393.72-35.62 395.88-34.89 398.04-34.16 399.17-33.17 400.29-32.18 400.75-31.45L400.75-31.45Q400.92-31.18 401-30.97 401.07-30.76 401.09-30.32L401.09-30.32Q401.17-29.74 401.13-28.61 401.09-27.49 400.95-26.64L400.95-26.64Q400.85-26.1 400.63-25.93L400.63-25.93Q400.53-25.83 400.29-25.76 400.04-25.68 399.56-25.68L399.56-25.68Q398.77-25.68 397.8-25.74 396.82-25.81 396.33-25.88L396.33-25.88Q395.75-25.98 395.48-26.16 395.21-26.34 394.94-26.73L394.94-26.73Q394.5-27.37 393.43-28.2 392.35-29.03 389.89-29.03L389.89-29.03Q386.42-29.03 384.18-26.35 381.93-23.68 381.93-17.7L381.93-17.7Q381.93-11.74 384.29-8.86 386.64-5.98 390.03-5.98ZM416.34-16.46L416.34-1.29Q416.34-0.56 416.04-0.28 415.73 0 415 0L415 0 409.97 0Q409.24 0 408.93-0.28 408.63-0.56 408.63-1.29L408.63-1.29 408.63-34.33Q408.63-34.91 408.87-35.23L408.87-35.23Q409.9-36.57 411.87-38.13L411.87-38.13Q412.22-38.38 412.48-38.38L412.48-38.38Q412.8-38.38 413.09-38.13L413.09-38.13Q414.14-37.33 414.86-36.62 415.58-35.91 416.1-35.23L416.1-35.23Q416.34-34.91 416.34-34.33L416.34-34.33 416.34-22.49 416.44-22.49Q416.98-23.19 417.83-23.91 418.69-24.63 420.11-25.12 421.54-25.61 423.76-25.61L423.76-25.61Q426.01-25.61 428.08-24.68 430.16-23.75 431.48-21.56 432.8-19.36 432.8-15.55L432.8-15.55 432.8-1.29Q432.8-0.56 432.49-0.28 432.19 0 431.45 0L431.45 0 426.42 0Q425.69 0 425.39-0.28 425.08-0.56 425.08-1.29L425.08-1.29 425.08-14.21Q425.08-16.92 423.96-18.15 422.84-19.38 420.91-19.38L420.91-19.38Q419-19.38 417.95-18.55 416.9-17.72 416.34-16.46L416.34-16.46ZM447.73 0.61L447.73 0.61Q444.14 0.61 442.03-1.4 439.91-3.42 439.91-6.96L439.91-6.96Q439.91-8.79 440.58-10.36 441.26-11.94 442.93-13.15 444.6-14.36 447.62-15.09 450.63-15.82 455.32-15.94L455.32-15.94Q455.32-18.16 454.21-19.14 453.1-20.12 450.88-20.12L450.88-20.12Q448.87-20.12 447.6-19.43 446.33-18.75 446.02-18.51L446.02-18.51Q445.68-18.21 445.19-18.29L445.19-18.29Q444.53-18.38 443.78-18.63 443.04-18.87 442.18-19.19L442.18-19.19Q442.06-19.24 441.92-19.35 441.77-19.46 441.74-19.68L441.74-19.68Q441.74-19.8 441.77-19.98 441.79-20.17 441.89-20.65L441.89-20.65Q441.99-21.14 442.18-21.86 442.38-22.58 442.55-22.97L442.55-22.97Q442.77-23.39 443.28-23.75L443.28-23.75Q443.7-24.1 445.8-24.85 447.9-25.61 451.88-25.61L451.88-25.61Q462.84-25.61 462.84-14.94L462.84-14.94 462.84-1.12Q462.84-0.66 462.58-0.33 462.33 0 461.72 0L461.72 0 458.05 0Q457.66 0 457.36-0.11 457.05-0.22 456.78-0.54L456.78-0.54 455.27-2.49 455.1-2.49Q453.98-0.85 452.08-0.12 450.19 0.61 447.73 0.61ZM450.41-5.05L450.41-5.05Q452.66-5.05 453.81-6.2 454.95-7.35 455.27-8.57L455.27-8.57 455.27-11.28Q451.88-11.28 450.18-10.75 448.48-10.23 447.92-9.39 447.36-8.54 447.36-7.57L447.36-7.57Q447.36-6.15 448.24-5.6 449.12-5.05 450.41-5.05ZM495.47-15.55L495.47-15.55 495.47-1.29Q495.47-0.56 495.16-0.28 494.86 0 494.13 0L494.13 0 489.1 0Q488.36 0 488.06-0.28 487.75-0.56 487.75-1.29L487.75-1.29 487.75-14.28Q487.75-16.94 486.63-18.16 485.51-19.38 483.58-19.38L483.58-19.38Q481.65-19.38 480.61-18.55 479.57-17.72 479.01-16.46L479.01-16.46 479.01-1.29Q479.01-0.56 478.71-0.28 478.4 0 477.67 0L477.67 0 472.64 0Q471.91 0 471.6-0.28 471.3-0.56 471.3-1.29L471.3-1.29 471.3-21.75Q471.3-22.34 471.54-22.66L471.54-22.66Q472.06-23.34 472.78-24.05 473.5-24.76 474.55-25.56L474.55-25.56Q474.86-25.81 475.16-25.81L475.16-25.81Q475.42-25.81 475.77-25.56L475.77-25.56Q476.79-24.76 477.52-24.02 478.26-23.29 478.82-22.51L478.82-22.51 478.94-22.51Q479.35-23.05 480.19-23.77 481.02-24.49 482.52-25.05 484.02-25.61 486.36-25.61L486.36-25.61Q488.66-25.61 490.73-24.68 492.81-23.75 494.14-21.56 495.47-19.36 495.47-15.55ZM528.1-22.66L528.1-22.66 528.1-2.86Q528.1 4.27 524.03 8.01 519.97 11.74 512.89 11.74L512.89 11.74Q509.96 11.74 508.25 11.32 506.54 10.89 505.66 10.5L505.66 10.5Q505.1 10.23 504.93 9.94L504.93 9.94Q504.69 9.55 504.38 8.79 504.07 8.03 503.81 7.13L503.81 7.13Q503.73 6.79 503.78 6.62L503.78 6.62Q503.88 6.37 504.15 6.1L504.15 6.1Q504.59 5.66 505.41 5.08 506.22 4.49 506.66 4.32L506.66 4.32Q507.13 4.15 507.52 4.37L507.52 4.37Q508.15 4.71 509.34 5.14 510.52 5.57 512.67 5.57L512.67 5.57Q516.09 5.57 518.23 3.81 520.38 2.05 520.38-1.61L520.38-1.61 520.38-2.49 520.29-2.49Q519.75-1.81 518.89-1.1 518.04-0.39 516.68 0.1 515.33 0.59 513.21 0.59L513.21 0.59Q509.52 0.59 507.16-1.01 504.81-2.61 503.7-5.42 502.59-8.23 502.59-11.82L502.59-11.82Q502.59-15.75 503.88-18.87 505.17-22 508.23-23.82 511.28-25.63 516.57-25.63L516.57-25.63Q519.75-25.63 521.91-25.17 524.07-24.71 525.53-24.02 527-23.34 528.1-22.66ZM516.31-19.73L516.31-19.73Q513.47-19.73 511.98-17.82 510.5-15.92 510.5-11.91L510.5-11.91Q510.5-5.64 515.67-5.64L515.67-5.64Q517.7-5.64 518.77-6.47 519.85-7.3 520.38-8.57L520.38-8.57 520.38-18.65Q519.85-19.04 518.87-19.38 517.89-19.73 516.31-19.73ZM548.81 0.61L548.81 0.61Q544.69 0.61 541.64-0.72 538.58-2.05 536.9-4.86 535.22-7.67 535.22-12.11L535.22-12.11Q535.22-18.77 538.63-22.19 542.05-25.61 547.72-25.61L547.72-25.61Q551.4-25.61 553.95-24.29 556.5-22.97 557.84-20.65 559.17-18.33 559.17-15.36L559.17-15.36Q559.17-12.45 557.68-11.3 556.19-10.16 553.33-10.16L553.33-10.16 542.86-10.16Q543.05-7.64 544.7-6.32 546.35-5 549.18-5L549.18-5Q551.43-5 552.78-5.68 554.14-6.35 554.67-6.74L554.67-6.74Q555.14-7.08 555.72-7.06L555.72-7.06Q556.19-7.06 557.05-6.87 557.92-6.69 558.77-6.2L558.77-6.2Q559.39-5.88 559.39-5.32L559.39-5.32Q559.39-5 559.26-4.42L559.26-4.42Q559.19-4.08 559.02-3.43 558.85-2.78 558.58-2.22L558.58-2.22Q558.43-1.95 558.12-1.71L558.12-1.71Q557.63-1.37 556.54-0.81 555.45-0.24 553.57 0.18 551.69 0.61 548.81 0.61ZM542.81-15.16L542.81-15.16 550.77-15.16Q552.01-15.16 552.01-16.31L552.01-16.31Q552.01-18.04 550.93-19.23 549.84-20.41 547.67-20.41L547.67-20.41Q545.3-20.41 544.19-18.9 543.08-17.38 542.81-15.16Z" opacity="1" transform="matrix(1,0,0,1,0,0)" fill="#ffffff" class="slogan-text-1" data-fill-palette-color="secondary" id="text-1"></path></svg></g></svg></g></svg></g></svg></g></svg></g></svg></g></svg></g><path d="M189.25 84.515L189.25 21.408 393.634 21.408 393.634 225.792 189.25 225.792 189.25 162.685 192.468 162.685 192.468 222.574 390.416 222.574 390.416 24.626 192.468 24.626 192.468 84.515Z" fill="#ffffff" stroke="transparent" data-fill-palette-color="tertiary"></path></svg></g><defs></defs></svg><rect width="395.52" height="247.2" fill="none" stroke="none" visibility="hidden"></rect></g></svg></g></svg>