<svg xmlns="http://www.w3.org/2000/svg" version="1.1" xmlns:xlink="http://www.w3.org/1999/xlink" xmlns:svgjs="http://svgjs.dev/svgjs" width="1500" height="939" viewBox="0 0 1500 939"><g transform="matrix(1,0,0,1,-0.9090909090909918,-1.5145161290323017)"><svg viewBox="0 0 396 248" data-background-color="#ffffff" preserveAspectRatio="xMidYMid meet" height="939" width="1500" xmlns="http://www.w3.org/2000/svg" xmlns:xlink="http://www.w3.org/1999/xlink"><g id="tight-bounds" transform="matrix(1,0,0,1,0.2400000000000091,0.4000000000000057)"><svg viewBox="0 0 395.52 247.2" height="247.2" width="395.52"><g><svg></svg></g><g><svg viewBox="0 0 395.52 247.2" height="247.2" width="395.52"><g transform="matrix(1,0,0,1,75.54432,92.4015712745761)"><svg viewBox="0 0 244.43135999999998 62.3968574508478" height="62.3968574508478" width="244.43135999999998"><g><svg viewBox="0 0 244.43135999999998 62.3968574508478" height="62.3968574508478" width="244.43135999999998"><g><svg viewBox="0 0 244.43135999999998 62.3968574508478" height="62.3968574508478" width="244.43135999999998"><g><svg viewBox="0 0 244.43135999999998 62.3968574508478" height="62.3968574508478" width="244.43135999999998"><g id="textblocktransform"><svg viewBox="0 0 244.43135999999998 62.3968574508478" height="62.3968574508478" width="244.43135999999998" id="textblock"><g><svg viewBox="0 0 244.43135999999998 33.65388336338305" height="33.65388336338305" width="244.43135999999998"><g transform="matrix(1,0,0,1,0,0)"><svg width="244.43135999999998" viewBox="1.95 -31.74 297.87 41.019999999999996" height="33.65388336338305" data-palette-color="#43b9b2"><path d="M15.58-29.3L1.95-29.3 1.95-28.03 5.86-28.03 5.86-1.27 1.95-1.27 1.95 0 15.43 0Q22.02 0 26.27-4.1L26.27-4.1Q30.47-8.15 30.47-14.65L30.47-14.65Q30.47-23.05 24.32-26.95L24.32-26.95Q20.56-29.3 15.58-29.3L15.58-29.3ZM10.06-28.03L15.43-28.03Q23.14-28.03 25.05-21L25.05-21Q25.78-18.41 25.78-14.84L25.78-14.84Q25.78-2.69 17.48-1.42L17.48-1.42Q16.55-1.27 15.58-1.27L15.58-1.27 10.06-1.27 10.06-28.03ZM44.63-1.22L44.63-1.22 42.19-1.22 42.19-20.75 34.62-20.75 34.62-19.53 38.52-19.53 38.52-4.15Q38.52-1.9 37.01-1.42L37.01-1.42Q36.28-1.22 34.62-1.22L34.62-1.22 34.62 0 45.85 0Q45.85-1.07 45.11-1.17L45.11-1.17Q44.87-1.22 44.63-1.22ZM42.77-27.88L42.77-27.88Q42.77-29.59 41.26-30.32L41.26-30.32Q40.67-30.57 40.13-30.57L40.13-30.57Q38.43-30.57 37.69-29L37.69-29Q37.45-28.47 37.45-27.88L37.45-27.88Q37.45-26.07 39.06-25.39L39.06-25.39Q39.6-25.2 40.13-25.2L40.13-25.2Q41.84-25.2 42.53-26.76L42.53-26.76Q42.77-27.29 42.77-27.88ZM53.66-13.53L53.66-13.53Q53.75-19.97 58.54-20.02L58.54-20.02Q63.33-19.92 63.37-13.53L63.37-13.53Q63.28-6.88 58.54-6.84L58.54-6.84Q53.71-6.93 53.66-13.53ZM58.59-21.24L58.59-21.24Q54.19-21.24 51.61-18.41L51.61-18.41Q49.75-16.31 49.75-13.48L49.75-13.48Q49.75-9.77 53.36-7.32L53.36-7.32Q53.71-7.08 54.05-6.88L54.05-6.88Q50.92-6.88 50.14-4.2L50.14-4.2Q50-3.56 50-2.93L50-2.93Q50.04-0.34 52.09 0.93L52.09 0.93Q50.48 2.64 50.48 4.39L50.48 4.39Q50.48 7.08 53.66 8.4L53.66 8.4Q55.66 9.28 58.59 9.28L58.59 9.28Q66.01 9.28 68.4 5.66L68.4 5.66Q69.18 4.44 69.18 3.08L69.18 3.08Q69.18-1.12 64.35-1.76L64.35-1.76Q63.72-1.86 63.03-1.86L63.03-1.86 54.15-2.05Q51.9-2.2 51.85-4L51.85-4Q51.85-5.27 53.46-5.62L53.46-5.62Q53.8-5.66 54.19-5.66L54.19-5.66 58.49-5.62Q62.84-5.62 65.42-8.54L65.42-8.54Q67.28-10.64 67.28-13.53L67.28-13.53Q67.23-17.19 64.45-19.38L64.45-19.38Q64.89-20.95 66.11-21.24L66.11-21.24Q66.3-21.29 66.5-21.29L66.5-21.29Q67.18-21.29 67.96-20.56L67.96-20.56Q68.5-20.07 68.94-20.07L68.94-20.07Q70.16-20.36 70.36-21.63L70.36-21.63Q70.36-23.14 68.94-23.68L68.94-23.68Q68.4-23.88 67.87-23.88L67.87-23.88Q65.57-23.88 64.16-21.83L64.16-21.83Q63.62-21.04 63.33-20.12L63.33-20.12Q61.13-21.24 58.59-21.24ZM58.59 8.01L58.59 8.01Q53.75 8.01 52.49 5.47L52.49 5.47Q52.14 4.79 52.14 4.1L52.14 4.1Q52.19 2.78 53.32 1.46L53.32 1.46Q54.29 1.66 54.93 1.66L54.93 1.66 62.45 1.76Q66.11 1.81 66.69 3.42L66.69 3.42Q66.84 3.81 66.84 4.39L66.84 4.39Q66.84 6.54 62.84 7.52L62.84 7.52Q60.88 8.01 58.59 8.01ZM82.27-1.22L82.27-1.22 79.83-1.22 79.83-20.75 72.26-20.75 72.26-19.53 76.16-19.53 76.16-4.15Q76.16-1.9 74.65-1.42L74.65-1.42Q73.92-1.22 72.26-1.22L72.26-1.22 72.26 0 83.49 0Q83.49-1.07 82.76-1.17L82.76-1.17Q82.51-1.22 82.27-1.22ZM80.41-27.88L80.41-27.88Q80.41-29.59 78.9-30.32L78.9-30.32Q78.31-30.57 77.78-30.57L77.78-30.57Q76.07-30.57 75.33-29L75.33-29Q75.09-28.47 75.09-27.88L75.09-27.88Q75.09-26.07 76.7-25.39L76.7-25.39Q77.24-25.2 77.78-25.2L77.78-25.2Q79.48-25.2 80.17-26.76L80.17-26.76Q80.41-27.29 80.41-27.88ZM85.93-20.75L85.93-19.53 89.35-19.53 89.35-5.76Q89.69 0.34 94.96 0.54L94.96 0.54Q99.45 0.54 100.58-4.98L100.58-4.98Q100.58-5.03 100.58-5.08L100.58-5.08 99.26-5.32Q98.04-1.27 95.69-0.93L95.69-0.93Q93.06-1.03 93.01-4.69L93.01-4.69 93.01-19.53 100.58-19.53 100.58-20.75 93.01-20.75 93.01-26.42 89.35-25.39 89.35-20.75 85.93-20.75ZM119.91 0.49L119.91 0.49Q123.67 0.49 124.06-4.05L124.06-4.05Q124.11-4.35 124.11-4.59L124.11-4.59 122.84-4.64Q122.5-1.07 120.93-1.03L120.93-1.03Q119.67-1.12 119.62-3.56L119.62-3.56 119.62-13.87Q119.62-20.85 112.63-21.24L112.63-21.24Q112.19-21.24 111.76-21.24L111.76-21.24Q106.29-21.24 104.43-18.7L104.43-18.7Q103.84-17.87 103.84-17.04L103.84-17.04Q103.84-15.53 105.26-15.28L105.26-15.28Q105.51-15.23 105.75-15.23L105.75-15.23Q106.87-15.23 107.41-16.65L107.41-16.65Q108.09-18.46 108.34-18.8L108.34-18.8Q109.26-20.02 111.22-20.02L111.22-20.02Q115.81-19.73 115.95-14.99L115.95-14.99 115.95-11.91Q104.48-11.91 102.82-7.13L102.82-7.13Q102.53-6.2 102.53-5.13L102.53-5.13Q102.53-1.42 105.8-0.05L105.8-0.05Q107.12 0.49 108.58 0.49L108.58 0.49Q112.15 0.49 114.59-1.95L114.59-1.95Q115.47-2.88 115.91-3.91L115.91-3.91Q116.49 0.44 119.91 0.49ZM110.19-1.46L110.19-1.46Q107.21-1.46 106.53-4.44L106.53-4.44Q106.38-5.13 106.38-5.96L106.38-5.96Q106.38-9.23 110.14-10.11L110.14-10.11Q112.15-10.55 115.95-10.6L115.95-10.6 115.95-6.69Q115.22-3.32 112.39-1.95L112.39-1.95Q111.27-1.46 110.19-1.46ZM135.92-1.22L135.92-1.22 133.29-1.22 133.29-31.74 125.96-31.74 125.96-30.52 129.62-30.52 129.62-4.15Q129.62-1.9 128.35-1.46L128.35-1.46Q127.62-1.22 125.96-1.22L125.96-1.22 125.96 0 137.14 0Q137.14-1.07 136.41-1.17L136.41-1.17Q136.22-1.22 135.92-1.22ZM186.11-28.03L186.11-29.3 178.3-29.3 167.75-5.42 156.43-29.3 149.44-29.3 149.44-28.03 153.35-28.03 153.35-1.27 149.44-1.27 149.44 0 159.21 0Q159.21-1.07 158.43-1.22L158.43-1.22Q158.18-1.27 157.94-1.27L157.94-1.27 155.3-1.27 155.3-22.27 166 0.24 167.02 0.24 178.3-24.9 178.3-1.27 174.39-1.27 174.39 0 186.11 0Q186.11-1.07 185.33-1.22L185.33-1.22Q185.09-1.27 184.84-1.27L184.84-1.27 182.21-1.27 182.21-28.03 186.11-28.03ZM206.67 0.49L206.67 0.49Q210.43 0.49 210.82-4.05L210.82-4.05Q210.87-4.35 210.87-4.59L210.87-4.59 209.6-4.64Q209.25-1.07 207.69-1.03L207.69-1.03Q206.42-1.12 206.37-3.56L206.37-3.56 206.37-13.87Q206.37-20.85 199.39-21.24L199.39-21.24Q198.95-21.24 198.51-21.24L198.51-21.24Q193.04-21.24 191.19-18.7L191.19-18.7Q190.6-17.87 190.6-17.04L190.6-17.04Q190.6-15.53 192.02-15.28L192.02-15.28Q192.26-15.23 192.51-15.23L192.51-15.23Q193.63-15.23 194.17-16.65L194.17-16.65Q194.85-18.46 195.09-18.8L195.09-18.8Q196.02-20.02 197.98-20.02L197.98-20.02Q202.57-19.73 202.71-14.99L202.71-14.99 202.71-11.91Q191.24-11.91 189.58-7.13L189.58-7.13Q189.28-6.2 189.28-5.13L189.28-5.13Q189.28-1.42 192.56-0.05L192.56-0.05Q193.87 0.49 195.34 0.49L195.34 0.49Q198.9 0.49 201.34-1.95L201.34-1.95Q202.22-2.88 202.66-3.91L202.66-3.91Q203.25 0.44 206.67 0.49ZM196.95-1.46L196.95-1.46Q193.97-1.46 193.29-4.44L193.29-4.44Q193.14-5.13 193.14-5.96L193.14-5.96Q193.14-9.23 196.9-10.11L196.9-10.11Q198.9-10.55 202.71-10.6L202.71-10.6 202.71-6.69Q201.98-3.32 199.15-1.95L199.15-1.95Q198.02-1.46 196.95-1.46ZM222.14-1.22L222.14-1.22 219.95-1.22 219.95-8.45 222.63-10.94 229.52 0 236.01 0Q236.01-1.07 235.28-1.17L235.28-1.17Q235.08-1.22 234.79-1.22L234.79-1.22 233.03-1.22 225.17-13.33 229.76-17.63Q231.47-19.24 232.35-19.43L232.35-19.43Q232.74-19.53 233.23-19.53L233.23-19.53Q234.3-19.53 234.4-20.26L234.4-20.26Q234.45-20.51 234.45-20.75L234.45-20.75 226.15-20.75 226.15-19.53 229.81-19.53 219.95-10.4 219.95-31.74 212.62-31.74 212.62-30.52 216.28-30.52 216.28-4.15Q216.28-1.9 215.01-1.46L215.01-1.46Q214.28-1.22 212.62-1.22L212.62-1.22 212.62 0 223.36 0Q223.36-1.07 222.63-1.17L222.63-1.17Q222.44-1.22 222.14-1.22ZM236.5-20.75L236.5-19.53 239.91-19.53 239.91-5.76Q240.26 0.34 245.53 0.54L245.53 0.54Q250.02 0.54 251.14-4.98L251.14-4.98Q251.14-5.03 251.14-5.08L251.14-5.08 249.83-5.32Q248.61-1.27 246.26-0.93L246.26-0.93Q243.62-1.03 243.58-4.69L243.58-4.69 243.58-19.53 251.14-19.53 251.14-20.75 243.58-20.75 243.58-26.42 239.91-25.39 239.91-20.75 236.5-20.75ZM270.48 0.49L270.48 0.49Q274.24 0.49 274.63-4.05L274.63-4.05Q274.68-4.35 274.68-4.59L274.68-4.59 273.41-4.64Q273.07-1.07 271.5-1.03L271.5-1.03Q270.23-1.12 270.18-3.56L270.18-3.56 270.18-13.87Q270.18-20.85 263.2-21.24L263.2-21.24Q262.76-21.24 262.32-21.24L262.32-21.24Q256.85-21.24 255-18.7L255-18.7Q254.41-17.87 254.41-17.04L254.41-17.04Q254.41-15.53 255.83-15.28L255.83-15.28Q256.07-15.23 256.32-15.23L256.32-15.23Q257.44-15.23 257.98-16.65L257.98-16.65Q258.66-18.46 258.91-18.8L258.91-18.8Q259.83-20.02 261.79-20.02L261.79-20.02Q266.38-19.73 266.52-14.99L266.52-14.99 266.52-11.91Q255.05-11.91 253.39-7.13L253.39-7.13Q253.1-6.2 253.1-5.13L253.1-5.13Q253.1-1.42 256.37-0.05L256.37-0.05Q257.68 0.49 259.15 0.49L259.15 0.49Q262.71 0.49 265.16-1.95L265.16-1.95Q266.03-2.88 266.47-3.91L266.47-3.91Q267.06 0.44 270.48 0.49ZM260.76-1.46L260.76-1.46Q257.78-1.46 257.1-4.44L257.1-4.44Q256.95-5.13 256.95-5.96L256.95-5.96Q256.95-9.23 260.71-10.11L260.71-10.11Q262.71-10.55 266.52-10.6L266.52-10.6 266.52-6.69Q265.79-3.32 262.96-1.95L262.96-1.95Q261.84-1.46 260.76-1.46ZM289.86 0.49L289.86 0.49Q294.16 0.49 297.09-2.73L297.09-2.73Q299.82-5.86 299.82-10.64L299.82-10.64Q299.82-16.02 296.89-19.04L296.89-19.04Q294.69-21.24 291.47-21.24L291.47-21.24Q286.15-21.24 283.9-16.46L283.9-16.46Q283.66-16.02 283.51-15.58L283.51-15.58 283.51-31.74 276.19-31.74 276.19-30.52 279.85-30.52 279.85-4.15Q279.85-1.9 278.58-1.46L278.58-1.46Q277.85-1.22 276.19-1.22L276.19-1.22 276.19 0 282.34 0 282.78-3.22Q284.88 0.15 289.13 0.44L289.13 0.44Q289.52 0.49 289.86 0.49ZM289.96-19.29L289.96-19.29Q293.96-19.29 295.18-14.4L295.18-14.4Q295.67-12.6 295.67-10.3L295.67-10.3Q295.67-3.42 291.96-1.37L291.96-1.37Q290.79-0.73 289.37-0.73L289.37-0.73Q285.71-0.73 284.2-4.64L284.2-4.64Q283.46-6.69 283.46-9.38L283.46-9.38Q283.46-15.28 286.39-17.92L286.39-17.92Q287.96-19.29 289.96-19.29Z" opacity="1" transform="matrix(1,0,0,1,0,0)" fill="#43b9b2" class="wordmark-text-0" data-fill-palette-color="primary" id="text-0"></path></svg></g></svg></g><g transform="matrix(1,0,0,1,0,41.59875753227707)"><svg viewBox="0 0 244.43135999999998 20.798099918570728" height="20.798099918570728" width="244.43135999999998"><g transform="matrix(1,0,0,1,0,0)"><svg width="244.43135999999998" viewBox="3.91 -38.38 589.0600000000001 50.120000000000005" height="20.798099918570728" data-palette-color="#ffffff"><path d="M22.07 0L9.94 0Q7.42 0 6.12-0.63 4.81-1.27 4.36-2.71 3.91-4.15 3.91-6.54L3.91-6.54 3.91-31.1Q3.91-31.81 4.15-32.18L4.15-32.18Q5.25-33.79 7.23-35.57L7.23-35.57Q7.59-35.86 7.86-35.86L7.86-35.86Q8.15-35.86 8.47-35.57L8.47-35.57Q9.55-34.64 10.28-33.8 11.01-32.96 11.55-32.18L11.55-32.18Q11.79-31.79 11.79-31.1L11.79-31.1 11.79-9.45Q11.79-7.81 12.38-7.1 12.96-6.4 14.58-6.4L14.58-6.4 22.07-6.42Q22.66-6.42 22.95-6.23L22.95-6.23Q23.58-5.79 24.27-5.18 24.95-4.57 25.71-3.71L25.71-3.71Q25.95-3.39 25.95-3.2L25.95-3.2Q25.95-2.98 25.71-2.71L25.71-2.71Q24.95-1.86 24.27-1.25 23.58-0.63 22.95-0.2L22.95-0.2Q22.61 0 22.07 0L22.07 0ZM44.56 0.61L44.56 0.61Q40.44 0.61 37.39-0.72 34.33-2.05 32.65-4.86 30.96-7.67 30.96-12.11L30.96-12.11Q30.96-18.77 34.38-22.19 37.8-25.61 43.46-25.61L43.46-25.61Q47.15-25.61 49.7-24.29 52.25-22.97 53.58-20.65 54.91-18.33 54.91-15.36L54.91-15.36Q54.91-12.45 53.43-11.3 51.94-10.16 49.08-10.16L49.08-10.16 38.61-10.16Q38.8-7.64 40.45-6.32 42.1-5 44.93-5L44.93-5Q47.18-5 48.53-5.68 49.89-6.35 50.42-6.74L50.42-6.74Q50.89-7.08 51.47-7.06L51.47-7.06Q51.94-7.06 52.8-6.87 53.67-6.69 54.52-6.2L54.52-6.2Q55.13-5.88 55.13-5.32L55.13-5.32Q55.13-5 55.01-4.42L55.01-4.42Q54.94-4.08 54.77-3.43 54.6-2.78 54.33-2.22L54.33-2.22Q54.18-1.95 53.86-1.71L53.86-1.71Q53.38-1.37 52.29-0.81 51.2-0.24 49.32 0.18 47.44 0.61 44.56 0.61ZM38.56-15.16L38.56-15.16 46.52-15.16Q47.76-15.16 47.76-16.31L47.76-16.31Q47.76-18.04 46.67-19.23 45.59-20.41 43.42-20.41L43.42-20.41Q41.05-20.41 39.94-18.9 38.83-17.38 38.56-15.16ZM70.3 0.61L70.3 0.61Q66.71 0.61 64.6-1.4 62.49-3.42 62.49-6.96L62.49-6.96Q62.49-8.79 63.16-10.36 63.83-11.94 65.51-13.15 67.18-14.36 70.19-15.09 73.21-15.82 77.9-15.94L77.9-15.94Q77.9-18.16 76.78-19.14 75.67-20.12 73.45-20.12L73.45-20.12Q71.45-20.12 70.18-19.43 68.91-18.75 68.59-18.51L68.59-18.51Q68.25-18.21 67.76-18.29L67.76-18.29Q67.1-18.38 66.36-18.63 65.62-18.87 64.76-19.19L64.76-19.19Q64.64-19.24 64.49-19.35 64.35-19.46 64.32-19.68L64.32-19.68Q64.32-19.8 64.35-19.98 64.37-20.17 64.47-20.65L64.47-20.65Q64.57-21.14 64.76-21.86 64.96-22.58 65.13-22.97L65.13-22.97Q65.35-23.39 65.86-23.75L65.86-23.75Q66.27-24.1 68.37-24.85 70.47-25.61 74.45-25.61L74.45-25.61Q85.42-25.61 85.42-14.94L85.42-14.94 85.42-1.12Q85.42-0.66 85.16-0.33 84.9 0 84.29 0L84.29 0 80.63 0Q80.24 0 79.93-0.11 79.63-0.22 79.36-0.54L79.36-0.54 77.85-2.49 77.68-2.49Q76.55-0.85 74.66-0.12 72.77 0.61 70.3 0.61ZM72.99-5.05L72.99-5.05Q75.23-5.05 76.38-6.2 77.53-7.35 77.85-8.57L77.85-8.57 77.85-11.28Q74.45-11.28 72.76-10.75 71.06-10.23 70.5-9.39 69.94-8.54 69.94-7.57L69.94-7.57Q69.94-6.15 70.82-5.6 71.69-5.05 72.99-5.05ZM103.27-22.17L103.27-20.36 103.37-20.36Q105.2-25.44 109.96-25.44L109.96-25.44Q110.57-25.44 110.96-25.38 111.35-25.32 111.5-25.27L111.5-25.27Q111.86-25.15 111.86-24.71L111.86-24.71 111.86-18.82Q111.86-18.07 110.98-18.41L110.98-18.41Q110.69-18.53 110.14-18.66 109.59-18.8 108.62-18.8L108.62-18.8Q106.1-18.8 104.69-16.96 103.27-15.11 103.27-11.94L103.27-11.94 103.27-1.29Q103.27-0.56 102.96-0.28 102.66 0 101.93 0L101.93 0 96.9 0Q96.16 0 95.86-0.28 95.55-0.56 95.55-1.29L95.55-1.29 95.55-21.75Q95.55-22.34 95.8-22.66L95.8-22.66Q96.31-23.34 97.03-24.05 97.75-24.76 98.8-25.56L98.8-25.56Q99-25.71 99.19-25.76 99.39-25.81 99.53-25.81L99.53-25.81Q99.88-25.81 100.22-25.56L100.22-25.56Q102.24-23.97 103.05-22.85L103.05-22.85Q103.27-22.56 103.27-22.17L103.27-22.17ZM143.22-15.55L143.22-15.55 143.22-1.29Q143.22-0.56 142.91-0.28 142.61 0 141.88 0L141.88 0 136.85 0Q136.11 0 135.81-0.28 135.5-0.56 135.5-1.29L135.5-1.29 135.5-14.28Q135.5-16.94 134.38-18.16 133.26-19.38 131.33-19.38L131.33-19.38Q129.4-19.38 128.36-18.55 127.32-17.72 126.76-16.46L126.76-16.46 126.76-1.29Q126.76-0.56 126.46-0.28 126.15 0 125.42 0L125.42 0 120.39 0Q119.66 0 119.35-0.28 119.05-0.56 119.05-1.29L119.05-1.29 119.05-21.75Q119.05-22.34 119.29-22.66L119.29-22.66Q119.8-23.34 120.53-24.05 121.25-24.76 122.3-25.56L122.3-25.56Q122.61-25.81 122.91-25.81L122.91-25.81Q123.17-25.81 123.52-25.56L123.52-25.56Q124.54-24.76 125.27-24.02 126.01-23.29 126.57-22.51L126.57-22.51 126.69-22.51Q127.1-23.05 127.93-23.77 128.76-24.49 130.27-25.05 131.77-25.61 134.11-25.61L134.11-25.61Q136.41-25.61 138.48-24.68 140.56-23.75 141.89-21.56 143.22-19.36 143.22-15.55ZM156.09 7.1L151.28 5.18Q152.09 3.49 152.75 0.56 153.41-2.37 153.41-5.62L153.41-5.62 153.41-7.74Q153.41-8.42 154.21-8.42L154.21-8.42 159.85-8.42Q160.68-8.42 160.68-7.52L160.68-7.52Q160.68-2.42 159.22 1.25 157.75 4.91 156.09 7.1L156.09 7.1ZM203.1-5.98L203.1-5.98Q204.89-5.98 205.9-6.35 206.91-6.71 207.47-7.25 208.04-7.79 208.45-8.33L208.45-8.33Q208.84-8.81 209.1-9.06 209.35-9.3 209.82-9.4L209.82-9.4Q210.21-9.52 211.07-9.56 211.94-9.59 212.81-9.59 213.67-9.59 214.02-9.55L214.02-9.55Q214.53-9.52 214.72-9.35L214.72-9.35Q214.92-9.18 214.97-8.62L214.97-8.62Q215.04-7.84 215.05-6.76 215.07-5.69 215.02-4.91L215.02-4.91Q214.99-4.66 214.93-4.49 214.87-4.32 214.68-3.98L214.68-3.98Q214.43-3.59 213.72-2.84 213.02-2.1 211.65-1.31 210.28-0.51 208.12 0.05 205.96 0.61 202.81 0.61L202.81 0.61Q199.44 0.61 196.51-0.26 193.58-1.12 191.37-3.17 189.16-5.22 187.93-8.72 186.7-12.21 186.7-17.43L186.7-17.43Q186.7-23.24 188.71-27.31 190.73-31.37 194.44-33.5 198.15-35.62 203.23-35.62L203.23-35.62Q206.79-35.62 208.95-34.89 211.11-34.16 212.23-33.17 213.36-32.18 213.82-31.45L213.82-31.45Q213.99-31.18 214.07-30.97 214.14-30.76 214.16-30.32L214.16-30.32Q214.24-29.74 214.2-28.61 214.16-27.49 214.02-26.64L214.02-26.64Q213.92-26.1 213.7-25.93L213.7-25.93Q213.6-25.83 213.36-25.76 213.11-25.68 212.62-25.68L212.62-25.68Q211.84-25.68 210.87-25.74 209.89-25.81 209.4-25.88L209.4-25.88Q208.82-25.98 208.55-26.16 208.28-26.34 208.01-26.73L208.01-26.73Q207.57-27.37 206.5-28.2 205.42-29.03 202.96-29.03L202.96-29.03Q199.49-29.03 197.24-26.35 195-23.68 195-17.7L195-17.7Q195-11.74 197.35-8.86 199.71-5.98 203.1-5.98ZM231.09-22.17L231.09-20.36 231.19-20.36Q233.02-25.44 237.78-25.44L237.78-25.44Q238.39-25.44 238.78-25.38 239.17-25.32 239.32-25.27L239.32-25.27Q239.68-25.15 239.68-24.71L239.68-24.71 239.68-18.82Q239.68-18.07 238.8-18.41L238.8-18.41Q238.51-18.53 237.96-18.66 237.41-18.8 236.44-18.8L236.44-18.8Q233.92-18.8 232.51-16.96 231.09-15.11 231.09-11.94L231.09-11.94 231.09-1.29Q231.09-0.56 230.78-0.28 230.48 0 229.75 0L229.75 0 224.72 0Q223.98 0 223.68-0.28 223.37-0.56 223.37-1.29L223.37-1.29 223.37-21.75Q223.37-22.34 223.62-22.66L223.62-22.66Q224.13-23.34 224.85-24.05 225.57-24.76 226.62-25.56L226.62-25.56Q226.82-25.71 227.01-25.76 227.21-25.81 227.35-25.81L227.35-25.81Q227.7-25.81 228.04-25.56L228.04-25.56Q230.06-23.97 230.87-22.85L230.87-22.85Q231.09-22.56 231.09-22.17L231.09-22.17ZM259.12 0.61L259.12 0.61Q255 0.61 251.95-0.72 248.89-2.05 247.21-4.86 245.53-7.67 245.53-12.11L245.53-12.11Q245.53-18.77 248.94-22.19 252.36-25.61 258.03-25.61L258.03-25.61Q261.71-25.61 264.26-24.29 266.81-22.97 268.15-20.65 269.48-18.33 269.48-15.36L269.48-15.36Q269.48-12.45 267.99-11.3 266.5-10.16 263.64-10.16L263.64-10.16 253.17-10.16Q253.36-7.64 255.01-6.32 256.66-5 259.49-5L259.49-5Q261.74-5 263.09-5.68 264.45-6.35 264.98-6.74L264.98-6.74Q265.45-7.08 266.03-7.06L266.03-7.06Q266.5-7.06 267.36-6.87 268.23-6.69 269.09-6.2L269.09-6.2Q269.7-5.88 269.7-5.32L269.7-5.32Q269.7-5 269.57-4.42L269.57-4.42Q269.5-4.08 269.33-3.43 269.16-2.78 268.89-2.22L268.89-2.22Q268.74-1.95 268.43-1.71L268.43-1.71Q267.94-1.37 266.85-0.81 265.76-0.24 263.88 0.18 262 0.61 259.12 0.61ZM253.12-15.16L253.12-15.16 261.08-15.16Q262.32-15.16 262.32-16.31L262.32-16.31Q262.32-18.04 261.24-19.23 260.15-20.41 257.98-20.41L257.98-20.41Q255.61-20.41 254.5-18.9 253.39-17.38 253.12-15.16ZM284.86 0.61L284.86 0.61Q281.28 0.61 279.16-1.4 277.05-3.42 277.05-6.96L277.05-6.96Q277.05-8.79 277.72-10.36 278.39-11.94 280.07-13.15 281.74-14.36 284.75-15.09 287.77-15.82 292.46-15.94L292.46-15.94Q292.46-18.16 291.35-19.14 290.23-20.12 288.01-20.12L288.01-20.12Q286.01-20.12 284.74-19.43 283.47-18.75 283.15-18.51L283.15-18.51Q282.81-18.21 282.32-18.29L282.32-18.29Q281.67-18.38 280.92-18.63 280.18-18.87 279.32-19.19L279.32-19.19Q279.2-19.24 279.05-19.35 278.91-19.46 278.88-19.68L278.88-19.68Q278.88-19.8 278.91-19.98 278.93-20.17 279.03-20.65L279.03-20.65Q279.13-21.14 279.32-21.86 279.52-22.58 279.69-22.97L279.69-22.97Q279.91-23.39 280.42-23.75L280.42-23.75Q280.84-24.1 282.94-24.85 285.03-25.61 289.01-25.61L289.01-25.61Q299.98-25.61 299.98-14.94L299.98-14.94 299.98-1.12Q299.98-0.66 299.72-0.33 299.46 0 298.85 0L298.85 0 295.19 0Q294.8 0 294.5-0.11 294.19-0.22 293.92-0.54L293.92-0.54 292.41-2.49 292.24-2.49Q291.11-0.85 289.22-0.12 287.33 0.61 284.86 0.61ZM287.55-5.05L287.55-5.05Q289.8-5.05 290.94-6.2 292.09-7.35 292.41-8.57L292.41-8.57 292.41-11.28Q289.01-11.28 287.32-10.75 285.62-10.23 285.06-9.39 284.5-8.54 284.5-7.57L284.5-7.57Q284.5-6.15 285.38-5.6 286.26-5.05 287.55-5.05ZM320 0.61L320 0.61Q311.85 0.61 311.85-7.86L311.85-7.86 311.85-19.31 309.09-19.31Q308.36-19.31 308.08-19.62 307.8-19.92 307.8-20.65L307.8-20.65 307.8-23.66Q307.8-24.39 308.08-24.69 308.36-25 309.09-25L309.09-25 311.85-25 311.85-28.93Q311.85-29.52 312.09-29.83L312.09-29.83Q313.12-31.18 315.1-32.74L315.1-32.74Q315.44-32.98 315.71-32.98L315.71-32.98Q316-32.98 316.29-32.74L316.29-32.74Q317.34-31.93 318.06-31.23 318.78-30.52 319.3-29.83L319.3-29.83Q319.54-29.52 319.54-28.93L319.54-28.93 319.54-25 323.86-25Q324.59-25 324.87-24.69 325.15-24.39 325.15-23.66L325.15-23.66 325.15-20.65Q325.15-19.92 324.87-19.62 324.59-19.31 323.86-19.31L323.86-19.31 319.54-19.31 319.54-9.2Q319.54-5.3 322.37-5.3L322.37-5.3Q322.81-5.3 323.18-5.38 323.54-5.47 323.81-5.57L323.81-5.57Q324.32-5.76 324.53-5.71 324.74-5.66 324.91-5.18L324.91-5.18 326.33-1.39Q326.55-0.78 326.03-0.51L326.03-0.51Q325.67-0.34 324.26 0.13 322.86 0.61 320 0.61ZM346.21 0.61L346.21 0.61Q342.08 0.61 339.03-0.72 335.98-2.05 334.29-4.86 332.61-7.67 332.61-12.11L332.61-12.11Q332.61-18.77 336.03-22.19 339.44-25.61 345.11-25.61L345.11-25.61Q348.79-25.61 351.35-24.29 353.9-22.97 355.23-20.65 356.56-18.33 356.56-15.36L356.56-15.36Q356.56-12.45 355.07-11.3 353.58-10.16 350.72-10.16L350.72-10.16 340.25-10.16Q340.45-7.64 342.09-6.32 343.74-5 346.57-5L346.57-5Q348.82-5 350.17-5.68 351.53-6.35 352.07-6.74L352.07-6.74Q352.53-7.08 353.12-7.06L353.12-7.06Q353.58-7.06 354.45-6.87 355.31-6.69 356.17-6.2L356.17-6.2Q356.78-5.88 356.78-5.32L356.78-5.32Q356.78-5 356.66-4.42L356.66-4.42Q356.58-4.08 356.41-3.43 356.24-2.78 355.97-2.22L355.97-2.22Q355.83-1.95 355.51-1.71L355.51-1.71Q355.02-1.37 353.93-0.81 352.85-0.24 350.97 0.18 349.09 0.61 346.21 0.61ZM340.2-15.16L340.2-15.16 348.16-15.16Q349.41-15.16 349.41-16.31L349.41-16.31Q349.41-18.04 348.32-19.23 347.23-20.41 345.06-20.41L345.06-20.41Q342.69-20.41 341.58-18.9 340.47-17.38 340.2-15.16ZM368.21 7.1L363.4 5.18Q364.21 3.49 364.87 0.56 365.53-2.37 365.53-5.62L365.53-5.62 365.53-7.74Q365.53-8.42 366.33-8.42L366.33-8.42 371.97-8.42Q372.8-8.42 372.8-7.52L372.8-7.52Q372.8-2.42 371.34 1.25 369.87 4.91 368.21 7.1L368.21 7.1ZM415.22-5.98L415.22-5.98Q417.01-5.98 418.02-6.35 419.03-6.71 419.59-7.25 420.15-7.79 420.57-8.33L420.57-8.33Q420.96-8.81 421.22-9.06 421.47-9.3 421.94-9.4L421.94-9.4Q422.33-9.52 423.19-9.56 424.06-9.59 424.93-9.59 425.79-9.59 426.14-9.55L426.14-9.55Q426.65-9.52 426.84-9.35L426.84-9.35Q427.04-9.18 427.09-8.62L427.09-8.62Q427.16-7.84 427.17-6.76 427.19-5.69 427.14-4.91L427.14-4.91Q427.11-4.66 427.05-4.49 426.99-4.32 426.8-3.98L426.8-3.98Q426.55-3.59 425.84-2.84 425.14-2.1 423.77-1.31 422.4-0.51 420.24 0.05 418.08 0.61 414.93 0.61L414.93 0.61Q411.56 0.61 408.63-0.26 405.7-1.12 403.49-3.17 401.28-5.22 400.05-8.72 398.82-12.21 398.82-17.43L398.82-17.43Q398.82-23.24 400.83-27.31 402.85-31.37 406.56-33.5 410.27-35.62 415.35-35.62L415.35-35.62Q418.91-35.62 421.07-34.89 423.23-34.16 424.35-33.17 425.48-32.18 425.94-31.45L425.94-31.45Q426.11-31.18 426.18-30.97 426.26-30.76 426.28-30.32L426.28-30.32Q426.36-29.74 426.32-28.61 426.28-27.49 426.14-26.64L426.14-26.64Q426.04-26.1 425.82-25.93L425.82-25.93Q425.72-25.83 425.48-25.76 425.23-25.68 424.74-25.68L424.74-25.68Q423.96-25.68 422.99-25.74 422.01-25.81 421.52-25.88L421.52-25.88Q420.94-25.98 420.67-26.16 420.4-26.34 420.13-26.73L420.13-26.73Q419.69-27.37 418.62-28.2 417.54-29.03 415.08-29.03L415.08-29.03Q411.61-29.03 409.36-26.35 407.12-23.68 407.12-17.7L407.12-17.7Q407.12-11.74 409.47-8.86 411.83-5.98 415.22-5.98ZM443.21-16.46L443.21-1.29Q443.21-0.56 442.9-0.28 442.6 0 441.87 0L441.87 0 436.84 0Q436.1 0 435.8-0.28 435.49-0.56 435.49-1.29L435.49-1.29 435.49-34.33Q435.49-34.91 435.74-35.23L435.74-35.23Q436.76-36.57 438.74-38.13L438.74-38.13Q439.08-38.38 439.35-38.38L439.35-38.38Q439.67-38.38 439.96-38.13L439.96-38.13Q441.01-37.33 441.73-36.62 442.45-35.91 442.96-35.23L442.96-35.23Q443.21-34.91 443.21-34.33L443.21-34.33 443.21-22.49 443.31-22.49Q443.84-23.19 444.7-23.91 445.55-24.63 446.98-25.12 448.41-25.61 450.63-25.61L450.63-25.61Q452.88-25.61 454.95-24.68 457.03-23.75 458.35-21.56 459.66-19.36 459.66-15.55L459.66-15.55 459.66-1.29Q459.66-0.56 459.36-0.28 459.05 0 458.32 0L458.32 0 453.29 0Q452.56 0 452.25-0.28 451.95-0.56 451.95-1.29L451.95-1.29 451.95-14.21Q451.95-16.92 450.83-18.15 449.7-19.38 447.77-19.38L447.77-19.38Q445.87-19.38 444.82-18.55 443.77-17.72 443.21-16.46L443.21-16.46ZM476.27 0.61L476.27 0.61Q472.68 0.61 470.57-1.4 468.46-3.42 468.46-6.96L468.46-6.96Q468.46-8.79 469.13-10.36 469.8-11.94 471.48-13.15 473.15-14.36 476.16-15.09 479.18-15.82 483.87-15.94L483.87-15.94Q483.87-18.16 482.75-19.14 481.64-20.12 479.42-20.12L479.42-20.12Q477.42-20.12 476.15-19.43 474.88-18.75 474.56-18.51L474.56-18.51Q474.22-18.21 473.73-18.29L473.73-18.29Q473.07-18.38 472.33-18.63 471.59-18.87 470.73-19.19L470.73-19.19Q470.61-19.24 470.46-19.35 470.32-19.46 470.29-19.68L470.29-19.68Q470.29-19.8 470.32-19.98 470.34-20.17 470.44-20.65L470.44-20.65Q470.54-21.14 470.73-21.86 470.93-22.58 471.1-22.97L471.1-22.97Q471.32-23.39 471.83-23.75L471.83-23.75Q472.24-24.1 474.34-24.85 476.44-25.61 480.42-25.61L480.42-25.61Q491.39-25.61 491.39-14.94L491.39-14.94 491.39-1.12Q491.39-0.66 491.13-0.33 490.87 0 490.26 0L490.26 0 486.6 0Q486.21 0 485.9-0.11 485.6-0.22 485.33-0.54L485.33-0.54 483.82-2.49 483.65-2.49Q482.52-0.85 480.63-0.12 478.74 0.61 476.27 0.61ZM478.96-5.05L478.96-5.05Q481.2-5.05 482.35-6.2 483.5-7.35 483.82-8.57L483.82-8.57 483.82-11.28Q480.42-11.28 478.73-10.75 477.03-10.23 476.47-9.39 475.91-8.54 475.91-7.57L475.91-7.57Q475.91-6.15 476.79-5.6 477.66-5.05 478.96-5.05ZM525.69-15.55L525.69-15.55 525.69-1.29Q525.69-0.56 525.39-0.28 525.08 0 524.35 0L524.35 0 519.32 0Q518.59 0 518.28-0.28 517.98-0.56 517.98-1.29L517.98-1.29 517.98-14.28Q517.98-16.94 516.86-18.16 515.73-19.38 513.8-19.38L513.8-19.38Q511.88-19.38 510.84-18.55 509.8-17.72 509.24-16.46L509.24-16.46 509.24-1.29Q509.24-0.56 508.93-0.28 508.63 0 507.9 0L507.9 0 502.87 0Q502.13 0 501.83-0.28 501.52-0.56 501.52-1.29L501.52-1.29 501.52-21.75Q501.52-22.34 501.77-22.66L501.77-22.66Q502.28-23.34 503-24.05 503.72-24.76 504.77-25.56L504.77-25.56Q505.09-25.81 505.38-25.81L505.38-25.81Q505.65-25.81 505.99-25.56L505.99-25.56Q507.02-24.76 507.75-24.02 508.48-23.29 509.04-22.51L509.04-22.51 509.17-22.51Q509.58-23.05 510.41-23.77 511.24-24.49 512.74-25.05 514.24-25.61 516.59-25.61L516.59-25.61Q518.88-25.61 520.96-24.68 523.03-23.75 524.36-21.56 525.69-19.36 525.69-15.55ZM560-22.66L560-22.66 560-2.86Q560 4.27 555.94 8.01 551.87 11.74 544.79 11.74L544.79 11.74Q541.86 11.74 540.15 11.32 538.45 10.89 537.57 10.5L537.57 10.5Q537.01 10.23 536.83 9.94L536.83 9.94Q536.59 9.55 536.29 8.79 535.98 8.03 535.71 7.13L535.71 7.13Q535.64 6.79 535.69 6.62L535.69 6.62Q535.78 6.37 536.05 6.1L536.05 6.1Q536.49 5.66 537.31 5.08 538.13 4.49 538.57 4.32L538.57 4.32Q539.03 4.15 539.42 4.37L539.42 4.37Q540.06 4.71 541.24 5.14 542.43 5.57 544.57 5.57L544.57 5.57Q547.99 5.57 550.14 3.81 552.29 2.05 552.29-1.61L552.29-1.61 552.29-2.49 552.19-2.49Q551.65-1.81 550.8-1.1 549.94-0.39 548.59 0.1 547.24 0.59 545.11 0.59L545.11 0.59Q541.42 0.59 539.07-1.01 536.71-2.61 535.6-5.42 534.49-8.23 534.49-11.82L534.49-11.82Q534.49-15.75 535.78-18.87 537.08-22 540.13-23.82 543.18-25.63 548.48-25.63L548.48-25.63Q551.65-25.63 553.81-25.17 555.98-24.71 557.44-24.02 558.9-23.34 560-22.66ZM548.21-19.73L548.21-19.73Q545.38-19.73 543.89-17.82 542.4-15.92 542.4-11.91L542.4-11.91Q542.4-5.64 547.58-5.64L547.58-5.64Q549.6-5.64 550.68-6.47 551.75-7.3 552.29-8.57L552.29-8.57 552.29-18.65Q551.75-19.04 550.78-19.38 549.8-19.73 548.21-19.73ZM582.4 0.61L582.4 0.61Q578.27 0.61 575.22-0.72 572.17-2.05 570.48-4.86 568.8-7.67 568.8-12.11L568.8-12.11Q568.8-18.77 572.22-22.19 575.64-25.61 581.3-25.61L581.3-25.61Q584.99-25.61 587.54-24.29 590.09-22.97 591.42-20.65 592.75-18.33 592.75-15.36L592.75-15.36Q592.75-12.45 591.26-11.3 589.77-10.16 586.92-10.16L586.92-10.16 576.44-10.16Q576.64-7.64 578.28-6.32 579.93-5 582.76-5L582.76-5Q585.01-5 586.37-5.68 587.72-6.35 588.26-6.74L588.26-6.74Q588.72-7.08 589.31-7.06L589.31-7.06Q589.77-7.06 590.64-6.87 591.51-6.69 592.36-6.2L592.36-6.2Q592.97-5.88 592.97-5.32L592.97-5.32Q592.97-5 592.85-4.42L592.85-4.42Q592.77-4.08 592.6-3.43 592.43-2.78 592.16-2.22L592.16-2.22Q592.02-1.95 591.7-1.71L591.7-1.71Q591.21-1.37 590.13-0.81 589.04-0.24 587.16 0.18 585.28 0.61 582.4 0.61ZM576.39-15.16L576.39-15.16 584.35-15.16Q585.6-15.16 585.6-16.31L585.6-16.31Q585.6-18.04 584.51-19.23 583.42-20.41 581.25-20.41L581.25-20.41Q578.88-20.41 577.77-18.9 576.66-17.38 576.39-15.16Z" opacity="1" transform="matrix(1,0,0,1,0,0)" fill="#ffffff" class="slogan-text-1" data-fill-palette-color="secondary" id="text-1"></path></svg></g></svg></g></svg></g></svg></g></svg></g></svg></g></svg></g><path d="M192.194 86.402L192.194 22.927 393.54 22.927 393.54 224.273 192.194 224.273 192.194 160.798 195.229 160.798 195.229 221.238 390.505 221.238 390.505 25.962 195.229 25.962 195.229 86.402Z" fill="#43b9b2" stroke="transparent" data-fill-palette-color="tertiary"></path></svg></g><defs></defs></svg><rect width="395.52" height="247.2" fill="none" stroke="none" visibility="hidden"></rect></g></svg></g></svg>